<?xml version="1.0" encoding="UTF-8"?>
<!DOCTYPE svg PUBLIC "-//W3C//DTD SVG 1.1//EN" "http://www.w3.org/Graphics/SVG/1.1/DTD/svg11.dtd">
<svg xmlns="http://www.w3.org/2000/svg" version="1.1" width="500px" height="500px" style="shape-rendering:geometricPrecision; text-rendering:geometricPrecision; image-rendering:optimizeQuality; fill-rule:evenodd; clip-rule:evenodd" xmlns:xlink="http://www.w3.org/1999/xlink">
<g><path style="opacity:1" fill="#fefefe" d="M -0.5,-0.5 C 166.167,-0.5 332.833,-0.5 499.5,-0.5C 499.5,166.167 499.5,332.833 499.5,499.5C 332.833,499.5 166.167,499.5 -0.5,499.5C -0.5,332.833 -0.5,166.167 -0.5,-0.5 Z"/></g>
<g><path style="opacity:1" fill="#2092d6" d="M 227.5,92.5 C 295.887,89.2735 348.387,116.273 385,173.5C 413.626,227.837 413.626,282.17 385,336.5C 347.925,394.456 294.758,421.289 225.5,417C 160.549,406.697 115.716,371.197 91,310.5C 69.2577,240.632 85.091,180.798 138.5,131C 164.404,109.379 194.071,96.5458 227.5,92.5 Z"/></g>
<g><path style="opacity:1" fill="#fcfcfc" d="M 235.5,98.5 C 300.306,97.9715 349.14,125.305 382,180.5C 407.976,234.537 405.976,287.537 376,339.5C 336.531,395.302 282.698,418.469 214.5,409C 166.652,398.185 130.485,371.685 106,329.5C 76.5386,268.464 81.8719,210.797 122,156.5C 151.898,121.634 189.732,102.301 235.5,98.5 Z"/></g>
<g><path style="opacity:1" fill="#121212" d="M 242.5,112.5 C 243.496,112.414 244.329,112.748 245,113.5C 247.391,121.144 249.225,128.811 250.5,136.5C 249.5,136.5 248.5,136.5 247.5,136.5C 247.166,132.352 244.833,130.685 240.5,131.5C 241.244,134.95 239.91,136.616 236.5,136.5C 237.348,128.272 239.348,120.272 242.5,112.5 Z"/></g>
<g><path style="opacity:1" fill="#141414" d="M 223.5,115.5 C 225.451,115.227 226.951,115.893 228,117.5C 230.04,124.743 231.54,132.076 232.5,139.5C 230.876,139.64 229.71,138.973 229,137.5C 228,133.167 227,128.833 226,124.5C 225.652,128.817 223.485,130.983 219.5,131C 218.789,129.745 217.956,128.579 217,127.5C 217.8,132.069 218.3,136.736 218.5,141.5C 217.178,141.67 216.011,141.337 215,140.5C 213.945,132.727 212.445,125.06 210.5,117.5C 211.873,117.343 213.207,117.51 214.5,118C 216.667,120.833 218.833,123.667 221,126.5C 221.681,122.779 222.514,119.113 223.5,115.5 Z"/></g>
<g><path style="opacity:1" fill="#131313" d="M 272.5,117.5 C 282.914,118.988 286.081,124.654 282,134.5C 278.406,139.549 273.573,141.716 267.5,141C 266.978,140.439 266.645,139.772 266.5,139C 268.585,131.821 270.585,124.654 272.5,117.5 Z"/></g>
<g><path style="opacity:1" fill="#101010" d="M 197.5,120.5 C 199.167,120.5 200.833,120.5 202.5,120.5C 202.191,123.346 200.525,124.846 197.5,125C 196.027,127.608 196.527,129.775 199,131.5C 200.766,130.767 202.599,130.433 204.5,130.5C 204.719,131.675 204.386,132.675 203.5,133.5C 198.887,135.038 198.221,137.704 201.5,141.5C 203.979,139.924 206.646,138.924 209.5,138.5C 209.67,139.822 209.337,140.989 208.5,142C 205.475,143.688 202.475,145.021 199.5,146C 196.335,138.671 193.668,131.171 191.5,123.5C 193.97,123.346 195.97,122.346 197.5,120.5 Z"/></g>
<g><path style="opacity:1" fill="#ededed" d="M 274.5,122.5 C 278.295,121.959 280.295,123.625 280.5,127.5C 279.674,132.324 277.007,135.658 272.5,137.5C 272.167,136.833 271.833,136.167 271.5,135.5C 272.661,131.189 273.661,126.855 274.5,122.5 Z"/></g>
<g><path style="opacity:1" fill="#161616" d="M 293.5,122.5 C 296.844,123.508 300.177,124.508 303.5,125.5C 303.5,126.833 303.5,128.167 303.5,129.5C 300.84,128.653 298.174,128.153 295.5,128C 294.139,129.584 293.472,131.418 293.5,133.5C 296.588,133.197 298.254,134.53 298.5,137.5C 296.208,137.756 294.041,137.423 292,136.5C 290.885,138 290.052,139.667 289.5,141.5C 291.894,142.349 294.227,143.349 296.5,144.5C 297.711,145.274 297.711,146.107 296.5,147C 292.519,147.01 288.686,146.177 285,144.5C 284.333,143.5 284.333,142.5 285,141.5C 288.131,135.263 290.964,128.929 293.5,122.5 Z"/></g>
<g><path style="opacity:1" fill="#d5d5d5" d="M 242.5,121.5 C 244.28,122.99 244.946,124.99 244.5,127.5C 243.325,127.719 242.325,127.386 241.5,126.5C 242.309,124.929 242.643,123.262 242.5,121.5 Z"/></g>
<g><path style="opacity:1" fill="#131313" d="M 182.5,129.5 C 183.5,129.5 184.5,129.5 185.5,129.5C 185.548,132.292 184.215,134.125 181.5,135C 184.96,140.752 188.293,146.585 191.5,152.5C 190.711,154.488 189.545,154.821 188,153.5C 184.919,147.669 181.585,142.002 178,136.5C 176.103,138.016 173.936,138.683 171.5,138.5C 171.281,137.325 171.614,136.325 172.5,135.5C 175.897,133.474 179.23,131.474 182.5,129.5 Z"/></g>
<g><path style="opacity:1" fill="#161616" d="M 161.5,139.5 C 163.346,139.222 164.68,139.889 165.5,141.5C 164.135,142.941 162.635,144.274 161,145.5C 160.333,146.167 160.333,146.833 161,147.5C 164.259,149.139 167.759,150.306 171.5,151C 177.411,153.185 178.744,156.852 175.5,162C 173.086,163.885 170.419,164.552 167.5,164C 166.549,163.282 166.383,162.449 167,161.5C 168.785,160.76 170.618,160.093 172.5,159.5C 173.583,158.635 173.749,157.635 173,156.5C 169.925,154.229 166.425,153.063 162.5,153C 156.199,149.009 155.866,144.509 161.5,139.5 Z"/></g>
<g><path style="opacity:1" fill="#111111" d="M 327.5,141.5 C 329.346,141.222 330.68,141.889 331.5,143.5C 328.374,150.081 325.54,156.748 323,163.5C 321.989,164.337 320.822,164.67 319.5,164.5C 321.701,156.347 319.367,154.347 312.5,158.5C 311.212,155.572 311.879,153.072 314.5,151C 319.221,148.312 323.554,145.145 327.5,141.5 Z"/></g>
<g><path style="opacity:1" fill="#d9d9d9" d="M 323.5,149.5 C 324.325,151.125 323.992,152.792 322.5,154.5C 321.5,154.167 320.833,153.5 320.5,152.5C 321.34,151.265 322.34,150.265 323.5,149.5 Z"/></g>
<g><path style="opacity:1" fill="#121212" d="M 148.5,152.5 C 150.39,152.297 151.89,152.963 153,154.5C 156.632,159.134 160.632,163.467 165,167.5C 165.483,168.448 165.649,169.448 165.5,170.5C 164.448,170.649 163.448,170.483 162.5,170C 158,165.5 153.5,161 149,156.5C 148.51,155.207 148.343,153.873 148.5,152.5 Z"/></g>
<g><path style="opacity:1" fill="#181818" d="M 338.5,154.5 C 343.33,156.649 347.33,159.982 350.5,164.5C 350.167,165.5 349.5,166.167 348.5,166.5C 347.084,164.861 345.417,164.027 343.5,164C 339.167,168.333 334.833,172.667 330.5,177C 329.552,177.483 328.552,177.649 327.5,177.5C 327.343,176.127 327.51,174.793 328,173.5C 333.167,169.667 337.667,165.167 341.5,160C 339.393,158.736 338.393,156.903 338.5,154.5 Z"/></g>
<g><path style="opacity:1" fill="#171717" d="M 140.5,158.5 C 144.173,159.708 144.34,161.374 141,163.5C 140.51,164.793 140.343,166.127 140.5,167.5C 144.182,167.335 147.848,167.501 151.5,168C 159.556,170.661 160.556,174.995 154.5,181C 152.866,181.494 151.199,181.66 149.5,181.5C 150.861,178.975 152.527,176.642 154.5,174.5C 154.182,173.353 153.516,172.519 152.5,172C 148.5,171.667 144.5,171.333 140.5,171C 137.009,169.179 135.843,166.346 137,162.5C 138.376,161.295 139.542,159.962 140.5,158.5 Z"/></g>
<g><path style="opacity:1" fill="#121212" d="M 355.5,170.5 C 359.079,172.079 361.746,174.745 363.5,178.5C 363.167,179.5 362.5,180.167 361.5,180.5C 360.099,178.374 358.266,176.707 356,175.5C 350.673,176.817 350.173,179.15 354.5,182.5C 353.965,184.101 352.965,184.601 351.5,184C 350.333,182.833 349.167,181.667 348,180.5C 346.167,181.667 344.333,182.833 342.5,184C 344,185.5 345.5,187 347,188.5C 347.781,189.944 347.614,191.277 346.5,192.5C 343.167,189.833 340.167,186.833 337.5,183.5C 343.518,179.142 349.518,174.809 355.5,170.5 Z"/></g>
<g><path style="opacity:1" fill="#178fd6" d="M 233.5,172.5 C 248.118,170.773 261.118,174.439 272.5,183.5C 274.043,180.914 275.709,178.414 277.5,176C 279.134,175.506 280.801,175.34 282.5,175.5C 283.093,188.171 283.76,200.838 284.5,213.5C 281.881,213.768 279.381,213.435 277,212.5C 268.827,185.458 251.661,176.958 225.5,187C 216.992,194.893 215.326,204.059 220.5,214.5C 213.532,215.497 206.532,215.83 199.5,215.5C 200.117,192.562 211.451,178.229 233.5,172.5 Z"/></g>
<g><path style="opacity:1" fill="#111111" d="M 364.5,187.5 C 366.346,187.222 367.68,187.889 368.5,189.5C 365.357,193.811 362.023,197.978 358.5,202C 362.952,200.783 367.286,198.95 371.5,196.5C 373.101,197.035 373.601,198.035 373,199.5C 366.148,203.683 358.981,206.849 351.5,209C 350.483,207.951 350.316,206.784 351,205.5C 353.98,201.686 357.146,198.019 360.5,194.5C 360.333,194.167 360.167,193.833 360,193.5C 356.026,195.904 351.86,197.904 347.5,199.5C 346.068,199.267 345.568,198.6 346,197.5C 352.277,194.28 358.443,190.947 364.5,187.5 Z"/></g>
<g><path style="opacity:1" fill="#181818" d="M 115.5,195.5 C 116.833,195.5 118.167,195.5 119.5,195.5C 119.523,197.6 118.856,199.433 117.5,201C 117.645,201.772 117.978,202.439 118.5,203C 122.489,202.529 126.489,201.696 130.5,200.5C 140.401,203.588 141.068,208.255 132.5,214.5C 131.5,214.167 130.833,213.5 130.5,212.5C 131.48,211.019 132.647,209.685 134,208.5C 134.86,205.522 133.693,204.188 130.5,204.5C 126.224,205.991 121.891,206.825 117.5,207C 113.208,203.688 112.541,199.855 115.5,195.5 Z"/></g>
<g><path style="opacity:1" fill="#111111" d="M 363.5,209.5 C 367.902,209.228 372.235,209.561 376.5,210.5C 378.395,212.867 378.895,215.534 378,218.5C 377.29,219.973 376.124,220.64 374.5,220.5C 374.357,218.738 374.691,217.071 375.5,215.5C 375.023,214.522 374.357,213.689 373.5,213C 367.383,211.641 362.716,213.475 359.5,218.5C 359.785,220.569 360.952,221.902 363,222.5C 363.483,223.448 363.649,224.448 363.5,225.5C 356.414,224.603 354.247,220.936 357,214.5C 359.326,212.934 361.492,211.268 363.5,209.5 Z"/></g>
<g><path style="opacity:1" fill="#121212" d="M 108.5,214.5 C 109.5,214.5 110.5,214.5 111.5,214.5C 110.795,217.244 110.795,219.911 111.5,222.5C 113.409,223.348 115.409,223.682 117.5,223.5C 117.5,221.833 117.5,220.167 117.5,218.5C 118.5,218.5 119.5,218.5 120.5,218.5C 120.5,220.833 120.5,223.167 120.5,225.5C 122.262,225.357 123.929,225.691 125.5,226.5C 126.314,224.234 126.814,221.9 127,219.5C 128.011,218.663 129.178,218.33 130.5,218.5C 130.5,222.5 130.5,226.5 130.5,230.5C 122.696,229.371 115.029,227.538 107.5,225C 107.043,224.586 106.709,224.086 106.5,223.5C 107.169,220.47 107.835,217.47 108.5,214.5 Z"/></g>
<g><path style="opacity:1" fill="#0f0f0f" d="M 376.5,226.5 C 378.167,226.5 379.833,226.5 381.5,226.5C 381.67,227.822 381.337,228.989 380.5,230C 373.178,231.308 365.845,232.474 358.5,233.5C 358.5,232.5 358.5,231.5 358.5,230.5C 364.7,229.529 370.7,228.196 376.5,226.5 Z"/></g>
<g><path style="opacity:1" fill="#0b0b0b" d="M 209.5,227.5 C 211.288,227.215 212.955,227.548 214.5,228.5C 219.058,239.949 223.891,251.282 229,262.5C 230.6,263.866 232.433,264.866 234.5,265.5C 228.167,266.833 221.833,266.833 215.5,265.5C 219.878,263.668 220.712,260.668 218,256.5C 215.617,255.234 212.95,254.568 210,254.5C 202.757,253.341 199.757,256.341 201,263.5C 202.205,264.071 203.372,264.738 204.5,265.5C 200.167,266.833 195.833,266.833 191.5,265.5C 193.889,264.398 195.723,262.731 197,260.5C 201.468,249.593 205.635,238.593 209.5,227.5 Z"/></g>
<g><path style="opacity:1" fill="#0f0f0f" d="M 269.5,253.5 C 271.43,257.373 272.097,261.706 271.5,266.5C 270.057,265.665 269.057,264.332 268.5,262.5C 264.384,265.649 259.717,266.982 254.5,266.5C 241.612,266.445 235.279,259.945 235.5,247C 235.858,237.952 240.191,231.619 248.5,228C 255.002,226.804 261.168,227.638 267,230.5C 267.368,229.09 268.201,228.09 269.5,227.5C 270.492,231.783 270.826,236.116 270.5,240.5C 269.5,240.5 268.5,240.5 267.5,240.5C 265.486,231.986 260.152,228.819 251.5,231C 248.255,232.981 246.089,235.814 245,239.5C 244.333,244.5 244.333,249.5 245,254.5C 248.319,263.462 254.486,265.962 263.5,262C 266.523,259.823 268.523,256.989 269.5,253.5 Z"/></g>
<g><path style="opacity:1" fill="#0f0f0f" d="M 276.5,227.5 C 282.206,227.171 287.872,227.505 293.5,228.5C 292.672,229.415 291.672,230.081 290.5,230.5C 289.334,241.485 289.168,252.485 290,263.5C 291.509,264.09 293.009,264.756 294.5,265.5C 288.5,266.833 282.5,266.833 276.5,265.5C 278.193,264.772 279.693,263.772 281,262.5C 281.667,252.167 281.667,241.833 281,231.5C 279.141,230.421 277.641,229.088 276.5,227.5 Z"/></g>
<g><path style="opacity:1" fill="#171717" d="M 126.5,234.5 C 127.794,236.048 128.461,238.048 128.5,240.5C 128.468,242.759 128.134,244.925 127.5,247C 119.499,246.503 111.499,245.67 103.5,244.5C 103.5,243.167 103.5,241.833 103.5,240.5C 110.476,241.628 117.476,242.628 124.5,243.5C 124.7,240.37 125.366,237.37 126.5,234.5 Z"/></g>
<g><path style="opacity:1" fill="#f2f2f2" d="M 209.5,236.5 C 212.296,241.105 214.296,246.105 215.5,251.5C 211.833,251.5 208.167,251.5 204.5,251.5C 205.965,246.438 207.632,241.438 209.5,236.5 Z"/></g>
<g><path style="opacity:1" fill="#101010" d="M 369.5,236.5 C 375.001,235.779 379.834,237.112 384,240.5C 384.667,242.167 384.667,243.833 384,245.5C 377.964,249.111 371.464,250.278 364.5,249C 361.793,247.136 360.959,244.636 362,241.5C 364.17,239.177 366.67,237.51 369.5,236.5 Z"/></g>
<g><path style="opacity:1" fill="#e9e9e9" d="M 368.5,240.5 C 371.85,240.335 375.183,240.502 378.5,241C 379.308,241.308 379.975,241.808 380.5,242.5C 376.374,245.819 371.708,246.986 366.5,246C 365.08,243.426 365.747,241.593 368.5,240.5 Z"/></g>
<g><path style="opacity:1" fill="#101010" d="M 122.5,251.5 C 124.346,251.222 125.68,251.889 126.5,253.5C 125.232,255.047 123.565,256.047 121.5,256.5C 119.439,261.445 121.105,263.445 126.5,262.5C 126.5,263.5 126.5,264.5 126.5,265.5C 123.934,265.344 121.434,265.678 119,266.5C 114.363,264.464 109.529,262.964 104.5,262C 101.85,259.918 102.184,258.251 105.5,257C 111.389,255.425 117.056,253.591 122.5,251.5 Z"/></g>
<g><path style="opacity:1" fill="#777777" d="M 269.5,253.5 C 270.209,252.596 271.209,252.263 272.5,252.5C 272.819,257.363 272.486,262.03 271.5,266.5C 272.097,261.706 271.43,257.373 269.5,253.5 Z"/></g>
<g><path style="opacity:1" fill="#161616" d="M 360.5,254.5 C 368.517,254.501 376.517,254.834 384.5,255.5C 384.762,256.978 384.429,258.311 383.5,259.5C 378.873,261.431 374.206,263.265 369.5,265C 374.401,266.325 379.401,266.825 384.5,266.5C 384.5,267.5 384.5,268.5 384.5,269.5C 376.389,269.935 368.389,269.435 360.5,268C 359.273,266.413 359.606,265.079 361.5,264C 366.167,262.333 370.833,260.667 375.5,259C 370.833,258.667 366.167,258.333 361.5,258C 360.663,256.989 360.33,255.822 360.5,254.5 Z"/></g>
<g><path style="opacity:1" fill="#b7b7b7" d="M 115.5,257.5 C 116.586,257.62 117.253,258.287 117.5,259.5C 117.167,260.167 116.833,260.833 116.5,261.5C 114.775,260.985 113.108,260.318 111.5,259.5C 112.949,258.828 114.282,258.161 115.5,257.5 Z"/></g>
<g><path style="opacity:1" fill="#121212" d="M 121.5,270.5 C 124.167,270.5 126.833,270.5 129.5,270.5C 129.762,271.978 129.429,273.311 128.5,274.5C 124.639,277.528 120.639,280.361 116.5,283C 121.393,282.098 126.393,281.598 131.5,281.5C 131.5,282.5 131.5,283.5 131.5,284.5C 123.533,285.76 115.533,286.76 107.5,287.5C 107.33,286.178 107.663,285.011 108.5,284C 112.5,281.333 116.5,278.667 120.5,276C 115.486,276.056 110.486,276.556 105.5,277.5C 105.33,276.178 105.663,275.011 106.5,274C 111.758,273.386 116.758,272.219 121.5,270.5 Z"/></g>
<g><path style="opacity:1" fill="#138fd5" d="M 194.5,283.5 C 197.247,283.187 199.914,283.52 202.5,284.5C 209.561,303.117 223.061,312.784 243,313.5C 264.199,314.464 274.699,304.464 274.5,283.5C 281.167,283.5 287.833,283.5 294.5,283.5C 293.318,299.684 285.318,311.184 270.5,318C 247.616,327.475 226.282,324.975 206.5,310.5C 204.333,312.83 202.666,315.497 201.5,318.5C 199.955,319.452 198.288,319.785 196.5,319.5C 195.701,307.508 195.034,295.508 194.5,283.5 Z"/></g>
<g><path style="opacity:1" fill="#131313" d="M 356.5,284.5 C 364.719,286.554 372.719,289.22 380.5,292.5C 375.22,304.13 368.053,305.463 359,296.5C 356.868,292.792 356.035,288.792 356.5,284.5 Z"/></g>
<g><path style="opacity:1" fill="#ededed" d="M 359.5,288.5 C 364.897,290.299 370.23,292.299 375.5,294.5C 371.166,299.711 366.666,299.711 362,294.5C 360.878,292.593 360.045,290.593 359.5,288.5 Z"/></g>
<g><path style="opacity:1" fill="#121212" d="M 121.5,290.5 C 124.85,290.335 128.183,290.502 131.5,291C 133.444,293.153 133.944,295.653 133,298.5C 128.134,303.353 122.3,305.52 115.5,305C 111.721,303.596 110.721,301.096 112.5,297.5C 115.257,294.73 118.257,292.396 121.5,290.5 Z"/></g>
<g><path style="opacity:1" fill="#e6e6e6" d="M 124.5,293.5 C 126.467,293.261 128.301,293.594 130,294.5C 130.507,295.996 130.007,297.163 128.5,298C 124.569,301.202 120.236,302.036 115.5,300.5C 118.023,297.422 121.023,295.089 124.5,293.5 Z"/></g>
<g><path style="opacity:1" fill="#121212" d="M 351.5,301.5 C 359.238,304.536 366.571,308.369 373.5,313C 372.147,315.38 370.981,317.88 370,320.5C 368.989,321.337 367.822,321.67 366.5,321.5C 367.347,318.84 367.847,316.174 368,313.5C 366.416,312.139 364.582,311.472 362.5,311.5C 362.756,313.912 361.756,315.579 359.5,316.5C 358.472,314.56 358.472,312.56 359.5,310.5C 358.461,308.469 356.795,307.136 354.5,306.5C 353.515,308.772 352.681,311.105 352,313.5C 350.174,314.841 349.007,314.341 348.5,312C 349.811,308.569 350.811,305.069 351.5,301.5 Z"/></g>
<g><path style="opacity:1" fill="#131313" d="M 136.5,303.5 C 137.5,303.5 138.5,303.5 139.5,303.5C 139.67,304.822 139.337,305.989 138.5,307C 132.398,310.385 126.065,313.218 119.5,315.5C 117.128,314.637 117.128,313.471 119.5,312C 125.49,309.627 131.156,306.794 136.5,303.5 Z"/></g>
<g><path style="opacity:1" fill="#101010" d="M 136.5,312.5 C 143.38,311.876 146.214,314.876 145,321.5C 140.663,328.251 134.496,331.085 126.5,330C 123.653,327.429 122.987,324.429 124.5,321C 125.448,320.517 126.448,320.351 127.5,320.5C 127.5,322.5 127.5,324.5 127.5,326.5C 132.9,327.215 137.4,325.548 141,321.5C 142.995,317.333 141.495,315.333 136.5,315.5C 136.5,314.5 136.5,313.5 136.5,312.5 Z"/></g>
<g><path style="opacity:1" fill="#151515" d="M 148.5,327.5 C 157.113,328.638 158.78,332.804 153.5,340C 149.65,342.761 145.983,345.761 142.5,349C 140.333,349.5 139.5,348.667 140,346.5C 143.81,342.6 147.81,338.934 152,335.5C 152.49,334.207 152.657,332.873 152.5,331.5C 150.345,331.372 148.345,331.872 146.5,333C 143.5,336 140.5,339 137.5,342C 134.686,342.214 134.02,341.047 135.5,338.5C 139.584,334.405 143.918,330.739 148.5,327.5 Z"/></g>
<g><path style="opacity:1" fill="#101010" d="M 333.5,329.5 C 345.941,329.103 351.608,334.937 350.5,347C 347.906,348.601 345.239,348.767 342.5,347.5C 344.542,346.09 346.542,344.59 348.5,343C 346.295,336.175 341.795,333.009 335,333.5C 334.505,335.473 334.338,337.473 334.5,339.5C 333.5,339.5 332.5,339.5 331.5,339.5C 331.034,335.838 331.701,332.505 333.5,329.5 Z"/></g>
<g><path style="opacity:1" fill="#151515" d="M 166.5,339.5 C 168.686,339.511 169.519,340.511 169,342.5C 164.645,347.354 160.478,352.354 156.5,357.5C 157.833,359.167 159.167,360.833 160.5,362.5C 159.277,363.614 157.944,363.781 156.5,363C 153.573,360.618 150.739,358.118 148,355.5C 147.517,354.552 147.351,353.552 147.5,352.5C 149.816,353.36 152.149,353.86 154.5,354C 158.712,349.293 162.712,344.46 166.5,339.5 Z"/></g>
<g><path style="opacity:1" fill="#111111" d="M 321.5,342.5 C 330.253,343.252 335.586,347.919 337.5,356.5C 337.674,358.693 337.007,360.527 335.5,362C 327.119,360.959 321.785,356.293 319.5,348C 319.758,345.991 320.425,344.157 321.5,342.5 Z"/></g>
<g><path style="opacity:1" fill="#eeeeee" d="M 323.5,346.5 C 330.292,347.934 333.625,351.934 333.5,358.5C 327.549,356.56 324.216,352.56 323.5,346.5 Z"/></g>
<g><path style="opacity:1" fill="#111111" d="M 310.5,349.5 C 311.822,349.33 312.989,349.663 314,350.5C 317.241,356.902 321.075,362.902 325.5,368.5C 318.665,375.829 313.332,374.996 309.5,366C 309.645,364.774 309.978,363.607 310.5,362.5C 307.681,361.257 305.014,359.757 302.5,358C 301.663,356.989 301.33,355.822 301.5,354.5C 304.516,354.841 307.182,356.007 309.5,358C 310.944,358.781 312.277,358.614 313.5,357.5C 311.924,355.021 310.924,352.354 310.5,349.5 Z"/></g>
<g><path style="opacity:1" fill="#161616" d="M 176.5,349.5 C 179.838,350.193 180.338,351.86 178,354.5C 174.064,360.053 169.897,365.387 165.5,370.5C 164.386,369.277 164.219,367.944 165,366.5C 168.843,360.805 172.677,355.138 176.5,349.5 Z"/></g>
<g><path style="opacity:1" fill="#121212" d="M 188.5,355.5 C 189.5,355.5 190.5,355.5 191.5,355.5C 188.806,361.891 185.806,368.224 182.5,374.5C 184.126,375.99 185.792,377.49 187.5,379C 186.892,379.87 186.059,380.37 185,380.5C 180.41,378.792 176.243,376.458 172.5,373.5C 172.833,372.5 173.5,371.833 174.5,371.5C 176.169,372.89 177.836,373.223 179.5,372.5C 182.258,366.648 185.258,360.981 188.5,355.5 Z"/></g>
<g><path style="opacity:1" fill="#111111" d="M 295.5,358.5 C 298.434,359.289 300.268,361.289 301,364.5C 303.069,369.541 305.236,374.541 307.5,379.5C 303.432,382.937 299.099,383.27 294.5,380.5C 293.104,379.148 292.437,377.481 292.5,375.5C 292.904,373.776 293.071,372.109 293,370.5C 290.022,368.689 287.522,366.356 285.5,363.5C 285.833,362.5 286.5,361.833 287.5,361.5C 290.271,364.548 293.604,366.548 297.5,367.5C 296.539,364.574 295.873,361.574 295.5,358.5 Z"/></g>
<g><path style="opacity:1" fill="#eaeaea" d="M 315.5,362.5 C 317.619,363.791 319.285,365.625 320.5,368C 318.191,370.051 316.024,369.884 314,367.5C 313.387,365.505 313.887,363.838 315.5,362.5 Z"/></g>
<g><path style="opacity:1" fill="#111111" d="M 201.5,363.5 C 206.086,363.42 209.419,365.42 211.5,369.5C 211.167,370.5 210.5,371.167 209.5,371.5C 208.276,370.234 206.943,369.067 205.5,368C 204.216,367.316 203.049,367.483 202,368.5C 202.387,373.021 203.22,377.521 204.5,382C 203.124,388.269 199.624,389.769 194,386.5C 193.517,385.552 193.351,384.552 193.5,383.5C 196.068,384.45 198.568,384.45 201,383.5C 200.358,379.351 199.525,375.184 198.5,371C 198.11,367.876 199.11,365.376 201.5,363.5 Z"/></g>
<g><path style="opacity:1" fill="#191919" d="M 278.5,366.5 C 280.144,366.286 281.644,366.62 283,367.5C 284.737,374.874 286.571,382.208 288.5,389.5C 284.957,390.847 281.29,391.68 277.5,392C 276.549,391.282 276.383,390.449 277,389.5C 278.648,388.283 280.481,387.45 282.5,387C 283.866,384.618 283.533,382.452 281.5,380.5C 279.484,381.706 277.484,381.706 275.5,380.5C 276.436,379.026 277.77,378.026 279.5,377.5C 280.956,375.122 280.623,373.122 278.5,371.5C 275.979,372.785 273.313,373.452 270.5,373.5C 270.281,372.325 270.614,371.325 271.5,370.5C 274.059,369.392 276.392,368.059 278.5,366.5 Z"/></g>
<g><path style="opacity:1" fill="#121212" d="M 216.5,367.5 C 217.822,367.33 218.989,367.663 220,368.5C 221.168,373.173 222.335,377.839 223.5,382.5C 224.854,378.566 226.021,374.566 227,370.5C 227.414,370.043 227.914,369.709 228.5,369.5C 228.833,370.5 229.167,371.5 229.5,372.5C 228.292,379.206 226.959,385.872 225.5,392.5C 224.349,393.731 223.183,393.731 222,392.5C 220.92,387.101 219.587,381.768 218,376.5C 216.327,381.363 215.494,386.363 215.5,391.5C 214.167,391.5 212.833,391.5 211.5,391.5C 212.405,383.309 214.071,375.309 216.5,367.5 Z"/></g>
<g><path style="opacity:1" fill="#191919" d="M 234.5,370.5 C 236.252,370.418 237.252,371.251 237.5,373C 236.721,379.797 236.221,386.63 236,393.5C 234.989,394.337 233.822,394.67 232.5,394.5C 232.115,386.358 232.782,378.358 234.5,370.5 Z"/></g>
<g><path style="opacity:1" fill="#111111" d="M 257.5,371.5 C 262.448,371.267 265.615,373.601 267,378.5C 267.667,382.167 267.667,385.833 267,389.5C 265.695,393.82 263.029,395.153 259,393.5C 254.99,387.722 253.656,381.388 255,374.5C 256.045,373.627 256.878,372.627 257.5,371.5 Z"/></g>
<g><path style="opacity:1" fill="#ebebeb" d="M 297.5,372.5 C 300.246,372.928 301.913,374.594 302.5,377.5C 300.125,380.123 297.959,379.789 296,376.5C 295.7,374.934 296.2,373.601 297.5,372.5 Z"/></g>
<g><path style="opacity:1" fill="#ebebeb" d="M 258.5,375.5 C 261.888,375.874 263.722,377.874 264,381.5C 264.938,384.88 264.271,387.88 262,390.5C 258.878,386.026 257.711,381.026 258.5,375.5 Z"/></g>
</svg>
