<?xml version="1.0" encoding="UTF-8"?>
<!DOCTYPE svg PUBLIC "-//W3C//DTD SVG 1.1//EN" "http://www.w3.org/Graphics/SVG/1.1/DTD/svg11.dtd">
<svg xmlns="http://www.w3.org/2000/svg" version="1.1" width="500px" height="500px" style="shape-rendering:geometricPrecision; text-rendering:geometricPrecision; image-rendering:optimizeQuality; fill-rule:evenodd; clip-rule:evenodd" xmlns:xlink="http://www.w3.org/1999/xlink">
<g><path style="opacity:1" fill="#050a30" d="M -0.5,-0.5 C 166.167,-0.5 332.833,-0.5 499.5,-0.5C 499.5,166.167 499.5,332.833 499.5,499.5C 332.833,499.5 166.167,499.5 -0.5,499.5C -0.5,332.833 -0.5,166.167 -0.5,-0.5 Z"/></g>
<g><path style="opacity:1" fill="#ef8b26" d="M 289.5,128.5 C 293.415,130.743 296.749,133.743 299.5,137.5C 296.833,140.833 293.833,143.833 290.5,146.5C 287.683,143.182 284.683,140.015 281.5,137C 284.371,134.297 287.038,131.464 289.5,128.5 Z"/></g>
<g><path style="opacity:1" fill="#e34133" d="M 309.5,147.5 C 312.297,149.795 314.964,152.295 317.5,155C 315,157.5 312.5,160 310,162.5C 307.5,160 305,157.5 302.5,155C 305.039,152.63 307.372,150.13 309.5,147.5 Z"/></g>
<g><path style="opacity:1" fill="#0689d0" d="M 283.5,151.5 C 287.947,154.113 291.614,157.613 294.5,162C 291.382,166.121 287.882,169.954 284,173.5C 280.318,169.985 276.818,166.318 273.5,162.5C 276.855,158.813 280.189,155.147 283.5,151.5 Z"/></g>
<g><path style="opacity:1" fill="#e84233" d="M 259.5,158.5 C 264.419,161.748 268.753,165.748 272.5,170.5C 268.833,174.833 264.833,178.833 260.5,182.5C 256.167,178.833 252.167,174.833 248.5,170.5C 252.189,166.48 255.855,162.48 259.5,158.5 Z"/></g>
<g><path style="opacity:1" fill="#ed8a26" d="M 247.5,174.5 C 243.167,174.5 238.833,174.5 234.5,174.5C 234.182,179.032 234.515,183.366 235.5,187.5C 236.038,194.822 236.371,202.155 236.5,209.5C 252.006,206.675 258.006,213.008 254.5,228.5C 266.176,228.561 277.843,228.894 289.5,229.5C 289.201,227.396 289.534,225.396 290.5,223.5C 292.867,224.822 294.533,224.155 295.5,221.5C 296.167,223.833 296.833,226.167 297.5,228.5C 297.665,232.182 297.499,235.848 297,239.5C 284.167,252.333 271.333,265.167 258.5,278C 256.635,279.301 254.635,279.635 252.5,279C 230.333,256.833 208.167,234.667 186,212.5C 185.245,209.697 185.578,207.03 187,204.5C 199.113,192.387 211.279,180.221 223.5,168C 225.87,166.964 228.37,166.464 231,166.5C 236.17,166.967 241.337,167.467 246.5,168C 245.643,168.689 244.977,169.522 244.5,170.5C 245.524,171.852 246.524,173.185 247.5,174.5 Z"/></g>
<g><path style="opacity:1" fill="#e48527" d="M 300.5,170.5 C 303.015,172.182 305.015,174.348 306.5,177C 305.056,179.449 303.222,181.615 301,183.5C 298.833,181.333 296.667,179.167 294.5,177C 296.706,174.963 298.706,172.797 300.5,170.5 Z"/></g>
<g><path style="opacity:1" fill="#7e4c2b" d="M 247.5,174.5 C 244.278,175.502 240.278,175.835 235.5,175.5C 235.5,179.5 235.5,183.5 235.5,187.5C 234.515,183.366 234.182,179.032 234.5,174.5C 238.833,174.5 243.167,174.5 247.5,174.5 Z"/></g>
<g><path style="opacity:1" fill="#0686cc" d="M 322.5,174.5 C 326.415,176.743 329.749,179.743 332.5,183.5C 329.833,186.833 326.833,189.833 323.5,192.5C 320.349,189.85 317.349,187.016 314.5,184C 317.002,180.667 319.668,177.501 322.5,174.5 Z"/></g>
<g><path style="opacity:1" fill="#0e0f2f" d="M 225.5,176.5 C 226.821,179.598 227.488,183.098 227.5,187C 227.864,194.169 228.197,201.336 228.5,208.5C 217.769,208.903 207.102,208.403 196.5,207C 206.006,196.662 215.672,186.495 225.5,176.5 Z"/></g>
<g><path style="opacity:1" fill="#e04033" d="M 286.5,185.5 C 289.97,186.288 292.637,188.288 294.5,191.5C 292.517,193.984 290.35,196.317 288,198.5C 285.65,196.317 283.483,193.984 281.5,191.5C 283.19,189.481 284.856,187.481 286.5,185.5 Z"/></g>
<g><path style="opacity:1" fill="#0689d0" d="M 267.5,188.5 C 270.812,191.146 273.812,194.146 276.5,197.5C 273.833,200.833 270.833,203.833 267.5,206.5C 264.299,204.134 261.633,201.3 259.5,198C 261.988,194.679 264.655,191.512 267.5,188.5 Z"/></g>
<g><path style="opacity:1" fill="#ed8a26" d="M 314.5,192.5 C 317.964,195.462 321.297,198.629 324.5,202C 321.333,205.167 318.167,208.333 315,211.5C 311.833,208.333 308.667,205.167 305.5,202C 308.704,198.964 311.704,195.797 314.5,192.5 Z"/></g>
<g><path style="opacity:1" fill="#0683c9" d="M 291.5,204.5 C 294.563,206.051 297.229,208.218 299.5,211C 297,213.5 294.5,216 292,218.5C 289.65,216.317 287.483,213.984 285.5,211.5C 287.523,209.147 289.523,206.814 291.5,204.5 Z"/></g>
<g><path style="opacity:1" fill="#080b2f" d="M 201.5,217.5 C 216.336,216.489 231.336,216.489 246.5,217.5C 247.167,232.847 247.667,248.18 248,263.5C 232.632,247.965 217.132,232.632 201.5,217.5 Z"/></g>
<g><path style="opacity:1" fill="#71452b" d="M 295.5,221.5 C 295.56,220.957 295.893,220.624 296.5,220.5C 297.48,223.086 297.813,225.753 297.5,228.5C 296.833,226.167 296.167,223.833 295.5,221.5 Z"/></g>
<g><path style="opacity:1" fill="#844f2a" d="M 263.5,236.5 C 260.833,236.5 258.167,236.5 255.5,236.5C 255.5,237.833 255.5,239.167 255.5,240.5C 254.549,239.081 254.216,237.415 254.5,235.5C 257.713,235.19 260.713,235.523 263.5,236.5 Z"/></g>
<g><path style="opacity:1" fill="#0a0d2f" d="M 263.5,236.5 C 271.528,236.169 279.528,236.502 287.5,237.5C 277.514,247.986 267.348,258.319 257,268.5C 256.256,259.176 255.756,249.843 255.5,240.5C 255.5,239.167 255.5,237.833 255.5,236.5C 258.167,236.5 260.833,236.5 263.5,236.5 Z"/></g>
<g><path style="opacity:1" fill="#e7e9f1" d="M 210.5,300.5 C 215.126,299.7 218.96,301.034 222,304.5C 222.268,306.59 221.268,307.924 219,308.5C 215.837,304.597 213.003,304.597 210.5,308.5C 212.939,311.896 216.272,314.062 220.5,315C 224.212,317.602 225.378,321.102 224,325.5C 222.891,327.815 221.057,329.315 218.5,330C 210.39,332.286 205.39,329.452 203.5,321.5C 206.864,320.789 209.197,321.956 210.5,325C 213.429,325.777 216.263,325.61 219,324.5C 219.72,322.888 219.554,321.388 218.5,320C 213.919,318.129 209.752,315.629 206,312.5C 204.309,307.131 205.809,303.131 210.5,300.5 Z"/></g>
<g><path style="opacity:1" fill="#e6e8f0" d="M 237.5,301.5 C 239.288,301.215 240.955,301.548 242.5,302.5C 246.362,311.42 250.029,320.42 253.5,329.5C 251.604,330.466 249.604,330.799 247.5,330.5C 247.167,328.5 246.833,326.5 246.5,324.5C 242.167,324.5 237.833,324.5 233.5,324.5C 233.167,326.5 232.833,328.5 232.5,330.5C 230.396,330.799 228.396,330.466 226.5,329.5C 230.18,320.145 233.846,310.812 237.5,301.5 Z"/></g>
<g><path style="opacity:1" fill="#e3e5ee" d="M 265.5,300.5 C 273.156,299.163 278.823,301.83 282.5,308.5C 279.717,311.351 277.384,311.017 275.5,307.5C 263.924,303.902 259.424,308.236 262,320.5C 264.435,325.224 268.269,326.724 273.5,325C 275.491,323.842 277.158,322.342 278.5,320.5C 280.002,321.083 281.335,321.916 282.5,323C 278.113,330.149 271.779,332.483 263.5,330C 256.11,324.49 253.943,317.324 257,308.5C 259.074,304.923 261.907,302.256 265.5,300.5 Z"/></g>
<g><path style="opacity:1" fill="#f2f4fa" d="M 287.5,301.5 C 289.167,301.5 290.833,301.5 292.5,301.5C 292.5,311.167 292.5,320.833 292.5,330.5C 290.833,330.5 289.167,330.5 287.5,330.5C 287.5,320.833 287.5,311.167 287.5,301.5 Z"/></g>
<g><path style="opacity:1" fill="#11183a" d="M 239.5,309.5 C 241.403,312.53 242.737,315.863 243.5,319.5C 241.167,319.5 238.833,319.5 236.5,319.5C 237.492,316.177 238.492,312.844 239.5,309.5 Z"/></g>
<g><path style="opacity:1" fill="#bcbecc" d="M 104.5,346.5 C 105.787,347.871 106.453,349.705 106.5,352C 106.167,353.833 105.833,355.667 105.5,357.5C 104.511,353.893 104.177,350.226 104.5,346.5 Z"/></g>
<g><path style="opacity:1" fill="#dbdee7" d="M 119.5,346.5 C 122.572,346.183 125.572,346.516 128.5,347.5C 127.311,348.429 125.978,348.762 124.5,348.5C 123.833,360.5 123.167,360.5 122.5,348.5C 120.821,348.715 119.821,348.048 119.5,346.5 Z"/></g>
<g><path style="opacity:1" fill="#caccd8" d="M 137.5,351.5 C 136.081,352.451 134.415,352.784 132.5,352.5C 132.263,353.791 132.596,354.791 133.5,355.5C 135.288,355.215 136.955,355.548 138.5,356.5C 135.914,357.48 133.247,357.813 130.5,357.5C 130.5,353.833 130.5,350.167 130.5,346.5C 133.247,346.187 135.914,346.52 138.5,347.5C 136.833,348.167 135.167,348.833 133.5,349.5C 134.949,350.172 136.282,350.839 137.5,351.5 Z"/></g>
<g><path style="opacity:1" fill="#e8eaf2" d="M 186.5,346.5 C 188.924,346.192 191.257,346.526 193.5,347.5C 191.955,348.452 190.288,348.785 188.5,348.5C 188.5,349.5 188.5,350.5 188.5,351.5C 195.167,351.833 195.167,352.167 188.5,352.5C 188.5,353.5 188.5,354.5 188.5,355.5C 190.288,355.215 191.955,355.548 193.5,356.5C 191.257,357.474 188.924,357.808 186.5,357.5C 186.5,353.833 186.5,350.167 186.5,346.5 Z"/></g>
<g><path style="opacity:1" fill="#dbdee7" d="M 213.5,346.5 C 216.572,346.183 219.572,346.516 222.5,347.5C 221.311,348.429 219.978,348.762 218.5,348.5C 217.833,360.5 217.167,360.5 216.5,348.5C 214.821,348.715 213.821,348.048 213.5,346.5 Z"/></g>
<g><path style="opacity:1" fill="#caccd8" d="M 231.5,351.5 C 230.081,352.451 228.415,352.784 226.5,352.5C 226.263,353.791 226.596,354.791 227.5,355.5C 229.288,355.215 230.955,355.548 232.5,356.5C 229.914,357.48 227.247,357.813 224.5,357.5C 224.5,353.833 224.5,350.167 224.5,346.5C 227.247,346.187 229.914,346.52 232.5,347.5C 230.833,348.167 229.167,348.833 227.5,349.5C 228.949,350.172 230.282,350.839 231.5,351.5 Z"/></g>
<g><path style="opacity:1" fill="#d5d8e2" d="M 235.5,346.5 C 238.775,347.614 240.942,349.947 242,353.5C 242.186,351.1 242.686,348.766 243.5,346.5C 244.833,350.167 244.833,353.833 243.5,357.5C 241.196,355.569 239.362,353.236 238,350.5C 237.814,352.9 237.314,355.234 236.5,357.5C 235.511,353.893 235.177,350.226 235.5,346.5 Z"/></g>
<g><path style="opacity:1" fill="#bcbecc" d="M 261.5,346.5 C 262.787,347.871 263.453,349.705 263.5,352C 263.167,353.833 262.833,355.667 262.5,357.5C 261.511,353.893 261.177,350.226 261.5,346.5 Z"/></g>
<g><path style="opacity:1" fill="#e8eaf2" d="M 310.5,346.5 C 312.924,346.192 315.257,346.526 317.5,347.5C 315.955,348.452 314.288,348.785 312.5,348.5C 312.5,349.5 312.5,350.5 312.5,351.5C 319.167,351.833 319.167,352.167 312.5,352.5C 312.5,353.5 312.5,354.5 312.5,355.5C 314.288,355.215 315.955,355.548 317.5,356.5C 315.257,357.474 312.924,357.808 310.5,357.5C 310.5,353.833 310.5,350.167 310.5,346.5 Z"/></g>
<g><path style="opacity:1" fill="#dadde6" d="M 352.5,346.5 C 355.641,345.908 357.974,346.908 359.5,349.5C 356.929,352.196 357.263,354.696 360.5,357C 359.365,357.749 358.365,357.583 357.5,356.5C 355.377,351.155 354.043,351.489 353.5,357.5C 352.511,353.893 352.177,350.226 352.5,346.5 Z"/></g>
<g><path style="opacity:1" fill="#e4e6ee" d="M 363.5,346.5 C 370.19,345.331 371.857,347.497 368.5,353C 369.743,354.154 370.743,355.488 371.5,357C 370.833,357.667 370.167,357.667 369.5,357C 368.213,355.59 367.046,354.09 366,352.5C 365.798,354.256 365.298,355.922 364.5,357.5C 363.511,353.893 363.177,350.226 363.5,346.5 Z"/></g>
<g><path style="opacity:1" fill="#d3d5e0" d="M 374.5,346.5 C 377.247,346.187 379.914,346.52 382.5,347.5C 380.5,348.167 378.5,348.833 376.5,349.5C 383.049,351.093 383.049,352.093 376.5,352.5C 376.5,353.5 376.5,354.5 376.5,355.5C 378.604,355.201 380.604,355.534 382.5,356.5C 379.914,357.48 377.247,357.813 374.5,357.5C 374.5,353.833 374.5,350.167 374.5,346.5 Z"/></g>
<g><path style="opacity:1" fill="#d8dbe4" d="M 268.5,346.5 C 276.618,346.382 278.618,349.882 274.5,357C 266.568,357.326 264.568,353.826 268.5,346.5 Z"/></g>
<g><path style="opacity:1" fill="#0b1336" d="M 269.5,348.5 C 274.328,348.385 275.661,350.552 273.5,355C 268.57,355.427 267.237,353.26 269.5,348.5 Z"/></g>
<g><path style="opacity:1" fill="#1d2143" d="M 354.5,348.5 C 357.957,348.667 358.29,349.667 355.5,351.5C 354.614,350.675 354.281,349.675 354.5,348.5 Z"/></g>
<g><path style="opacity:1" fill="#1f2445" d="M 365.5,348.5 C 366.5,348.5 367.5,348.5 368.5,348.5C 368.5,349.5 368.5,350.5 368.5,351.5C 367.5,351.5 366.5,351.5 365.5,351.5C 365.5,350.5 365.5,349.5 365.5,348.5 Z"/></g>
<g><path style="opacity:1" fill="#cdcfdb" d="M 250.5,346.5 C 253.157,346.162 255.49,346.829 257.5,348.5C 255.657,348.755 253.657,348.922 251.5,349C 249.41,355.082 251.076,356.582 256.5,353.5C 257.833,354.5 257.833,355.5 256.5,356.5C 250.197,358.363 247.364,356.03 248,349.5C 249.045,348.627 249.878,347.627 250.5,346.5 Z"/></g>
<g><path style="opacity:1" fill="#cdcfdb" d="M 328.5,346.5 C 331.157,346.162 333.49,346.829 335.5,348.5C 333.657,348.755 331.657,348.922 329.5,349C 327.41,355.082 329.076,356.582 334.5,353.5C 335.833,354.5 335.833,355.5 334.5,356.5C 328.197,358.363 325.364,356.03 326,349.5C 327.045,348.627 327.878,347.627 328.5,346.5 Z"/></g>
<g><path style="opacity:1" fill="#ced0db" d="M 387.5,346.5 C 395.168,346.507 397.168,349.84 393.5,356.5C 387.197,358.363 384.364,356.03 385,349.5C 386.045,348.627 386.878,347.627 387.5,346.5 Z"/></g>
<g><path style="opacity:1" fill="#0a1235" d="M 388.5,348.5 C 392.677,347.842 394.177,349.508 393,353.5C 391.688,355.658 390.022,355.991 388,354.5C 387.322,352.402 387.489,350.402 388.5,348.5 Z"/></g>
<g><path style="opacity:1" fill="#cbced9" d="M 141.5,346.5 C 142.552,346.351 143.552,346.517 144.5,347C 145.594,348.78 146.594,350.614 147.5,352.5C 148.427,350.887 149.261,349.221 150,347.5C 151.011,346.663 152.178,346.33 153.5,346.5C 153.823,350.226 153.489,353.893 152.5,357.5C 151.686,355.234 151.186,352.9 151,350.5C 148.594,358.459 146.261,358.459 144,350.5C 143.814,352.9 143.314,355.234 142.5,357.5C 141.511,353.893 141.177,350.226 141.5,346.5 Z"/></g>
<g><path style="opacity:1" fill="#d6d8e2" d="M 160.5,346.5 C 161.376,346.369 162.043,346.702 162.5,347.5C 163.704,350.739 165.038,353.906 166.5,357C 164.742,356.656 162.909,356.156 161,355.5C 159.635,355.844 158.468,356.511 157.5,357.5C 157.418,353.717 158.418,350.05 160.5,346.5 Z"/></g>
<g><path style="opacity:1" fill="#d9dbe5" d="M 111.5,346.5 C 117.261,346.87 117.594,347.87 112.5,349.5C 113.914,350.624 115.414,351.624 117,352.5C 117.548,356.662 115.714,358.162 111.5,357C 110.833,356.333 110.167,355.667 109.5,355C 116.354,355.856 116.854,354.689 111,351.5C 110.36,349.735 110.527,348.068 111.5,346.5 Z"/></g>
<g><path style="opacity:1" fill="#5f627c" d="M 137.5,351.5 C 138.043,351.56 138.376,351.893 138.5,352.5C 136.345,353.001 134.678,354.001 133.5,355.5C 132.596,354.791 132.263,353.791 132.5,352.5C 134.415,352.784 136.081,352.451 137.5,351.5 Z"/></g>
<g><path style="opacity:1" fill="#232749" d="M 160.5,350.5 C 162.332,351.14 162.665,352.14 161.5,353.5C 160.614,352.675 160.281,351.675 160.5,350.5 Z"/></g>
<g><path style="opacity:1" fill="#d8dae4" d="M 205.5,346.5 C 206.496,346.414 207.329,346.748 208,347.5C 209.167,350.5 210.333,353.5 211.5,356.5C 211.167,356.833 210.833,357.167 210.5,357.5C 207.833,354.833 205.167,354.833 202.5,357.5C 202.167,357.167 201.833,356.833 201.5,356.5C 202.846,353.145 204.18,349.812 205.5,346.5 Z"/></g>
<g><path style="opacity:1" fill="#2b2f50" d="M 205.5,350.5 C 207.465,350.948 207.798,351.948 206.5,353.5C 205.614,352.675 205.281,351.675 205.5,350.5 Z"/></g>
<g><path style="opacity:1" fill="#5f627c" d="M 231.5,351.5 C 232.043,351.56 232.376,351.893 232.5,352.5C 230.345,353.001 228.678,354.001 227.5,355.5C 226.596,354.791 226.263,353.791 226.5,352.5C 228.415,352.784 230.081,352.451 231.5,351.5 Z"/></g>
<g><path style="opacity:1" fill="#d5d7e2" d="M 340.5,346.5 C 348.618,346.382 350.618,349.882 346.5,357C 339.495,358.324 336.995,355.49 339,348.5C 339.717,347.956 340.217,347.289 340.5,346.5 Z"/></g>
<g><path style="opacity:1" fill="#091134" d="M 341.5,348.5 C 346.328,348.385 347.661,350.552 345.5,355C 340.57,355.427 339.237,353.26 341.5,348.5 Z"/></g>
<g><path style="opacity:1" fill="#cbcdd9" d="M 174.5,346.5 C 179.463,345.318 182.463,347.152 183.5,352C 182.463,356.848 179.463,358.682 174.5,357.5C 174.5,353.833 174.5,350.167 174.5,346.5 Z"/></g>
<g><path style="opacity:1" fill="#060c31" d="M 176.5,348.5 C 180.473,349.075 181.473,351.242 179.5,355C 178.552,355.483 177.552,355.649 176.5,355.5C 176.5,353.167 176.5,350.833 176.5,348.5 Z"/></g>
<g><path style="opacity:1" fill="#bbbecc" d="M 280.5,346.5 C 282.988,347.74 284.821,349.74 286,352.5C 286.495,350.527 286.662,348.527 286.5,346.5C 287.5,346.5 288.5,346.5 289.5,346.5C 289.5,350.167 289.5,353.833 289.5,357.5C 288.448,357.649 287.448,357.483 286.5,357C 285.458,355.082 284.292,353.249 283,351.5C 282.808,353.577 282.308,355.577 281.5,357.5C 280.511,353.893 280.177,350.226 280.5,346.5 Z"/></g>
<g><path style="opacity:1" fill="#cbcdd9" d="M 298.5,346.5 C 303.463,345.318 306.463,347.152 307.5,352C 306.463,356.848 303.463,358.682 298.5,357.5C 298.5,353.833 298.5,350.167 298.5,346.5 Z"/></g>
<g><path style="opacity:1" fill="#060c31" d="M 300.5,348.5 C 304.473,349.075 305.473,351.242 303.5,355C 302.552,355.483 301.552,355.649 300.5,355.5C 300.5,353.167 300.5,350.833 300.5,348.5 Z"/></g>
<g><path style="opacity:1" fill="#caccd8" d="M 95.5,346.5 C 97.4286,346.231 99.0953,346.731 100.5,348C 99.3224,348.967 97.989,349.467 96.5,349.5C 103.433,354.196 102.767,356.696 94.5,357C 94.0426,356.586 93.7093,356.086 93.5,355.5C 95.1173,355.331 96.784,354.997 98.5,354.5C 97.1349,353.059 95.6349,351.726 94,350.5C 93.516,348.807 94.016,347.473 95.5,346.5 Z"/></g>
<g><path style="opacity:1" fill="#d7dae4" d="M 399.5,346.5 C 401.75,346.181 403.75,346.681 405.5,348C 405,348.5 404.5,349 404,349.5C 402.951,348.483 401.784,348.316 400.5,349C 401.729,350.529 403.229,351.696 405,352.5C 405.934,357.083 404.1,358.583 399.5,357C 399.043,356.586 398.709,356.086 398.5,355.5C 400.117,355.331 401.784,354.997 403.5,354.5C 402.135,353.059 400.635,351.726 399,350.5C 398.421,349.072 398.588,347.738 399.5,346.5 Z"/></g>
<g><path style="opacity:1" fill="#b5b7c6" d="M 173.5,368.5 C 174.5,368.5 175.5,368.5 176.5,368.5C 176.5,372.167 176.5,375.833 176.5,379.5C 175.5,379.5 174.5,379.5 173.5,379.5C 173.5,375.833 173.5,372.167 173.5,368.5 Z"/></g>
<g><path style="opacity:1" fill="#d4d7e1" d="M 180.5,368.5 C 181.496,368.414 182.329,368.748 183,369.5C 185.575,376.284 187.075,375.95 187.5,368.5C 188.833,372.167 188.833,375.833 187.5,379.5C 185.768,377.717 184.268,375.717 183,373.5C 182.808,375.577 182.308,377.577 181.5,379.5C 180.511,375.893 180.177,372.226 180.5,368.5 Z"/></g>
<g><path style="opacity:1" fill="#d2d4df" d="M 201.5,368.5 C 204.572,368.183 207.572,368.516 210.5,369.5C 209.675,370.386 208.675,370.719 207.5,370.5C 206.833,382.5 206.167,382.5 205.5,370.5C 203.517,370.843 202.183,370.176 201.5,368.5 Z"/></g>
<g><path style="opacity:1" fill="#e4e5ee" d="M 213.5,368.5 C 214.787,369.871 215.453,371.705 215.5,374C 215.167,375.833 214.833,377.667 214.5,379.5C 213.511,375.893 213.177,372.226 213.5,368.5 Z"/></g>
<g><path style="opacity:1" fill="#d3d5e0" d="M 218.5,368.5 C 221.572,368.183 224.572,368.516 227.5,369.5C 226.311,370.429 224.978,370.762 223.5,370.5C 222.833,382.5 222.167,382.5 221.5,370.5C 219.821,370.715 218.821,370.048 218.5,368.5 Z"/></g>
<g><path style="opacity:1" fill="#d4d6e1" d="M 229.5,368.5 C 231.22,370.658 232.053,373.325 232,376.5C 233.333,377.833 234.667,377.833 236,376.5C 236.182,373.774 236.682,371.107 237.5,368.5C 239.024,372.27 238.691,375.77 236.5,379C 233.975,379.896 231.808,379.396 230,377.5C 229.502,374.518 229.335,371.518 229.5,368.5 Z"/></g>
<g><path style="opacity:1" fill="#e5e7ef" d="M 254.5,368.5 C 255.787,369.871 256.453,371.705 256.5,374C 256.167,375.833 255.833,377.667 255.5,379.5C 254.511,375.893 254.177,372.226 254.5,368.5 Z"/></g>
<g><path style="opacity:1" fill="#d5d8e2" d="M 273.5,368.5 C 276.775,369.614 278.942,371.947 280,375.5C 280.186,373.1 280.686,370.766 281.5,368.5C 282.833,372.167 282.833,375.833 281.5,379.5C 279.196,377.569 277.362,375.236 276,372.5C 275.814,374.9 275.314,377.234 274.5,379.5C 273.511,375.893 273.177,372.226 273.5,368.5 Z"/></g>
<g><path style="opacity:1" fill="#e6e8f0" d="M 298.5,368.5 C 300.388,370.988 301.055,373.988 300.5,377.5C 302.288,377.215 303.955,377.548 305.5,378.5C 303.257,379.474 300.924,379.808 298.5,379.5C 298.5,375.833 298.5,372.167 298.5,368.5 Z"/></g>
<g><path style="opacity:1" fill="#caccd8" d="M 314.5,373.5 C 313.081,374.451 311.415,374.784 309.5,374.5C 309.263,375.791 309.596,376.791 310.5,377.5C 312.288,377.215 313.955,377.548 315.5,378.5C 312.914,379.48 310.247,379.813 307.5,379.5C 307.5,375.833 307.5,372.167 307.5,368.5C 310.247,368.187 312.914,368.52 315.5,369.5C 313.833,370.167 312.167,370.833 310.5,371.5C 311.949,372.172 313.282,372.839 314.5,373.5 Z"/></g>
<g><path style="opacity:1" fill="#ced0db" d="M 262.5,368.5 C 270.168,368.507 272.168,371.84 268.5,378.5C 262.197,380.363 259.364,378.03 260,371.5C 261.045,370.627 261.878,369.627 262.5,368.5 Z"/></g>
<g><path style="opacity:1" fill="#0a1235" d="M 263.5,370.5 C 267.677,369.842 269.177,371.508 268,375.5C 266.688,377.658 265.022,377.991 263,376.5C 262.322,374.402 262.489,372.402 263.5,370.5 Z"/></g>
<g><path style="opacity:1" fill="#d6d8e2" d="M 289.5,368.5 C 290.376,368.369 291.043,368.702 291.5,369.5C 292.704,372.739 294.038,375.906 295.5,379C 293.742,378.656 291.909,378.156 290,377.5C 288.635,377.844 287.468,378.511 286.5,379.5C 286.418,375.717 287.418,372.05 289.5,368.5 Z"/></g>
<g><path style="opacity:1" fill="#d9dbe5" d="M 243.5,368.5 C 246.665,367.964 249.331,368.797 251.5,371C 251,371.5 250.5,372 250,372.5C 244.934,369.106 242.934,370.44 244,376.5C 246.44,377.271 248.94,377.438 251.5,377C 249.051,379.603 246.218,380.103 243,378.5C 240.991,375.05 241.158,371.717 243.5,368.5 Z"/></g>
<g><path style="opacity:1" fill="#232749" d="M 289.5,372.5 C 291.332,373.14 291.665,374.14 290.5,375.5C 289.614,374.675 289.281,373.675 289.5,372.5 Z"/></g>
<g><path style="opacity:1" fill="#5f627c" d="M 314.5,373.5 C 315.043,373.56 315.376,373.893 315.5,374.5C 313.345,375.001 311.678,376.001 310.5,377.5C 309.596,376.791 309.263,375.791 309.5,374.5C 311.415,374.784 313.081,374.451 314.5,373.5 Z"/></g>
<g><path style="opacity:1" fill="#dadce6" d="M 193.5,368.5 C 199.373,368.598 199.706,369.598 194.5,371.5C 195.914,372.624 197.414,373.624 199,374.5C 199.934,379.083 198.1,380.583 193.5,379C 192.833,378.333 192.167,377.667 191.5,377C 193.587,377.218 195.587,377.051 197.5,376.5C 196.564,375.026 195.23,374.026 193.5,373.5C 192.334,371.833 192.334,370.166 193.5,368.5 Z"/></g>
<g><path style="opacity:1" fill="#d7dae4" d="M 319.5,368.5 C 321.75,368.181 323.75,368.681 325.5,370C 325,370.5 324.5,371 324,371.5C 322.951,370.483 321.784,370.316 320.5,371C 321.729,372.529 323.229,373.696 325,374.5C 325.934,379.083 324.1,380.583 319.5,379C 319.043,378.586 318.709,378.086 318.5,377.5C 320.117,377.331 321.784,376.997 323.5,376.5C 322.135,375.059 320.635,373.726 319,372.5C 318.421,371.072 318.588,369.738 319.5,368.5 Z"/></g>
</svg>
