<?xml version="1.0" encoding="UTF-8"?>
<!DOCTYPE svg PUBLIC "-//W3C//DTD SVG 1.1//EN" "http://www.w3.org/Graphics/SVG/1.1/DTD/svg11.dtd">
<svg xmlns="http://www.w3.org/2000/svg" version="1.1" width="500px" height="500px" style="shape-rendering:geometricPrecision; text-rendering:geometricPrecision; image-rendering:optimizeQuality; fill-rule:evenodd; clip-rule:evenodd" xmlns:xlink="http://www.w3.org/1999/xlink">
<g><path style="opacity:1" fill="#fefefe" d="M -0.5,-0.5 C 166.167,-0.5 332.833,-0.5 499.5,-0.5C 499.5,166.167 499.5,332.833 499.5,499.5C 332.833,499.5 166.167,499.5 -0.5,499.5C -0.5,332.833 -0.5,166.167 -0.5,-0.5 Z"/></g>
<g><path style="opacity:1" fill="#f6922e" d="M 280.5,107.5 C 283.964,110.462 287.297,113.629 290.5,117C 287.333,120.167 284.167,123.333 281,126.5C 277.783,123.62 274.95,120.453 272.5,117C 274.988,113.679 277.655,110.512 280.5,107.5 Z"/></g>
<g><path style="opacity:1" fill="#ee4c3b" d="M 300.5,127.5 C 303.347,129.514 305.68,132.014 307.5,135C 305.72,137.784 303.553,140.284 301,142.5C 298.5,140 296,137.5 293.5,135C 296.039,132.63 298.372,130.13 300.5,127.5 Z"/></g>
<g><path style="opacity:1" fill="#158fd6" d="M 273.5,131.5 C 278.085,134.414 282.085,138.08 285.5,142.5C 282.167,146.5 278.5,150.167 274.5,153.5C 271.016,149.515 267.349,145.682 263.5,142C 267.037,138.631 270.371,135.131 273.5,131.5 Z"/></g>
<g><path style="opacity:1" fill="#ee4a3a" d="M 249.5,138.5 C 254.419,141.748 258.753,145.748 262.5,150.5C 258.833,154.833 254.833,158.833 250.5,162.5C 246.167,158.833 242.167,154.833 238.5,150.5C 242.189,146.48 245.855,142.48 249.5,138.5 Z"/></g>
<g><path style="opacity:1" fill="#f6912c" d="M 222.5,146.5 C 227.167,147.167 231.833,147.833 236.5,148.5C 235.266,150.398 235.599,152.065 237.5,153.5C 234.038,154.482 230.371,154.815 226.5,154.5C 225.777,165.996 225.777,177.663 226.5,189.5C 231.959,189.103 237.292,189.603 242.5,191C 243,191.5 243.5,192 244,192.5C 244.193,197.75 244.693,202.917 245.5,208C 256.842,208.407 268.176,208.907 279.5,209.5C 279.337,207.143 279.503,204.81 280,202.5C 280.689,203.357 281.522,204.023 282.5,204.5C 284.149,203.352 285.649,202.019 287,200.5C 287.667,206.833 287.667,213.167 287,219.5C 273.594,233.408 259.761,246.742 245.5,259.5C 221.905,237.406 198.738,214.739 176,191.5C 175.333,189.833 175.333,188.167 176,186.5C 189.167,173.333 202.333,160.167 215.5,147C 217.81,146.503 220.143,146.337 222.5,146.5 Z"/></g>
<g><path style="opacity:1" fill="#fbc793" d="M 222.5,146.5 C 227.544,146.173 232.544,146.506 237.5,147.5C 237.376,148.107 237.043,148.44 236.5,148.5C 231.833,147.833 227.167,147.167 222.5,146.5 Z"/></g>
<g><path style="opacity:1" fill="#f6922e" d="M 290.5,150.5 C 292.963,152.461 295.297,154.628 297.5,157C 295.65,159.018 293.65,160.851 291.5,162.5C 289.167,160.833 287.167,158.833 285.5,156.5C 287.19,154.481 288.856,152.481 290.5,150.5 Z"/></g>
<g><path style="opacity:1" fill="#fbc996" d="M 237.5,153.5 C 238.043,153.56 238.376,153.893 238.5,154.5C 234.351,155.809 230.351,155.809 226.5,154.5C 230.371,154.815 234.038,154.482 237.5,153.5 Z"/></g>
<g><path style="opacity:1" fill="#1b91d6" d="M 313.5,154.5 C 316.964,157.462 320.297,160.629 323.5,164C 320.333,167.167 317.167,170.333 314,173.5C 310.833,170.333 307.667,167.167 304.5,164C 307.704,160.964 310.704,157.797 313.5,154.5 Z"/></g>
<g><path style="opacity:1" fill="#fffefd" d="M 218.5,182.5 C 218.5,184.5 218.5,186.5 218.5,188.5C 214.833,188.5 211.167,188.5 207.5,188.5C 200.467,188.497 193.467,187.997 186.5,187C 196.667,176.833 206.833,166.667 217,156.5C 218.081,165.135 218.581,173.801 218.5,182.5 Z"/></g>
<g><path style="opacity:1" fill="#ef503f" d="M 278.5,164.5 C 281.146,166.479 283.479,168.812 285.5,171.5C 283.517,173.984 281.35,176.317 279,178.5C 276.65,176.317 274.483,173.984 272.5,171.5C 274.523,169.147 276.523,166.814 278.5,164.5 Z"/></g>
<g><path style="opacity:1" fill="#1691d6" d="M 257.5,168.5 C 261.415,170.743 264.749,173.743 267.5,177.5C 264.833,180.833 261.833,183.833 258.5,186.5C 255.167,183.833 252.167,180.833 249.5,177.5C 252.189,174.48 254.856,171.48 257.5,168.5 Z"/></g>
<g><path style="opacity:1" fill="#f6912b" d="M 303.5,173.5 C 304.552,173.351 305.552,173.517 306.5,174C 309.016,176.683 311.683,179.183 314.5,181.5C 311.833,184.833 308.833,187.833 305.5,190.5C 302.167,187.833 299.167,184.833 296.5,181.5C 298.856,178.814 301.189,176.147 303.5,173.5 Z"/></g>
<g><path style="opacity:1" fill="#108fd6" d="M 281.5,184.5 C 284.563,186.051 287.229,188.218 289.5,191C 287.317,193.35 284.984,195.517 282.5,197.5C 280.016,195.517 277.683,193.35 275.5,191C 277.706,188.963 279.706,186.797 281.5,184.5 Z"/></g>
<g><path style="opacity:1" fill="#fac188" d="M 218.5,182.5 C 219.468,184.607 219.802,186.941 219.5,189.5C 215.298,189.817 211.298,189.483 207.5,188.5C 211.167,188.5 214.833,188.5 218.5,188.5C 218.5,186.5 218.5,184.5 218.5,182.5 Z"/></g>
<g><path style="opacity:1" fill="#fffdfc" d="M 238.5,235.5 C 238.802,238.059 238.468,240.393 237.5,242.5C 222.368,226.868 207.035,211.368 191.5,196C 206.795,196.473 222.128,196.973 237.5,197.5C 237.556,210.176 237.889,222.842 238.5,235.5 Z"/></g>
<g><path style="opacity:1" fill="#fffbf9" d="M 266.5,216.5 C 270.167,217.167 273.833,217.833 277.5,218.5C 267.188,228.146 257.188,238.146 247.5,248.5C 246.453,237.521 245.787,226.521 245.5,215.5C 252.49,215.999 259.49,216.332 266.5,216.5 Z"/></g>
<g><path style="opacity:1" fill="#fbcb9a" d="M 266.5,216.5 C 270.555,216.176 274.555,216.509 278.5,217.5C 278.376,218.107 278.043,218.44 277.5,218.5C 273.833,217.833 270.167,217.167 266.5,216.5 Z"/></g>
<g><path style="opacity:1" fill="#fabb7c" d="M 238.5,235.5 C 239.8,238.024 239.8,240.691 238.5,243.5C 237.893,243.376 237.56,243.043 237.5,242.5C 238.468,240.393 238.802,238.059 238.5,235.5 Z"/></g>
<g><path style="opacity:1" fill="#595959" d="M 203.5,291.5 C 208.844,291.334 214.177,291.501 219.5,292C 223.907,294.532 225.574,298.365 224.5,303.5C 220.833,303.5 217.167,303.5 213.5,303.5C 213.5,302.167 213.5,300.833 213.5,299.5C 212.167,299.5 210.833,299.5 209.5,299.5C 209.5,302.167 209.5,304.833 209.5,307.5C 213.182,307.335 216.848,307.501 220.5,308C 221.416,308.374 222.25,308.874 223,309.5C 228.08,327.088 221.58,333.588 203.5,329C 201.667,328.5 200.5,327.333 200,325.5C 199.503,322.854 199.336,320.187 199.5,317.5C 202.833,317.5 206.167,317.5 209.5,317.5C 209.5,319.167 209.5,320.833 209.5,322.5C 211.144,322.714 212.644,322.38 214,321.5C 214.497,319.19 214.663,316.857 214.5,314.5C 210.818,314.665 207.152,314.499 203.5,314C 202.069,313.535 200.903,312.701 200,311.5C 199.333,306.167 199.333,300.833 200,295.5C 201.102,294.051 202.269,292.718 203.5,291.5 Z"/></g>
<g><path style="opacity:1" fill="#585858" d="M 235.5,291.5 C 239.833,291.5 244.167,291.5 248.5,291.5C 251.81,304.074 254.81,316.741 257.5,329.5C 254.167,329.5 250.833,329.5 247.5,329.5C 248.176,325.179 246.342,323.179 242,323.5C 237.24,322.761 235.407,324.761 236.5,329.5C 233.167,329.5 229.833,329.5 226.5,329.5C 229.179,316.783 232.179,304.116 235.5,291.5 Z"/></g>
<g><path style="opacity:1" fill="#5b5b5b" d="M 264.5,291.5 C 270.593,291.139 276.593,291.639 282.5,293C 283.701,293.903 284.535,295.069 285,296.5C 285.498,299.482 285.665,302.482 285.5,305.5C 282.167,305.5 278.833,305.5 275.5,305.5C 275.662,303.473 275.495,301.473 275,299.5C 273.644,298.62 272.144,298.286 270.5,298.5C 270.5,306.5 270.5,314.5 270.5,322.5C 271.833,322.5 273.167,322.5 274.5,322.5C 274.5,320.167 274.5,317.833 274.5,315.5C 278.167,315.5 281.833,315.5 285.5,315.5C 285.665,318.518 285.498,321.518 285,324.5C 284.535,325.931 283.701,327.097 282.5,328C 276.585,329.527 270.585,329.861 264.5,329C 263.069,328.535 261.903,327.701 261,326.5C 259.385,316.6 259.051,306.6 260,296.5C 261.025,294.313 262.525,292.646 264.5,291.5 Z"/></g>
<g><path style="opacity:1" fill="#555555" d="M 289.5,291.5 C 292.833,291.5 296.167,291.5 299.5,291.5C 299.5,304.167 299.5,316.833 299.5,329.5C 296.167,329.5 292.833,329.5 289.5,329.5C 289.5,316.833 289.5,304.167 289.5,291.5 Z"/></g>
<g><path style="opacity:1" fill="#f0f0f0" d="M 241.5,303.5 C 243.075,307.59 244.075,311.923 244.5,316.5C 242.833,316.5 241.167,316.5 239.5,316.5C 239.748,312.094 240.415,307.76 241.5,303.5 Z"/></g>
<g><path style="opacity:1" fill="#636363" d="M 317.5,353.5 C 323.586,353.532 323.586,354.866 317.5,357.5C 316.833,357.333 316.167,357.167 315.5,357C 316.823,356.184 317.489,355.017 317.5,353.5 Z"/></g>
<g><path style="opacity:1" fill="#535453" d="M 147.5,354.5 C 152.833,355.167 152.833,355.833 147.5,356.5C 147.5,355.833 147.5,355.167 147.5,354.5 Z"/></g>
<g><path style="opacity:1" fill="#585858" d="M 226.5,354.5 C 227.833,354.5 229.167,354.5 230.5,354.5C 230.5,360.167 230.5,365.833 230.5,371.5C 227.223,371.784 224.057,371.451 221,370.5C 220.333,366.833 220.333,363.167 221,359.5C 222.699,358.594 224.533,358.261 226.5,358.5C 226.5,357.167 226.5,355.833 226.5,354.5 Z"/></g>
<g><path style="opacity:1" fill="#989898" d="M 226.5,354.5 C 227.919,353.549 229.585,353.216 231.5,353.5C 231.823,359.69 231.49,365.69 230.5,371.5C 230.5,365.833 230.5,360.167 230.5,354.5C 229.167,354.5 227.833,354.5 226.5,354.5 Z"/></g>
<g><path style="opacity:1" fill="#535453" d="M 305.5,354.5 C 310.833,355.167 310.833,355.833 305.5,356.5C 305.5,355.833 305.5,355.167 305.5,354.5 Z"/></g>
<g><path style="opacity:1" fill="#545454" d="M 347.5,354.5 C 348.833,354.5 350.167,354.5 351.5,354.5C 351.5,360.167 351.5,365.833 351.5,371.5C 348.334,370.866 345.168,370.532 342,370.5C 341.333,366.833 341.333,363.167 342,359.5C 343.667,358.167 345.333,358.167 347,359.5C 347.494,357.866 347.66,356.199 347.5,354.5 Z"/></g>
<g><path style="opacity:1" fill="#bbbbbb" d="M 347.5,354.5 C 348.919,353.549 350.585,353.216 352.5,353.5C 352.823,359.69 352.49,365.69 351.5,371.5C 351.5,365.833 351.5,360.167 351.5,354.5C 350.167,354.5 348.833,354.5 347.5,354.5 Z"/></g>
<g><path style="opacity:1" fill="#5b5b5b" d="M 136.5,354.5 C 139.187,354.336 141.854,354.503 144.5,355C 145.38,356.356 145.714,357.856 145.5,359.5C 143.508,359.672 141.842,359.005 140.5,357.5C 139.571,358.689 139.238,360.022 139.5,361.5C 146.628,361.706 148.294,364.873 144.5,371C 141.833,371.667 139.167,371.667 136.5,371C 135.62,369.644 135.286,368.144 135.5,366.5C 137.492,366.328 139.158,366.995 140.5,368.5C 141.429,367.311 141.762,365.978 141.5,364.5C 134.306,364.156 132.639,360.823 136.5,354.5 Z"/></g>
<g><path style="opacity:1" fill="#a2a2a2" d="M 147.5,354.5 C 148.919,353.549 150.585,353.216 152.5,353.5C 152.5,354.833 152.5,356.167 152.5,357.5C 150.585,357.784 148.919,357.451 147.5,356.5C 152.833,355.833 152.833,355.167 147.5,354.5 Z"/></g>
<g><path style="opacity:1" fill="#5e5e5e" d="M 165.5,355.5 C 167.167,355.5 168.833,355.5 170.5,355.5C 170.468,360.801 170.802,366.134 171.5,371.5C 169.278,371.822 167.444,371.155 166,369.5C 164.987,364.783 164.82,360.116 165.5,355.5 Z"/></g>
<g><path style="opacity:1" fill="#5e5e5e" d="M 262.5,355.5 C 264.167,355.5 265.833,355.5 267.5,355.5C 267.468,360.801 267.802,366.134 268.5,371.5C 266.278,371.822 264.444,371.155 263,369.5C 261.987,364.783 261.82,360.116 262.5,355.5 Z"/></g>
<g><path style="opacity:1" fill="#a2a2a2" d="M 305.5,354.5 C 306.919,353.549 308.585,353.216 310.5,353.5C 310.5,354.833 310.5,356.167 310.5,357.5C 308.585,357.784 306.919,357.451 305.5,356.5C 310.833,355.833 310.833,355.167 305.5,354.5 Z"/></g>
<g><path style="opacity:1" fill="#616161" d="M 147.5,358.5 C 149.167,358.5 150.833,358.5 152.5,358.5C 152.5,362.833 152.5,367.167 152.5,371.5C 150.833,371.5 149.167,371.5 147.5,371.5C 147.5,367.167 147.5,362.833 147.5,358.5 Z"/></g>
<g><path style="opacity:1" fill="#5b5b5b" d="M 154.5,358.5 C 157.187,358.336 159.854,358.503 162.5,359C 163.337,360.011 163.67,361.178 163.5,362.5C 155.971,361.526 155.805,362.193 163,364.5C 163.758,366.769 163.591,368.936 162.5,371C 159.833,371.667 157.167,371.667 154.5,371C 153.663,369.989 153.33,368.822 153.5,367.5C 160.601,368.749 160.934,368.082 154.5,365.5C 153.286,363.141 153.286,360.808 154.5,358.5 Z"/></g>
<g><path style="opacity:1" fill="#585858" d="M 183.5,365.5 C 181.167,365.5 178.833,365.5 176.5,365.5C 176.5,366.5 176.5,367.5 176.5,368.5C 178.806,368.007 181.139,367.674 183.5,367.5C 183.64,369.124 182.973,370.29 181.5,371C 175.187,373.172 172.187,371.006 172.5,364.5C 171.415,359.753 173.248,357.753 178,358.5C 179.764,358.544 181.431,358.878 183,359.5C 183.495,361.473 183.662,363.473 183.5,365.5 Z"/></g>
<g><path style="opacity:1" fill="#5a5a5a" d="M 184.5,358.5 C 189.95,358.753 195.283,358.92 200.5,359C 201.464,363.066 201.797,367.233 201.5,371.5C 200.167,371.5 198.833,371.5 197.5,371.5C 196.833,358.167 196.167,358.167 195.5,371.5C 194.167,371.5 192.833,371.5 191.5,371.5C 190.833,358.167 190.167,358.167 189.5,371.5C 187.833,371.5 186.167,371.5 184.5,371.5C 184.5,367.167 184.5,362.833 184.5,358.5 Z"/></g>
<g><path style="opacity:1" fill="#5d5d5d" d="M 204.5,358.5 C 207.833,358.5 211.167,358.5 214.5,358.5C 214.5,362.833 214.5,367.167 214.5,371.5C 210.91,370.616 207.41,370.283 204,370.5C 203.238,366.413 203.404,362.413 204.5,358.5 Z"/></g>
<g><path style="opacity:1" fill="#585858" d="M 243.5,365.5 C 241.167,365.5 238.833,365.5 236.5,365.5C 236.5,366.5 236.5,367.5 236.5,368.5C 238.806,368.007 241.139,367.674 243.5,367.5C 243.64,369.124 242.973,370.29 241.5,371C 235.187,373.172 232.187,371.006 232.5,364.5C 231.415,359.753 233.248,357.753 238,358.5C 239.764,358.544 241.431,358.878 243,359.5C 243.495,361.473 243.662,363.473 243.5,365.5 Z"/></g>
<g><path style="opacity:1" fill="#5b5b5b" d="M 250.5,358.5 C 253.833,358.5 257.167,358.5 260.5,358.5C 260.5,362.833 260.5,367.167 260.5,371.5C 256.894,371.789 253.394,371.456 250,370.5C 249.238,366.413 249.404,362.413 250.5,358.5 Z"/></g>
<g><path style="opacity:1" fill="#585858" d="M 279.5,359.5 C 279.5,361.5 279.5,363.5 279.5,365.5C 277.5,365.5 275.5,365.5 273.5,365.5C 273.471,368.773 274.804,369.44 277.5,367.5C 278.713,367.747 279.38,368.414 279.5,369.5C 279.389,370.117 279.056,370.617 278.5,371C 275.833,371.667 273.167,371.667 270.5,371C 269.167,367 269.167,363 270.5,359C 273.592,358.264 276.592,358.431 279.5,359.5 Z"/></g>
<g><path style="opacity:1" fill="#5c5c5c" d="M 281.5,358.5 C 285.106,358.211 288.606,358.544 292,359.5C 292.499,363.486 292.666,367.486 292.5,371.5C 291.167,371.5 289.833,371.5 288.5,371.5C 287.833,358.167 287.167,358.167 286.5,371.5C 284.833,371.5 283.167,371.5 281.5,371.5C 281.5,367.167 281.5,362.833 281.5,358.5 Z"/></g>
<g><path style="opacity:1" fill="#5f5f5f" d="M 295.5,358.5 C 298.187,358.336 300.854,358.503 303.5,359C 304.38,360.356 304.714,361.856 304.5,363.5C 302.508,363.672 300.842,363.005 299.5,361.5C 298.359,363.421 298.192,365.421 299,367.5C 300.699,366.594 302.533,366.261 304.5,366.5C 304.703,368.39 304.037,369.89 302.5,371C 296.529,373.097 293.529,371.097 293.5,365C 293.338,362.498 294.005,360.331 295.5,358.5 Z"/></g>
<g><path style="opacity:1" fill="#616161" d="M 305.5,358.5 C 307.167,358.5 308.833,358.5 310.5,358.5C 310.5,362.833 310.5,367.167 310.5,371.5C 308.833,371.5 307.167,371.5 305.5,371.5C 305.5,367.167 305.5,362.833 305.5,358.5 Z"/></g>
<g><path style="opacity:1" fill="#5a5a5a" d="M 312.5,358.5 C 315.777,358.216 318.943,358.549 322,359.5C 322.793,363.423 322.626,367.256 321.5,371C 318.446,371.821 315.446,371.655 312.5,370.5C 311.173,366.47 311.173,362.47 312.5,358.5 Z"/></g>
<g><path style="opacity:1" fill="#545454" d="M 324.5,358.5 C 327.666,359.134 330.832,359.468 334,359.5C 334.499,363.486 334.666,367.486 334.5,371.5C 333.167,371.5 331.833,371.5 330.5,371.5C 329.833,358.167 329.167,358.167 328.5,371.5C 327.167,371.5 325.833,371.5 324.5,371.5C 324.5,367.167 324.5,362.833 324.5,358.5 Z"/></g>
<g><path style="opacity:1" fill="#585858" d="M 363.5,359.5 C 363.5,361.5 363.5,363.5 363.5,365.5C 361.5,365.5 359.5,365.5 357.5,365.5C 357.471,368.773 358.804,369.44 361.5,367.5C 362.713,367.747 363.38,368.414 363.5,369.5C 363.389,370.117 363.056,370.617 362.5,371C 359.833,371.667 357.167,371.667 354.5,371C 353.167,367 353.167,363 354.5,359C 357.592,358.264 360.592,358.431 363.5,359.5 Z"/></g>
<g><path style="opacity:1" fill="#dcdcdc" d="M 176.5,361.5 C 177.675,361.281 178.675,361.614 179.5,362.5C 177.948,363.798 176.948,363.465 176.5,361.5 Z"/></g>
<g><path style="opacity:1" fill="#d5d5d5" d="M 207.5,361.5 C 208.725,362.152 209.392,363.319 209.5,365C 209.167,366.167 208.833,367.333 208.5,368.5C 207.526,366.257 207.192,363.924 207.5,361.5 Z"/></g>
<g><path style="opacity:1" fill="#d5d5d5" d="M 224.5,361.5 C 225.725,362.152 226.392,363.319 226.5,365C 226.167,366.167 225.833,367.333 225.5,368.5C 224.526,366.257 224.192,363.924 224.5,361.5 Z"/></g>
<g><path style="opacity:1" fill="#dcdcdc" d="M 236.5,361.5 C 237.675,361.281 238.675,361.614 239.5,362.5C 237.948,363.798 236.948,363.465 236.5,361.5 Z"/></g>
<g><path style="opacity:1" fill="#afafaf" d="M 253.5,361.5 C 254.5,361.5 255.5,361.5 256.5,361.5C 256.662,363.527 256.495,365.527 256,367.5C 255.586,367.957 255.086,368.291 254.5,368.5C 253.526,366.257 253.192,363.924 253.5,361.5 Z"/></g>
<g><path style="opacity:1" fill="#f7f7f7" d="M 273.5,361.5 C 275.337,361.639 275.67,362.306 274.5,363.5C 273.702,363.043 273.369,362.376 273.5,361.5 Z"/></g>
<g><path style="opacity:1" fill="#c0c0c0" d="M 315.5,361.5 C 316.5,361.5 317.5,361.5 318.5,361.5C 318.5,363.833 318.5,366.167 318.5,368.5C 317.5,368.5 316.5,368.5 315.5,368.5C 315.5,366.167 315.5,363.833 315.5,361.5 Z"/></g>
<g><path style="opacity:1" fill="#dedede" d="M 345.5,361.5 C 346.725,362.152 347.392,363.319 347.5,365C 347.167,366.167 346.833,367.333 346.5,368.5C 345.526,366.257 345.192,363.924 345.5,361.5 Z"/></g>
<g><path style="opacity:1" fill="#f7f7f7" d="M 357.5,361.5 C 359.337,361.639 359.67,362.306 358.5,363.5C 357.702,363.043 357.369,362.376 357.5,361.5 Z"/></g>
<g><path style="opacity:1" fill="#adadad" d="M 183.5,365.5 C 183.5,366.167 183.5,366.833 183.5,367.5C 181.139,367.674 178.806,368.007 176.5,368.5C 176.5,367.5 176.5,366.5 176.5,365.5C 178.833,365.5 181.167,365.5 183.5,365.5 Z"/></g>
<g><path style="opacity:1" fill="#adadad" d="M 243.5,365.5 C 243.5,366.167 243.5,366.833 243.5,367.5C 241.139,367.674 238.806,368.007 236.5,368.5C 236.5,367.5 236.5,366.5 236.5,365.5C 238.833,365.5 241.167,365.5 243.5,365.5 Z"/></g>
<g><path style="opacity:1" fill="#a9a9a9" d="M 279.5,359.5 C 280.833,362.833 280.833,366.167 279.5,369.5C 279.38,368.414 278.713,367.747 277.5,367.5C 274.804,369.44 273.471,368.773 273.5,365.5C 275.5,365.5 277.5,365.5 279.5,365.5C 279.5,363.5 279.5,361.5 279.5,359.5 Z"/></g>
<g><path style="opacity:1" fill="#a9a9a9" d="M 363.5,359.5 C 364.833,362.833 364.833,366.167 363.5,369.5C 363.38,368.414 362.713,367.747 361.5,367.5C 358.804,369.44 357.471,368.773 357.5,365.5C 359.5,365.5 361.5,365.5 363.5,365.5C 363.5,363.5 363.5,361.5 363.5,359.5 Z"/></g>
<g><path style="opacity:1" fill="#686868" d="M 216.5,389.5 C 218.167,389.5 219.833,389.5 221.5,389.5C 221.5,390.5 221.5,391.5 221.5,392.5C 219.833,392.5 218.167,392.5 216.5,392.5C 216.5,391.5 216.5,390.5 216.5,389.5 Z"/></g>
<g><path style="opacity:1" fill="#535453" d="M 254.5,390.5 C 259.833,391.167 259.833,391.833 254.5,392.5C 254.5,391.833 254.5,391.167 254.5,390.5 Z"/></g>
<g><path style="opacity:1" fill="#565656" d="M 335.5,389.5 C 336.833,389.5 338.167,389.5 339.5,389.5C 339.5,395.5 339.5,401.5 339.5,407.5C 338.167,407.5 336.833,407.5 335.5,407.5C 335.5,401.5 335.5,395.5 335.5,389.5 Z"/></g>
<g><path style="opacity:1" fill="#5e5e5e" d="M 247.5,391.5 C 249.167,391.5 250.833,391.5 252.5,391.5C 252.468,396.801 252.802,402.134 253.5,407.5C 251.278,407.822 249.444,407.155 248,405.5C 246.987,400.783 246.82,396.116 247.5,391.5 Z"/></g>
<g><path style="opacity:1" fill="#575757" d="M 261.5,391.5 C 262.833,391.5 264.167,391.5 265.5,391.5C 265.626,393.2 266.293,394.7 267.5,396C 264.867,399.29 264.867,402.457 267.5,405.5C 266.172,407.745 264.339,408.078 262,406.5C 261.819,403.305 261.319,400.305 260.5,397.5C 260.833,395.5 261.167,393.5 261.5,391.5 Z"/></g>
<g><path style="opacity:1" fill="#585858" d="M 136.5,394.5 C 139.187,394.336 141.854,394.503 144.5,395C 145.38,396.356 145.714,397.856 145.5,399.5C 143.508,399.672 141.842,399.005 140.5,397.5C 139.167,399.833 139.167,402.167 140.5,404.5C 141.842,402.995 143.508,402.328 145.5,402.5C 145.714,404.144 145.38,405.644 144.5,407C 138.187,409.172 135.187,407.006 135.5,400.5C 135.573,398.41 135.906,396.41 136.5,394.5 Z"/></g>
<g><path style="opacity:1" fill="#565656" d="M 148.5,394.5 C 151.448,394.223 154.281,394.556 157,395.5C 157.793,399.423 157.626,403.256 156.5,407C 153.571,407.777 150.737,407.61 148,406.5C 147.238,402.413 147.404,398.413 148.5,394.5 Z"/></g>
<g><path style="opacity:1" fill="#606060" d="M 167.5,394.5 C 167.5,395.5 167.5,396.5 167.5,397.5C 166.209,397.263 165.209,397.596 164.5,398.5C 164.5,401.5 164.5,404.5 164.5,407.5C 162.833,407.5 161.167,407.5 159.5,407.5C 159.5,403.167 159.5,398.833 159.5,394.5C 162.167,394.5 164.833,394.5 167.5,394.5 Z"/></g>
<g><path style="opacity:1" fill="#afafaf" d="M 167.5,394.5 C 167.833,394.5 168.167,394.5 168.5,394.5C 168.5,398.833 168.5,403.167 168.5,407.5C 167.523,404.713 167.19,401.713 167.5,398.5C 166.5,398.5 165.5,398.5 164.5,398.5C 165.209,397.596 166.209,397.263 167.5,397.5C 167.5,396.5 167.5,395.5 167.5,394.5 Z"/></g>
<g><path style="opacity:1" fill="#545454" d="M 168.5,394.5 C 170.674,394.92 172.674,394.92 174.5,394.5C 175.627,396.269 175.127,397.603 173,398.5C 172.502,401.482 172.335,404.482 172.5,407.5C 171.167,407.5 169.833,407.5 168.5,407.5C 168.5,403.167 168.5,398.833 168.5,394.5 Z"/></g>
<g><path style="opacity:1" fill="#585858" d="M 186.5,396.5 C 186.5,398.167 186.5,399.833 186.5,401.5C 184.5,401.5 182.5,401.5 180.5,401.5C 180.471,404.773 181.804,405.44 184.5,403.5C 185.713,403.747 186.38,404.414 186.5,405.5C 186.389,406.117 186.056,406.617 185.5,407C 182.833,407.667 180.167,407.667 177.5,407C 176.167,403 176.167,399 177.5,395C 180.167,394.333 182.833,394.333 185.5,395C 186.056,395.383 186.389,395.883 186.5,396.5 Z"/></g>
<g><path style="opacity:1" fill="#5c5c5c" d="M 189.5,394.5 C 192.777,394.216 195.943,394.549 199,395.5C 202.034,405.459 198.7,409.126 189,406.5C 188.238,402.413 188.404,398.413 189.5,394.5 Z"/></g>
<g><path style="opacity:1" fill="#5b5b5b" d="M 201.5,394.5 C 204.187,394.336 206.854,394.503 209.5,395C 210.337,396.011 210.67,397.178 210.5,398.5C 202.971,397.526 202.805,398.193 210,400.5C 210.758,402.769 210.591,404.936 209.5,407C 206.833,407.667 204.167,407.667 201.5,407C 200.663,405.989 200.33,404.822 200.5,403.5C 207.601,404.749 207.934,404.082 201.5,401.5C 200.286,399.141 200.286,396.808 201.5,394.5 Z"/></g>
<g><path style="opacity:1" fill="#535453" d="M 217.5,394.5 C 218.833,394.5 220.167,394.5 221.5,394.5C 221.5,398.833 221.5,403.167 221.5,407.5C 220.167,407.5 218.833,407.5 217.5,407.5C 217.5,403.167 217.5,398.833 217.5,394.5 Z"/></g>
<g><path style="opacity:1" fill="#5b5b5b" d="M 223.5,394.5 C 225.979,395.072 228.313,395.072 230.5,394.5C 232.029,394.529 233.196,395.196 234,396.5C 234.499,400.152 234.665,403.818 234.5,407.5C 232.833,407.5 231.167,407.5 229.5,407.5C 228.833,394.167 228.167,394.167 227.5,407.5C 226.167,407.5 224.833,407.5 223.5,407.5C 223.5,403.167 223.5,398.833 223.5,394.5 Z"/></g>
<g><path style="opacity:1" fill="#5a5a5a" d="M 236.5,394.5 C 239.247,394.187 241.914,394.52 244.5,395.5C 244.833,396.167 245.167,396.833 245.5,397.5C 243.424,398.1 241.424,398.433 239.5,398.5C 241.108,399.318 242.775,399.985 244.5,400.5C 246.37,405.082 244.87,407.415 240,407.5C 236.737,408.068 235.237,406.734 235.5,403.5C 242.601,404.749 242.934,404.082 236.5,401.5C 235.286,399.141 235.286,396.808 236.5,394.5 Z"/></g>
<g><path style="opacity:1" fill="#555555" d="M 254.5,394.5 C 255.833,394.5 257.167,394.5 258.5,394.5C 258.5,398.833 258.5,403.167 258.5,407.5C 257.167,407.5 255.833,407.5 254.5,407.5C 254.5,403.167 254.5,398.833 254.5,394.5 Z"/></g>
<g><path style="opacity:1" fill="#afafaf" d="M 254.5,390.5 C 255.919,389.549 257.585,389.216 259.5,389.5C 259.343,390.873 259.51,392.207 260,393.5C 260.278,392.584 260.778,391.918 261.5,391.5C 261.167,393.5 260.833,395.5 260.5,397.5C 259.833,400.833 259.167,404.167 258.5,407.5C 258.5,403.167 258.5,398.833 258.5,394.5C 257.167,394.5 255.833,394.5 254.5,394.5C 254.5,393.833 254.5,393.167 254.5,392.5C 259.833,391.833 259.833,391.167 254.5,390.5 Z"/></g>
<g><path style="opacity:1" fill="#d2d2d2" d="M 265.5,391.5 C 267.693,392.895 270.026,393.895 272.5,394.5C 271.167,394.5 269.833,394.5 268.5,394.5C 268.5,398.167 268.5,401.833 268.5,405.5C 268.167,405.5 267.833,405.5 267.5,405.5C 264.867,402.457 264.867,399.29 267.5,396C 266.293,394.7 265.626,393.2 265.5,391.5 Z"/></g>
<g><path style="opacity:1" fill="#555555" d="M 272.5,394.5 C 273.167,407.833 273.833,407.833 274.5,394.5C 275.833,394.5 277.167,394.5 278.5,394.5C 278.5,398.833 278.5,403.167 278.5,407.5C 276.021,406.928 273.687,406.928 271.5,407.5C 269.962,407.547 268.962,406.88 268.5,405.5C 268.5,401.833 268.5,398.167 268.5,394.5C 269.833,394.5 271.167,394.5 272.5,394.5 Z"/></g>
<g><path style="opacity:1" fill="#595959" d="M 290.5,395.5 C 291.234,396.708 291.567,398.041 291.5,399.5C 289.114,399.741 287.114,399.075 285.5,397.5C 284.203,399.693 284.203,402.027 285.5,404.5C 286.107,404.376 286.44,404.043 286.5,403.5C 287.568,402.566 288.901,402.232 290.5,402.5C 290.5,403.833 290.5,405.167 290.5,406.5C 280.695,408.622 277.695,404.788 281.5,395C 284.592,394.264 287.592,394.431 290.5,395.5 Z"/></g>
<g><path style="opacity:1" fill="#dadada" d="M 292.5,389.5 C 292.5,390.5 292.5,391.5 292.5,392.5C 293.833,392.5 295.167,392.5 296.5,392.5C 296.5,391.5 296.5,390.5 296.5,389.5C 297.833,395.5 297.833,401.5 296.5,407.5C 296.5,403.167 296.5,398.833 296.5,394.5C 295.167,394.5 293.833,394.5 292.5,394.5C 292.5,398.833 292.5,403.167 292.5,407.5C 291.833,407.167 291.167,406.833 290.5,406.5C 290.5,405.167 290.5,403.833 290.5,402.5C 288.901,402.232 287.568,402.566 286.5,403.5C 285.539,401.735 285.205,399.735 285.5,397.5C 287.114,399.075 289.114,399.741 291.5,399.5C 291.567,398.041 291.234,396.708 290.5,395.5C 291.167,393.5 291.833,391.5 292.5,389.5 Z"/></g>
<g><path style="opacity:1" fill="#535453" d="M 296.5,407.5 C 295.167,407.5 293.833,407.5 292.5,407.5C 292.5,403.167 292.5,398.833 292.5,394.5C 293.833,394.5 295.167,394.5 296.5,394.5C 296.5,398.833 296.5,403.167 296.5,407.5 Z"/></g>
<g><path style="opacity:1" fill="#616161" d="M 292.5,389.5 C 293.833,389.5 295.167,389.5 296.5,389.5C 296.5,390.5 296.5,391.5 296.5,392.5C 295.167,392.5 293.833,392.5 292.5,392.5C 292.5,391.5 292.5,390.5 292.5,389.5 Z"/></g>
<g><path style="opacity:1" fill="#5c5c5c" d="M 299.5,394.5 C 302.777,394.216 305.943,394.549 309,395.5C 312.034,405.459 308.7,409.126 299,406.5C 298.238,402.413 298.404,398.413 299.5,394.5 Z"/></g>
<g><path style="opacity:1" fill="#5c5c5c" d="M 310.5,394.5 C 314.106,394.211 317.606,394.544 321,395.5C 321.499,399.486 321.666,403.486 321.5,407.5C 320.167,407.5 318.833,407.5 317.5,407.5C 316.833,394.167 316.167,394.167 315.5,407.5C 313.833,407.5 312.167,407.5 310.5,407.5C 310.5,403.167 310.5,398.833 310.5,394.5 Z"/></g>
<g><path style="opacity:1" fill="#5b5b5b" d="M 323.5,394.5 C 326.935,395.368 330.269,395.368 333.5,394.5C 333.5,398.833 333.5,403.167 333.5,407.5C 322.787,409.044 319.454,404.711 323.5,394.5 Z"/></g>
<g><path style="opacity:1" fill="#585858" d="M 351.5,395.5 C 351.5,397.5 351.5,399.5 351.5,401.5C 349.5,401.5 347.5,401.5 345.5,401.5C 345.471,404.773 346.804,405.44 349.5,403.5C 350.713,403.747 351.38,404.414 351.5,405.5C 351.389,406.117 351.056,406.617 350.5,407C 347.833,407.667 345.167,407.667 342.5,407C 341.167,403 341.167,399 342.5,395C 345.592,394.264 348.592,394.431 351.5,395.5 Z"/></g>
<g><path style="opacity:1" fill="#5a5a5a" d="M 353.5,405.5 C 353.62,404.414 354.287,403.747 355.5,403.5C 356.986,404.309 358.319,404.309 359.5,403.5C 354.987,403.257 352.987,400.924 353.5,396.5C 353.611,395.883 353.944,395.383 354.5,395C 357.167,394.333 359.833,394.333 362.5,395C 363.337,396.011 363.67,397.178 363.5,398.5C 356.399,397.251 356.066,397.918 362.5,400.5C 364.37,405.082 362.87,407.415 358,407.5C 355.992,407.693 354.492,407.026 353.5,405.5 Z"/></g>
<g><path style="opacity:1" fill="#fefffe" d="M 180.5,397.5 C 182.337,397.639 182.67,398.306 181.5,399.5C 180.702,399.043 180.369,398.376 180.5,397.5 Z"/></g>
<g><path style="opacity:1" fill="#f1f1f1" d="M 151.5,397.5 C 152.725,398.152 153.392,399.319 153.5,401C 153.167,402.167 152.833,403.333 152.5,404.5C 151.526,402.257 151.192,399.924 151.5,397.5 Z"/></g>
<g><path style="opacity:1" fill="#d4d4d4" d="M 192.5,397.5 C 193.725,398.152 194.392,399.319 194.5,401C 194.167,402.167 193.833,403.333 193.5,404.5C 192.526,402.257 192.192,399.924 192.5,397.5 Z"/></g>
<g><path style="opacity:1" fill="#9f9f9f" d="M 285.5,397.5 C 285.205,399.735 285.539,401.735 286.5,403.5C 286.44,404.043 286.107,404.376 285.5,404.5C 284.203,402.027 284.203,399.693 285.5,397.5 Z"/></g>
<g><path style="opacity:1" fill="#d4d4d4" d="M 302.5,397.5 C 303.725,398.152 304.392,399.319 304.5,401C 304.167,402.167 303.833,403.333 303.5,404.5C 302.526,402.257 302.192,399.924 302.5,397.5 Z"/></g>
<g><path style="opacity:1" fill="#c6c6c6" d="M 327.5,397.5 C 328.725,398.152 329.392,399.319 329.5,401C 329.167,402.167 328.833,403.333 328.5,404.5C 327.526,402.257 327.192,399.924 327.5,397.5 Z"/></g>
<g><path style="opacity:1" fill="#f7f7f7" d="M 345.5,397.5 C 347.337,397.639 347.67,398.306 346.5,399.5C 345.702,399.043 345.369,398.376 345.5,397.5 Z"/></g>
<g><path style="opacity:1" fill="#c8c8c8" d="M 351.5,395.5 C 352.167,395.833 352.833,396.167 353.5,396.5C 352.987,400.924 354.987,403.257 359.5,403.5C 358.319,404.309 356.986,404.309 355.5,403.5C 354.287,403.747 353.62,404.414 353.5,405.5C 352.833,405.5 352.167,405.5 351.5,405.5C 351.38,404.414 350.713,403.747 349.5,403.5C 346.804,405.44 345.471,404.773 345.5,401.5C 347.5,401.5 349.5,401.5 351.5,401.5C 351.5,399.5 351.5,397.5 351.5,395.5 Z"/></g>
<g><path style="opacity:1" fill="#b6b6b6" d="M 186.5,396.5 C 187.833,399.5 187.833,402.5 186.5,405.5C 186.38,404.414 185.713,403.747 184.5,403.5C 181.804,405.44 180.471,404.773 180.5,401.5C 182.5,401.5 184.5,401.5 186.5,401.5C 186.5,399.833 186.5,398.167 186.5,396.5 Z"/></g>
</svg>
