<?xml version="1.0" encoding="UTF-8"?>
<!DOCTYPE svg PUBLIC "-//W3C//DTD SVG 1.1//EN" "http://www.w3.org/Graphics/SVG/1.1/DTD/svg11.dtd">
<svg xmlns="http://www.w3.org/2000/svg" version="1.1" width="500px" height="500px" style="shape-rendering:geometricPrecision; text-rendering:geometricPrecision; image-rendering:optimizeQuality; fill-rule:evenodd; clip-rule:evenodd" xmlns:xlink="http://www.w3.org/1999/xlink">
<g><path style="opacity:1" fill="#000000" d="M -0.5,-0.5 C 166.167,-0.5 332.833,-0.5 499.5,-0.5C 499.5,166.167 499.5,332.833 499.5,499.5C 332.833,499.5 166.167,499.5 -0.5,499.5C -0.5,332.833 -0.5,166.167 -0.5,-0.5 Z"/></g>
<g><path style="opacity:1" fill="#0586ca" d="M 226.5,92.5 C 295.285,88.973 348.118,115.973 385,173.5C 413.626,227.838 413.626,282.171 385,336.5C 347.89,394.473 294.723,421.306 225.5,417C 155.333,405.496 109.166,365.996 87,298.5C 71.76,232.562 88.9267,176.728 138.5,131C 164.15,109.673 193.484,96.8399 226.5,92.5 Z"/></g>
<g><path style="opacity:1" fill="#020202" d="M 235.5,98.5 C 301.303,97.9674 350.47,125.967 383,182.5C 406.661,231.639 406.328,280.639 382,329.5C 347.559,386.646 296.726,413.812 229.5,411C 161.388,401.541 116.221,364.375 94,299.5C 76.8669,228.992 96.7002,171.492 153.5,127C 178.418,110.196 205.751,100.696 235.5,98.5 Z"/></g>
<g><path style="opacity:1" fill="#e9e9e9" d="M 242.5,112.5 C 243.496,112.414 244.329,112.748 245,113.5C 247.299,120.694 249.466,127.861 251.5,135C 251.237,136.946 250.237,137.612 248.5,137C 247.139,135.416 246.472,133.582 246.5,131.5C 244.5,131.5 242.5,131.5 240.5,131.5C 240.5,133.167 240.5,134.833 240.5,136.5C 239.167,136.5 237.833,136.5 236.5,136.5C 237.058,128.156 239.058,120.156 242.5,112.5 Z"/></g>
<g><path style="opacity:1" fill="#e7e7e7" d="M 223.5,115.5 C 225.451,115.227 226.951,115.893 228,117.5C 230.454,124.649 231.954,131.983 232.5,139.5C 231.178,139.67 230.011,139.337 229,138.5C 227.872,133.861 226.872,129.195 226,124.5C 225.481,127.555 223.981,129.889 221.5,131.5C 219.372,130.946 217.872,129.613 217,127.5C 217.969,132.074 218.302,136.741 218,141.5C 216.605,142.815 215.605,142.481 215,140.5C 213.253,132.827 211.92,125.16 211,117.5C 211.718,116.549 212.551,116.383 213.5,117C 216,120.167 218.5,123.333 221,126.5C 221.649,122.75 222.482,119.083 223.5,115.5 Z"/></g>
<g><path style="opacity:1" fill="#efefef" d="M 272.5,117.5 C 282.926,119.014 286.093,124.681 282,134.5C 278.388,139.559 273.554,141.726 267.5,141C 266.978,140.439 266.645,139.772 266.5,139C 268.587,131.816 270.587,124.649 272.5,117.5 Z"/></g>
<g><path style="opacity:1" fill="#ebebeb" d="M 197.5,120.5 C 199.167,120.5 200.833,120.5 202.5,120.5C 202.719,121.675 202.386,122.675 201.5,123.5C 196.783,124.565 195.45,127.232 197.5,131.5C 199.806,131.007 202.139,130.674 204.5,130.5C 204.719,131.675 204.386,132.675 203.5,133.5C 198.887,135.038 198.221,137.704 201.5,141.5C 204.028,139.126 207.028,138.126 210.5,138.5C 210.719,139.675 210.386,140.675 209.5,141.5C 206.671,142.747 204.005,144.247 201.5,146C 200.365,146.749 199.365,146.583 198.5,145.5C 196.466,138.566 194.133,131.733 191.5,125C 193.136,123.057 195.136,121.557 197.5,120.5 Z"/></g>
<g><path style="opacity:1" fill="#151515" d="M 274.5,122.5 C 278.295,121.959 280.295,123.625 280.5,127.5C 279.674,132.324 277.007,135.658 272.5,137.5C 272.167,136.833 271.833,136.167 271.5,135.5C 272.661,131.189 273.661,126.855 274.5,122.5 Z"/></g>
<g><path style="opacity:1" fill="#e8e8e8" d="M 293.5,122.5 C 296.643,123.037 299.643,124.037 302.5,125.5C 303.429,126.689 303.762,128.022 303.5,129.5C 300.84,128.653 298.174,128.153 295.5,128C 294.139,129.584 293.472,131.418 293.5,133.5C 296.588,133.197 298.254,134.53 298.5,137.5C 296.208,137.756 294.041,137.423 292,136.5C 291.167,138.167 290.333,139.833 289.5,141.5C 291.657,142.79 293.99,143.624 296.5,144C 297.833,145 297.833,146 296.5,147C 292.428,147.319 288.594,146.485 285,144.5C 287.12,136.987 289.953,129.654 293.5,122.5 Z"/></g>
<g><path style="opacity:1" fill="#282828" d="M 242.5,121.5 C 244.28,122.99 244.946,124.99 244.5,127.5C 243.325,127.719 242.325,127.386 241.5,126.5C 242.309,124.929 242.643,123.262 242.5,121.5 Z"/></g>
<g><path style="opacity:1" fill="#ebebeb" d="M 182.5,129.5 C 183.5,129.5 184.5,129.5 185.5,129.5C 185.548,132.292 184.215,134.125 181.5,135C 184.96,140.752 188.293,146.585 191.5,152.5C 190.112,155.079 188.612,155.079 187,152.5C 184.401,146.911 181.401,141.577 178,136.5C 176.103,138.016 173.936,138.683 171.5,138.5C 171.281,137.325 171.614,136.325 172.5,135.5C 175.897,133.474 179.23,131.474 182.5,129.5 Z"/></g>
<g><path style="opacity:1" fill="#e8e8e8" d="M 161.5,139.5 C 166.63,140.456 166.797,142.123 162,144.5C 161.333,145.833 161.333,147.167 162,148.5C 166.005,149.028 169.839,150.195 173.5,152C 179.082,157.009 178.415,161.009 171.5,164C 168.074,165.238 166.408,164.071 166.5,160.5C 169.596,161.093 171.929,160.093 173.5,157.5C 173.023,156.522 172.357,155.689 171.5,155C 168.576,154.012 165.576,153.346 162.5,153C 156.199,149.009 155.866,144.509 161.5,139.5 Z"/></g>
<g><path style="opacity:1" fill="#ebebeb" d="M 327.5,141.5 C 329.635,141.147 330.968,141.98 331.5,144C 328.343,150.638 325.676,157.472 323.5,164.5C 322.167,164.5 320.833,164.5 319.5,164.5C 321.708,156.355 319.375,154.355 312.5,158.5C 311.5,158.167 310.833,157.5 310.5,156.5C 312.358,154.476 314.025,152.309 315.5,150C 320.06,147.893 324.06,145.06 327.5,141.5 Z"/></g>
<g><path style="opacity:1" fill="#262626" d="M 323.5,149.5 C 324.325,151.125 323.992,152.792 322.5,154.5C 321.5,154.167 320.833,153.5 320.5,152.5C 321.34,151.265 322.34,150.265 323.5,149.5 Z"/></g>
<g><path style="opacity:1" fill="#ececec" d="M 148.5,152.5 C 149.552,152.351 150.552,152.517 151.5,153C 155.633,158.134 160.133,162.968 165,167.5C 165.783,169.319 165.283,170.652 163.5,171.5C 158.848,166.348 154.015,161.348 149,156.5C 148.51,155.207 148.343,153.873 148.5,152.5 Z"/></g>
<g><path style="opacity:1" fill="#e6e6e6" d="M 338.5,153.5 C 343.085,156.414 347.085,160.08 350.5,164.5C 350.167,165.5 349.5,166.167 348.5,166.5C 347.084,164.861 345.417,164.027 343.5,164C 339.167,168.333 334.833,172.667 330.5,177C 329.552,177.483 328.552,177.649 327.5,177.5C 327.343,176.127 327.51,174.793 328,173.5C 332.682,169.097 337.182,164.597 341.5,160C 339.081,158.491 338.081,156.325 338.5,153.5 Z"/></g>
<g><path style="opacity:1" fill="#e7e7e7" d="M 140.5,158.5 C 144.173,159.708 144.34,161.374 141,163.5C 140.51,164.793 140.343,166.127 140.5,167.5C 144.182,167.335 147.848,167.501 151.5,168C 159.556,170.661 160.556,174.995 154.5,181C 152.866,181.494 151.199,181.66 149.5,181.5C 149.406,178.459 150.906,176.793 154,176.5C 154.667,175.5 154.667,174.5 154,173.5C 149.352,171.892 144.519,171.058 139.5,171C 135.309,166.46 135.642,162.293 140.5,158.5 Z"/></g>
<g><path style="opacity:1" fill="#ececec" d="M 354.5,170.5 C 358.656,171.645 361.656,174.311 363.5,178.5C 363.167,179.5 362.5,180.167 361.5,180.5C 360.099,178.374 358.266,176.707 356,175.5C 354.374,176.289 352.874,177.289 351.5,178.5C 352.5,179.833 353.5,181.167 354.5,182.5C 353.965,184.101 352.965,184.601 351.5,184C 348.812,179.753 346.145,179.919 343.5,184.5C 344.48,185.981 345.647,187.315 347,188.5C 347.781,189.944 347.614,191.277 346.5,192.5C 343.167,189.833 340.167,186.833 337.5,183.5C 343.377,179.4 349.043,175.067 354.5,170.5 Z"/></g>
<g><path style="opacity:1" fill="#0589d0" d="M 283.5,201.5 C 283.5,205.167 283.5,208.833 283.5,212.5C 281.5,212.5 279.5,212.5 277.5,212.5C 274.58,202.844 269.246,194.677 261.5,188C 249.677,181.145 237.677,180.812 225.5,187C 216.992,194.893 215.326,204.059 220.5,214.5C 213.532,215.497 206.532,215.83 199.5,215.5C 200.007,192.644 211.341,178.477 233.5,173C 248.111,170.735 261.111,174.235 272.5,183.5C 274.043,180.914 275.709,178.414 277.5,176C 279.134,175.506 280.801,175.34 282.5,175.5C 282.521,184.182 282.854,192.848 283.5,201.5 Z"/></g>
<g><path style="opacity:1" fill="#ededed" d="M 364.5,187.5 C 366.346,187.222 367.68,187.889 368.5,189.5C 365.357,193.811 362.023,197.978 358.5,202C 362.952,200.783 367.286,198.95 371.5,196.5C 373.101,197.035 373.601,198.035 373,199.5C 365.879,203.813 358.379,207.146 350.5,209.5C 350.343,208.127 350.51,206.793 351,205.5C 353.98,201.686 357.146,198.019 360.5,194.5C 360.333,194.167 360.167,193.833 360,193.5C 356.268,196.358 352.101,198.358 347.5,199.5C 346.068,199.267 345.568,198.6 346,197.5C 352.021,193.742 358.188,190.409 364.5,187.5 Z"/></g>
<g><path style="opacity:1" fill="#e8e8e8" d="M 115.5,195.5 C 116.833,195.5 118.167,195.5 119.5,195.5C 119.523,197.6 118.856,199.433 117.5,201C 117.645,201.772 117.978,202.439 118.5,203C 122.489,202.529 126.489,201.696 130.5,200.5C 136.193,201.015 138.693,204.015 138,209.5C 136.641,211.692 134.808,213.359 132.5,214.5C 131.5,214.167 130.833,213.5 130.5,212.5C 131.48,211.019 132.647,209.685 134,208.5C 134.86,205.522 133.693,204.188 130.5,204.5C 126.224,205.991 121.891,206.825 117.5,207C 113.208,203.688 112.541,199.855 115.5,195.5 Z"/></g>
<g><path style="opacity:1" fill="#e6e6e6" d="M 366.5,208.5 C 370.463,208.089 374.13,208.922 377.5,211C 378.602,213.401 378.769,215.901 378,218.5C 377.047,220.592 375.714,220.925 374,219.5C 375.743,212.922 373.243,210.755 366.5,213C 364.5,214 362.5,215 360.5,216C 359.171,218.862 360.004,221.028 363,222.5C 363.483,223.448 363.649,224.448 363.5,225.5C 354.562,223.322 353.228,218.822 359.5,212C 361.925,210.787 364.259,209.621 366.5,208.5 Z"/></g>
<g><path style="opacity:1" fill="#035682" d="M 283.5,201.5 C 284.483,205.298 284.817,209.298 284.5,213.5C 281.941,213.802 279.607,213.468 277.5,212.5C 279.5,212.5 281.5,212.5 283.5,212.5C 283.5,208.833 283.5,205.167 283.5,201.5 Z"/></g>
<g><path style="opacity:1" fill="#ebebeb" d="M 120.5,218.5 C 119.99,221.388 120.656,223.721 122.5,225.5C 123.583,225.539 124.583,225.873 125.5,226.5C 126.314,224.234 126.814,221.9 127,219.5C 128.011,218.663 129.178,218.33 130.5,218.5C 130.5,222.5 130.5,226.5 130.5,230.5C 122.622,229.597 114.955,227.764 107.5,225C 107.043,224.586 106.709,224.086 106.5,223.5C 107.23,220.891 107.73,218.224 108,215.5C 109.011,214.663 110.178,214.33 111.5,214.5C 111.5,217.167 111.5,219.833 111.5,222.5C 113.5,222.833 115.5,223.167 117.5,223.5C 117.5,221.833 117.5,220.167 117.5,218.5C 118.5,218.5 119.5,218.5 120.5,218.5 Z"/></g>
<g><path style="opacity:1" fill="#5e5e5e" d="M 120.5,218.5 C 121.268,220.715 121.935,223.048 122.5,225.5C 120.656,223.721 119.99,221.388 120.5,218.5 Z"/></g>
<g><path style="opacity:1" fill="#e6e6e6" d="M 374.5,226.5 C 376.833,226.5 379.167,226.5 381.5,226.5C 381.67,227.822 381.337,228.989 380.5,230C 373.247,231.751 365.913,232.918 358.5,233.5C 358.33,232.178 358.663,231.011 359.5,230C 364.702,229.131 369.702,227.964 374.5,226.5 Z"/></g>
<g><path style="opacity:1" fill="#f2f2f2" d="M 215.5,230.5 C 217.144,230.286 218.644,230.62 220,231.5C 224.276,242.995 228.943,254.328 234,265.5C 235.42,267.422 237.253,268.755 239.5,269.5C 233.167,270.833 226.833,270.833 220.5,269.5C 221.689,268.571 223.022,268.238 224.5,268.5C 224.649,265.393 224.149,262.393 223,259.5C 218,258.167 213,258.167 208,259.5C 206.711,262.351 206.211,265.351 206.5,268.5C 207.978,268.238 209.311,268.571 210.5,269.5C 205.833,270.833 201.167,270.833 196.5,269.5C 198.422,268.289 200.255,266.956 202,265.5C 206.605,253.849 211.105,242.182 215.5,230.5 Z"/></g>
<g><path style="opacity:1" fill="#f3f3f3" d="M 253.5,231.5 C 258.179,231.334 262.845,231.501 267.5,232C 269.421,232.36 271.088,233.194 272.5,234.5C 273.386,233.675 273.719,232.675 273.5,231.5C 274.5,231.5 275.5,231.5 276.5,231.5C 276.393,235.917 275.726,240.251 274.5,244.5C 271.462,236.647 265.795,233.481 257.5,235C 251.831,238.351 249.164,243.351 249.5,250C 249.435,265.296 256.435,270.296 270.5,265C 272.756,262.261 274.756,259.427 276.5,256.5C 277.493,261.12 277.827,265.786 277.5,270.5C 276.5,270.5 275.5,270.5 274.5,270.5C 274.657,269.127 274.49,267.793 274,266.5C 272.2,268.317 270.034,269.484 267.5,270C 248.874,273.035 240.04,265.202 241,246.5C 243.211,239.796 247.378,234.796 253.5,231.5 Z"/></g>
<g><path style="opacity:1" fill="#fcfcfc" d="M 282.5,231.5 C 288.206,231.171 293.872,231.505 299.5,232.5C 297.807,233.228 296.307,234.228 295,235.5C 294.333,245.5 294.333,255.5 295,265.5C 295.791,267.604 297.291,268.937 299.5,269.5C 293.5,270.833 287.5,270.833 281.5,269.5C 283.805,268.769 285.638,267.436 287,265.5C 287.667,255.833 287.667,246.167 287,236.5C 285.287,234.924 283.787,233.257 282.5,231.5 Z"/></g>
<g><path style="opacity:1" fill="#e2e2e2" d="M 126.5,234.5 C 128.722,234.559 129.722,235.725 129.5,238C 129.043,241.085 128.377,244.085 127.5,247C 119.447,246.874 111.447,246.041 103.5,244.5C 103.5,243.167 103.5,241.833 103.5,240.5C 110.476,241.628 117.476,242.628 124.5,243.5C 124.7,240.37 125.366,237.37 126.5,234.5 Z"/></g>
<g><path style="opacity:1" fill="#efefef" d="M 368.5,236.5 C 372.967,236.133 377.3,236.633 381.5,238C 384.207,239.864 385.041,242.364 384,245.5C 377.964,249.111 371.464,250.278 364.5,249C 361.793,247.136 360.959,244.636 362,241.5C 363.965,239.45 366.132,237.783 368.5,236.5 Z"/></g>
<g><path style="opacity:1" fill="#171717" d="M 368.5,240.5 C 371.85,240.335 375.183,240.502 378.5,241C 379.308,241.308 379.975,241.808 380.5,242.5C 376.349,245.743 371.682,246.91 366.5,246C 365.08,243.426 365.747,241.593 368.5,240.5 Z"/></g>
<g><path style="opacity:1" fill="#0e0e0e" d="M 214.5,241.5 C 215.376,241.369 216.043,241.702 216.5,242.5C 218.269,246.644 219.936,250.81 221.5,255C 217.5,255.667 213.5,255.667 209.5,255C 211.66,250.686 213.327,246.186 214.5,241.5 Z"/></g>
<g><path style="opacity:1" fill="#eaeaea" d="M 122.5,251.5 C 124.346,251.222 125.68,251.889 126.5,253.5C 125.345,254.95 123.845,255.95 122,256.5C 121.506,258.134 121.34,259.801 121.5,261.5C 124.757,261.174 126.257,262.507 126,265.5C 123.74,265.471 121.407,265.804 119,266.5C 113.885,264.761 108.718,263.094 103.5,261.5C 102.571,260.311 102.238,258.978 102.5,257.5C 109.456,256.067 116.123,254.067 122.5,251.5 Z"/></g>
<g><path style="opacity:1" fill="#ececec" d="M 360.5,254.5 C 368.505,254.731 376.505,255.065 384.5,255.5C 384.714,257.144 384.38,258.644 383.5,260C 378.757,261.47 374.091,263.136 369.5,265C 374.372,266.388 379.372,266.888 384.5,266.5C 384.5,267.5 384.5,268.5 384.5,269.5C 376.389,269.935 368.389,269.435 360.5,268C 359.273,266.413 359.606,265.079 361.5,264C 365.833,262.333 370.167,260.667 374.5,259C 370.167,258.667 365.833,258.333 361.5,258C 360.663,256.989 360.33,255.822 360.5,254.5 Z"/></g>
<g><path style="opacity:1" fill="#444444" d="M 115.5,257.5 C 116.586,257.62 117.253,258.287 117.5,259.5C 117.167,260.167 116.833,260.833 116.5,261.5C 114.775,260.985 113.108,260.318 111.5,259.5C 112.949,258.828 114.282,258.161 115.5,257.5 Z"/></g>
<g><path style="opacity:1" fill="#e9e9e9" d="M 121.5,270.5 C 124.167,270.5 126.833,270.5 129.5,270.5C 129.657,271.873 129.49,273.207 129,274.5C 125.236,276.632 121.736,279.132 118.5,282C 122.86,281.998 127.193,281.498 131.5,280.5C 131.5,281.833 131.5,283.167 131.5,284.5C 123.53,285.761 115.53,286.761 107.5,287.5C 107.297,285.61 107.963,284.11 109.5,283C 113.167,280.667 116.833,278.333 120.5,276C 115.486,276.056 110.486,276.556 105.5,277.5C 105.33,276.178 105.663,275.011 106.5,274C 111.646,272.875 116.646,271.709 121.5,270.5 Z"/></g>
<g><path style="opacity:1" fill="#058ad0" d="M 194.5,283.5 C 197.247,283.187 199.914,283.52 202.5,284.5C 209.561,303.117 223.061,312.784 243,313.5C 264.199,314.464 274.699,304.464 274.5,283.5C 281.167,283.5 287.833,283.5 294.5,283.5C 293.318,299.684 285.318,311.184 270.5,318C 247.622,327.459 226.289,324.959 206.5,310.5C 204.333,312.83 202.666,315.497 201.5,318.5C 199.955,319.452 198.288,319.785 196.5,319.5C 195.794,307.503 195.128,295.503 194.5,283.5 Z"/></g>
<g><path style="opacity:1" fill="#eeeeee" d="M 356.5,284.5 C 364.93,286.199 372.93,288.866 380.5,292.5C 375.22,304.13 368.053,305.463 359,296.5C 356.868,292.792 356.035,288.792 356.5,284.5 Z"/></g>
<g><path style="opacity:1" fill="#141414" d="M 359.5,288.5 C 364.897,290.299 370.23,292.299 375.5,294.5C 371.247,299.581 366.747,299.581 362,294.5C 360.878,292.593 360.045,290.593 359.5,288.5 Z"/></g>
<g><path style="opacity:1" fill="#ebebeb" d="M 121.5,290.5 C 124.85,290.335 128.183,290.502 131.5,291C 133.444,293.153 133.944,295.653 133,298.5C 126.752,304.99 119.752,306.323 112,302.5C 111.333,300.833 111.333,299.167 112,297.5C 115.068,294.917 118.235,292.584 121.5,290.5 Z"/></g>
<g><path style="opacity:1" fill="#131313" d="M 124.5,293.5 C 126.167,293.5 127.833,293.5 129.5,293.5C 129.714,295.144 129.38,296.644 128.5,298C 124.309,300.814 119.975,301.481 115.5,300C 118.214,297.322 121.214,295.155 124.5,293.5 Z"/></g>
<g><path style="opacity:1" fill="#ededed" d="M 351.5,301.5 C 359.238,304.536 366.571,308.369 373.5,313C 372.147,315.38 370.981,317.88 370,320.5C 368.989,321.337 367.822,321.67 366.5,321.5C 367.347,318.84 367.847,316.174 368,313.5C 366.416,312.139 364.582,311.472 362.5,311.5C 362.803,314.588 361.47,316.254 358.5,316.5C 358.575,313.794 358.908,311.127 359.5,308.5C 357.516,308.617 355.85,307.95 354.5,306.5C 353.515,308.772 352.681,311.105 352,313.5C 350.174,314.841 349.007,314.341 348.5,312C 349.694,308.515 350.694,305.015 351.5,301.5 Z"/></g>
<g><path style="opacity:1" fill="#eaeaea" d="M 136.5,303.5 C 137.5,303.5 138.5,303.5 139.5,303.5C 139.67,304.822 139.337,305.989 138.5,307C 131.887,310.979 124.887,313.813 117.5,315.5C 117.281,314.325 117.614,313.325 118.5,312.5C 124.592,309.454 130.592,306.454 136.5,303.5 Z"/></g>
<g><path style="opacity:1" fill="#eeeeee" d="M 136.5,312.5 C 143.38,311.876 146.214,314.876 145,321.5C 140.904,328.739 134.738,331.572 126.5,330C 123.71,327.79 122.877,324.956 124,321.5C 125.011,320.663 126.178,320.33 127.5,320.5C 127.5,322.5 127.5,324.5 127.5,326.5C 132.9,327.215 137.4,325.548 141,321.5C 141.494,319.866 141.66,318.199 141.5,316.5C 138.05,317.244 136.384,315.91 136.5,312.5 Z"/></g>
<g><path style="opacity:1" fill="#e9e9e9" d="M 148.5,327.5 C 154.82,327.32 157.32,330.32 156,336.5C 151.622,341.902 146.456,346.068 140.5,349C 139.549,348.282 139.383,347.449 140,346.5C 143.81,342.6 147.81,338.934 152,335.5C 152.49,334.207 152.657,332.873 152.5,331.5C 151.127,331.343 149.793,331.51 148.5,332C 144.534,334.964 140.867,338.297 137.5,342C 134.909,342.301 134.075,341.134 135,338.5C 139.399,334.591 143.899,330.924 148.5,327.5 Z"/></g>
<g><path style="opacity:1" fill="#ebebeb" d="M 334.5,328.5 C 345.886,329.377 351.386,335.377 351,346.5C 348.519,348.314 345.685,348.98 342.5,348.5C 342.5,347.5 342.5,346.5 342.5,345.5C 345.056,345.868 347.056,345.034 348.5,343C 346.471,336.503 342.138,333.169 335.5,333C 334.577,335.041 334.244,337.208 334.5,339.5C 333.5,339.5 332.5,339.5 331.5,339.5C 330.807,335.247 331.807,331.581 334.5,328.5 Z"/></g>
<g><path style="opacity:1" fill="#ececec" d="M 166.5,339.5 C 168.686,339.511 169.519,340.511 169,342.5C 164.645,347.354 160.478,352.354 156.5,357.5C 157.833,359.167 159.167,360.833 160.5,362.5C 159.277,363.614 157.944,363.781 156.5,363C 153.573,360.618 150.739,358.118 148,355.5C 147.517,354.552 147.351,353.552 147.5,352.5C 149.816,353.36 152.149,353.86 154.5,354C 158.712,349.293 162.712,344.46 166.5,339.5 Z"/></g>
<g><path style="opacity:1" fill="#ececec" d="M 321.5,342.5 C 324.32,342.248 326.986,342.748 329.5,344C 334.117,347.273 337.117,351.606 338.5,357C 338.357,359.151 337.357,360.818 335.5,362C 326.895,360.9 321.562,356.066 319.5,347.5C 319.437,345.486 320.103,343.819 321.5,342.5 Z"/></g>
<g><path style="opacity:1" fill="#141414" d="M 323.5,346.5 C 330.292,347.934 333.625,351.934 333.5,358.5C 327.549,356.56 324.216,352.56 323.5,346.5 Z"/></g>
<g><path style="opacity:1" fill="#ededed" d="M 310.5,349.5 C 311.822,349.33 312.989,349.663 314,350.5C 317.584,356.669 321.417,362.669 325.5,368.5C 322.215,373.493 317.881,374.66 312.5,372C 309.592,369.293 308.925,366.127 310.5,362.5C 308.176,361.338 305.842,360.171 303.5,359C 301.963,357.89 301.297,356.39 301.5,354.5C 305.134,355.397 308.634,356.73 312,358.5C 312.5,358.167 313,357.833 313.5,357.5C 311.924,355.021 310.924,352.354 310.5,349.5 Z"/></g>
<g><path style="opacity:1" fill="#e4e4e4" d="M 176.5,349.5 C 179.838,350.193 180.338,351.86 178,354.5C 174.5,359.5 171,364.5 167.5,369.5C 164.984,370.949 163.817,370.282 164,367.5C 168.423,361.645 172.59,355.645 176.5,349.5 Z"/></g>
<g><path style="opacity:1" fill="#eaeaea" d="M 187.5,355.5 C 188.833,355.5 190.167,355.5 191.5,355.5C 188.663,362.012 185.663,368.512 182.5,375C 183.665,376.084 184.998,376.917 186.5,377.5C 187.386,378.325 187.719,379.325 187.5,380.5C 181.851,379.508 176.851,377.175 172.5,373.5C 174.359,370.981 176.359,370.981 178.5,373.5C 182.038,367.757 185.038,361.757 187.5,355.5 Z"/></g>
<g><path style="opacity:1" fill="#f0f0f0" d="M 295.5,358.5 C 296.822,358.33 297.989,358.663 299,359.5C 301.135,365.766 303.801,371.766 307,377.5C 307.684,378.784 307.517,379.951 306.5,381C 295.82,384.939 291.32,381.439 293,370.5C 290.022,368.689 287.522,366.356 285.5,363.5C 285.833,362.5 286.5,361.833 287.5,361.5C 290.271,364.548 293.604,366.548 297.5,367.5C 296.539,364.574 295.873,361.574 295.5,358.5 Z"/></g>
<g><path style="opacity:1" fill="#0c0c0c" d="M 314.5,363.5 C 315.552,363.351 316.552,363.517 317.5,364C 318.257,365.512 319.257,366.846 320.5,368C 315.416,370.409 313.416,368.909 314.5,363.5 Z"/></g>
<g><path style="opacity:1" fill="#e8e8e8" d="M 201.5,363.5 C 207.172,362.883 210.339,365.216 211,370.5C 210.586,370.957 210.086,371.291 209.5,371.5C 207.796,369.959 205.963,368.625 204,367.5C 203.228,367.645 202.561,367.978 202,368.5C 202.293,372.896 203.126,377.229 204.5,381.5C 203.921,388.236 200.588,390.069 194.5,387C 193.663,385.989 193.33,384.822 193.5,383.5C 196.068,384.45 198.568,384.45 201,383.5C 200.17,379.163 199.004,374.829 197.5,370.5C 197.974,367.689 199.307,365.355 201.5,363.5 Z"/></g>
<g><path style="opacity:1" fill="#e5e5e5" d="M 278.5,366.5 C 280.144,366.286 281.644,366.62 283,367.5C 284.737,374.874 286.571,382.208 288.5,389.5C 284.957,390.847 281.29,391.68 277.5,392C 276.549,391.282 276.383,390.449 277,389.5C 279.406,388.435 281.573,387.102 283.5,385.5C 282.985,383.775 282.318,382.108 281.5,380.5C 279.359,383.019 277.359,383.019 275.5,380.5C 276.436,379.026 277.77,378.026 279.5,377.5C 280.956,375.122 280.623,373.122 278.5,371.5C 275.979,372.785 273.313,373.452 270.5,373.5C 270.281,372.325 270.614,371.325 271.5,370.5C 274.059,369.392 276.392,368.059 278.5,366.5 Z"/></g>
<g><path style="opacity:1" fill="#e6e6e6" d="M 216.5,367.5 C 217.822,367.33 218.989,367.663 220,368.5C 221.025,373.268 222.358,377.934 224,382.5C 224.559,378.814 225.226,375.147 226,371.5C 226.689,370.643 227.522,369.977 228.5,369.5C 229.186,376.934 228.353,384.268 226,391.5C 223.918,394.15 222.251,393.816 221,390.5C 220.214,385.78 219.214,381.114 218,376.5C 217,381.5 216,386.5 215,391.5C 214,392.833 213,392.833 212,391.5C 212.406,383.303 213.906,375.303 216.5,367.5 Z"/></g>
<g><path style="opacity:1" fill="#ebebeb" d="M 234.5,370.5 C 236.252,370.418 237.252,371.251 237.5,373C 236.679,380.146 236.012,387.313 235.5,394.5C 234.5,394.5 233.5,394.5 232.5,394.5C 232.062,386.35 232.729,378.35 234.5,370.5 Z"/></g>
<g><path style="opacity:1" fill="#eaeaea" d="M 257.5,371.5 C 262.474,371.299 265.64,373.632 267,378.5C 268.01,383.558 267.51,388.391 265.5,393C 261.649,395.497 258.816,394.663 257,390.5C 254.753,385.363 254.086,380.03 255,374.5C 256.045,373.627 256.878,372.627 257.5,371.5 Z"/></g>
<g><path style="opacity:1" fill="#161616" d="M 297.5,372.5 C 300.246,372.928 301.913,374.594 302.5,377.5C 300.125,380.123 297.959,379.789 296,376.5C 295.7,374.934 296.2,373.601 297.5,372.5 Z"/></g>
<g><path style="opacity:1" fill="#0a0a0a" d="M 258.5,375.5 C 260.911,375.137 262.411,376.137 263,378.5C 263.922,382.691 263.588,386.691 262,390.5C 258.992,385.984 257.826,380.984 258.5,375.5 Z"/></g>
</svg>
