<?xml version="1.0" encoding="UTF-8"?>
<!DOCTYPE svg PUBLIC "-//W3C//DTD SVG 1.1//EN" "http://www.w3.org/Graphics/SVG/1.1/DTD/svg11.dtd">
<svg xmlns="http://www.w3.org/2000/svg" version="1.1" width="500px" height="500px" style="shape-rendering:geometricPrecision; text-rendering:geometricPrecision; image-rendering:optimizeQuality; fill-rule:evenodd; clip-rule:evenodd" xmlns:xlink="http://www.w3.org/1999/xlink">
<g><path style="opacity:1" fill="#fefefe" d="M -0.5,-0.5 C 166.167,-0.5 332.833,-0.5 499.5,-0.5C 499.5,166.167 499.5,332.833 499.5,499.5C 332.833,499.5 166.167,499.5 -0.5,499.5C -0.5,332.833 -0.5,166.167 -0.5,-0.5 Z"/></g>
<g><path style="opacity:1" fill="#0c0c0c" d="M 230.5,123.5 C 298.933,120.296 351.433,147.296 388,204.5C 413.249,251.726 416.249,300.393 397,350.5C 364.237,417.548 310.404,450.381 235.5,449C 178.992,443.343 135.826,416.51 106,368.5C 80.7789,321.162 77.7789,272.495 97,222.5C 123.781,165.546 168.281,132.546 230.5,123.5 Z"/></g>
<g><path style="opacity:1" fill="#77314a" d="M 248.5,129.5 C 249.69,134.571 251.19,139.571 253,144.5C 253.868,147.485 254.201,150.485 254,153.5C 253.282,154.451 252.449,154.617 251.5,154C 250.833,152.333 250.167,150.667 249.5,149C 247.527,148.505 245.527,148.338 243.5,148.5C 243.803,151.588 242.47,153.254 239.5,153.5C 239.656,150.934 239.322,148.434 238.5,146C 239.34,144.829 240.173,143.662 241,142.5C 241.856,138.043 243.022,133.71 244.5,129.5C 245.833,128.167 247.167,128.167 248.5,129.5 Z"/></g>
<g><path style="opacity:1" fill="#f9f8f8" d="M 244.5,129.5 C 243.022,133.71 241.856,138.043 241,142.5C 240.173,143.662 239.34,144.829 238.5,146C 239.322,148.434 239.656,150.934 239.5,153.5C 242.47,153.254 243.803,151.588 243.5,148.5C 245.527,148.338 247.527,148.505 249.5,149C 250.167,150.667 250.833,152.333 251.5,154C 252.449,154.617 253.282,154.451 254,153.5C 254.201,150.485 253.868,147.485 253,144.5C 251.19,139.571 249.69,134.571 248.5,129.5C 258.251,129.775 267.918,130.775 277.5,132.5C 275.916,140.257 273.916,147.923 271.5,155.5C 271.608,156.442 271.941,157.275 272.5,158C 284.975,158.187 290.475,152.02 289,139.5C 286.716,136.618 283.883,134.618 280.5,133.5C 286.883,134.961 293.216,136.627 299.5,138.5C 296.896,145.976 293.896,153.309 290.5,160.5C 290.608,161.442 290.941,162.275 291.5,163C 295.583,163.53 299.583,164.363 303.5,165.5C 303.5,164.167 303.5,162.833 303.5,161.5C 300.395,161.401 297.728,160.401 295.5,158.5C 296.185,156.453 297.351,154.786 299,153.5C 301.099,154.287 303.266,154.62 305.5,154.5C 305.719,153.325 305.386,152.325 304.5,151.5C 302.775,150.985 301.108,150.318 299.5,149.5C 300.626,143.354 303.792,142.021 309,145.5C 310.011,144.944 310.844,144.278 311.5,143.5C 320.318,147.406 328.652,152.073 336.5,157.5C 336.489,159.017 335.823,160.184 334.5,161C 331.833,163 329.167,165 326.5,167C 325.207,167.49 323.873,167.657 322.5,167.5C 322.067,170.285 320.734,172.619 318.5,174.5C 318.887,175.72 319.72,176.387 321,176.5C 322.7,175.073 324.533,174.24 326.5,174C 329.829,175.941 330.162,178.441 327.5,181.5C 327.887,182.72 328.72,183.387 330,183.5C 333.738,176.12 337.572,168.786 341.5,161.5C 352.521,169.188 361.854,178.521 369.5,189.5C 368.448,189.351 367.448,189.517 366.5,190C 360.844,194.496 354.844,198.496 348.5,202C 347.483,203.049 347.316,204.216 348,205.5C 350.682,208.35 353.516,211.016 356.5,213.5C 357.72,213.113 358.387,212.28 358.5,211C 357.039,208.702 355.372,206.535 353.5,204.5C 356.704,200.397 359.704,200.563 362.5,205C 363.965,205.601 364.965,205.101 365.5,203.5C 364.752,201.668 363.752,200.001 362.5,198.5C 363.865,197.059 365.365,195.726 367,194.5C 368.878,196.043 370.378,197.876 371.5,200C 372.448,200.483 373.448,200.649 374.5,200.5C 374.6,197.892 373.933,195.558 372.5,193.5C 389.767,215.435 399.934,240.435 403,268.5C 407.649,330.968 384.815,380.468 334.5,417C 276.145,452.331 217.812,452.331 159.5,417C 120.467,389.125 97.6333,351.292 91,303.5C 86.5934,251.372 103.093,207.205 140.5,171C 144.761,166.898 149.428,163.398 154.5,160.5C 152.608,165.217 153.941,168.717 158.5,171C 163.825,170.667 168.159,172.5 171.5,176.5C 169.891,178.94 167.557,180.107 164.5,180C 163.549,180.718 163.383,181.551 164,182.5C 168.877,184.519 172.543,183.186 175,178.5C 175.684,173.499 173.517,170.332 168.5,169C 165.576,168.012 162.576,167.346 159.5,167C 158.643,166.311 157.977,165.478 157.5,164.5C 159.656,162.371 161.323,160.038 162.5,157.5C 161.167,157.5 159.833,157.5 158.5,157.5C 168.239,150.295 178.906,144.628 190.5,140.5C 193.464,147.89 196.13,155.39 198.5,163C 202.34,162.6 206.007,161.266 209.5,159C 210.337,157.989 210.67,156.822 210.5,155.5C 206.952,155.949 203.619,156.949 200.5,158.5C 200.643,156.738 200.309,155.071 199.5,153.5C 201.159,152.002 202.825,150.502 204.5,149C 204.387,147.72 203.72,146.887 202.5,146.5C 198.479,149.371 196.146,148.204 195.5,143C 197.336,141.581 199.336,140.414 201.5,139.5C 202.429,138.311 202.762,136.978 202.5,135.5C 205.539,134.99 208.539,134.323 211.5,133.5C 213.045,141.812 214.545,150.146 216,158.5C 217.011,159.337 218.178,159.67 219.5,159.5C 219.052,154.116 218.552,148.783 218,143.5C 221.867,150.381 225.034,150.048 227.5,142.5C 229.232,146.65 230.399,150.983 231,155.5C 232.011,156.337 233.178,156.67 234.5,156.5C 233.779,147.494 231.779,138.827 228.5,130.5C 233.854,130.431 239.187,130.098 244.5,129.5 Z"/></g>
<g><path style="opacity:1" fill="#eee9eb" d="M 224.5,131.5 C 224.373,135.262 223.706,138.928 222.5,142.5C 219.43,139.436 216.763,136.103 214.5,132.5C 217.786,131.793 221.119,131.46 224.5,131.5 Z"/></g>
<g><path style="opacity:1" fill="#79334c" d="M 228.5,130.5 C 231.779,138.827 233.779,147.494 234.5,156.5C 233.178,156.67 232.011,156.337 231,155.5C 230.399,150.983 229.232,146.65 227.5,142.5C 225.034,150.048 221.867,150.381 218,143.5C 218.552,148.783 219.052,154.116 219.5,159.5C 218.178,159.67 217.011,159.337 216,158.5C 214.545,150.146 213.045,141.812 211.5,133.5C 212.391,132.89 213.391,132.557 214.5,132.5C 216.763,136.103 219.43,139.436 222.5,142.5C 223.706,138.928 224.373,135.262 224.5,131.5C 225.568,130.566 226.901,130.232 228.5,130.5 Z"/></g>
<g><path style="opacity:1" fill="#7a344d" d="M 277.5,132.5 C 278.791,132.263 279.791,132.596 280.5,133.5C 283.883,134.618 286.716,136.618 289,139.5C 290.475,152.02 284.975,158.187 272.5,158C 271.941,157.275 271.608,156.442 271.5,155.5C 273.916,147.923 275.916,140.257 277.5,132.5 Z"/></g>
<g><path style="opacity:1" fill="#77324a" d="M 202.5,135.5 C 202.762,136.978 202.429,138.311 201.5,139.5C 199.336,140.414 197.336,141.581 195.5,143C 196.146,148.204 198.479,149.371 202.5,146.5C 203.72,146.887 204.387,147.72 204.5,149C 202.825,150.502 201.159,152.002 199.5,153.5C 200.309,155.071 200.643,156.738 200.5,158.5C 203.619,156.949 206.952,155.949 210.5,155.5C 210.67,156.822 210.337,157.989 209.5,159C 206.007,161.266 202.34,162.6 198.5,163C 196.13,155.39 193.464,147.89 190.5,140.5C 194.213,138.315 198.213,136.648 202.5,135.5 Z"/></g>
<g><path style="opacity:1" fill="#f7f3f4" d="M 279.5,138.5 C 283.58,138.081 285.58,139.914 285.5,144C 284.95,149.057 282.283,152.557 277.5,154.5C 277.167,153.833 276.833,153.167 276.5,152.5C 277.82,147.887 278.82,143.221 279.5,138.5 Z"/></g>
<g><path style="opacity:1" fill="#77314a" d="M 299.5,138.5 C 303.168,139.556 306.835,140.722 310.5,142C 311.056,142.383 311.389,142.883 311.5,143.5C 310.844,144.278 310.011,144.944 309,145.5C 303.792,142.021 300.626,143.354 299.5,149.5C 301.108,150.318 302.775,150.985 304.5,151.5C 305.386,152.325 305.719,153.325 305.5,154.5C 303.266,154.62 301.099,154.287 299,153.5C 297.351,154.786 296.185,156.453 295.5,158.5C 297.728,160.401 300.395,161.401 303.5,161.5C 303.5,162.833 303.5,164.167 303.5,165.5C 299.583,164.363 295.583,163.53 291.5,163C 290.941,162.275 290.608,161.442 290.5,160.5C 293.896,153.309 296.896,145.976 299.5,138.5 Z"/></g>
<g><path style="opacity:1" fill="#e3d3d9" d="M 245.5,137.5 C 247.086,139.081 248.086,141.081 248.5,143.5C 247.311,144.429 245.978,144.762 244.5,144.5C 244.993,142.194 245.326,139.861 245.5,137.5 Z"/></g>
<g><path style="opacity:1" fill="#7a344c" d="M 180.5,146.5 C 181.833,146.5 183.167,146.5 184.5,146.5C 184.649,147.552 184.483,148.552 184,149.5C 182.513,150.155 181.347,151.155 180.5,152.5C 184.928,158.69 188.262,165.356 190.5,172.5C 189.178,172.67 188.011,172.337 187,171.5C 183.96,165.918 180.793,160.418 177.5,155C 175.331,154.571 173.331,155.071 171.5,156.5C 170.5,156.167 169.833,155.5 169.5,154.5C 173.019,151.579 176.686,148.913 180.5,146.5 Z"/></g>
<g><path style="opacity:1" fill="#7d3951" d="M 158.5,157.5 C 159.833,157.5 161.167,157.5 162.5,157.5C 161.323,160.038 159.656,162.371 157.5,164.5C 157.977,165.478 158.643,166.311 159.5,167C 162.576,167.346 165.576,168.012 168.5,169C 173.517,170.332 175.684,173.499 175,178.5C 172.543,183.186 168.877,184.519 164,182.5C 163.383,181.551 163.549,180.718 164.5,180C 167.557,180.107 169.891,178.94 171.5,176.5C 168.159,172.5 163.825,170.667 158.5,171C 153.941,168.717 152.608,165.217 154.5,160.5C 155.262,158.738 156.596,157.738 158.5,157.5 Z"/></g>
<g><path style="opacity:1" fill="#0c0c0c" d="M 230.5,159.5 C 291.383,155.969 334.55,181.636 360,236.5C 376.615,288.115 365.782,332.948 327.5,371C 294.195,398.074 256.528,406.741 214.5,397C 173.59,384.424 146.09,357.924 132,317.5C 116.549,257.495 134.383,210.328 185.5,176C 199.641,167.79 214.641,162.29 230.5,159.5 Z"/></g>
<g><path style="opacity:1" fill="#79334c" d="M 336.5,157.5 C 338.754,158.124 340.421,159.457 341.5,161.5C 337.572,168.786 333.738,176.12 330,183.5C 328.72,183.387 327.887,182.72 327.5,181.5C 330.162,178.441 329.829,175.941 326.5,174C 324.533,174.24 322.7,175.073 321,176.5C 319.72,176.387 318.887,175.72 318.5,174.5C 320.734,172.619 322.067,170.285 322.5,167.5C 323.873,167.657 325.207,167.49 326.5,167C 329.167,165 331.833,163 334.5,161C 335.823,160.184 336.489,159.017 336.5,157.5 Z"/></g>
<g><path style="opacity:1" fill="#fdfdfd" d="M 233.5,165.5 C 282.054,162.527 319.554,181.194 346,221.5C 366.323,259.939 366.656,298.605 347,337.5C 320.94,378.449 283.44,397.616 234.5,395C 185.525,387.345 153.025,360.179 137,313.5C 123.439,256.158 141.272,211.658 190.5,180C 204.049,172.428 218.383,167.595 233.5,165.5 Z"/></g>
<g><path style="opacity:1" fill="#e9dde1" d="M 332.5,166.5 C 333.629,168.666 333.129,170.666 331,172.5C 330.075,171.953 329.242,171.287 328.5,170.5C 330.188,169.479 331.521,168.145 332.5,166.5 Z"/></g>
<g><path style="opacity:1" fill="#7b354e" d="M 144.5,170.5 C 145.552,170.351 146.552,170.517 147.5,171C 152.3,176.802 157.467,182.302 163,187.5C 163.301,190.091 162.134,190.925 159.5,190C 155.033,184.532 150.2,179.365 145,174.5C 144.51,173.207 144.343,171.873 144.5,170.5 Z"/></g>
<g><path style="opacity:1" fill="#7a354d" d="M 348.5,172.5 C 352.981,174.459 356.815,177.459 360,181.5C 360.49,182.793 360.657,184.127 360.5,185.5C 358.071,185.415 356.071,184.415 354.5,182.5C 349.348,187.152 344.348,191.985 339.5,197C 336.909,197.301 336.075,196.134 337,193.5C 342.5,189.333 347.333,184.5 351.5,179C 349.081,177.491 348.081,175.325 348.5,172.5 Z"/></g>
<g><path style="opacity:1" fill="#7a354d" d="M 136.5,177.5 C 137.995,177.415 138.995,178.081 139.5,179.5C 138.167,181.167 136.833,182.833 135.5,184.5C 135.977,185.478 136.643,186.311 137.5,187C 141.5,187.333 145.5,187.667 149.5,188C 156.649,191.232 157.316,195.565 151.5,201C 150.128,201.402 148.795,201.902 147.5,202.5C 146.28,202.113 145.613,201.28 145.5,200C 146.954,198.287 148.788,197.12 151,196.5C 151.711,194.633 151.211,193.133 149.5,192C 145.167,191.667 140.833,191.333 136.5,191C 132.708,188.947 131.542,185.781 133,181.5C 133.69,179.65 134.856,178.316 136.5,177.5 Z"/></g>
<g><path style="opacity:1" fill="#7c3850" d="M 369.5,189.5 C 369.738,191.404 370.738,192.738 372.5,193.5C 373.933,195.558 374.6,197.892 374.5,200.5C 373.448,200.649 372.448,200.483 371.5,200C 370.378,197.876 368.878,196.043 367,194.5C 365.365,195.726 363.865,197.059 362.5,198.5C 363.752,200.001 364.752,201.668 365.5,203.5C 364.965,205.101 363.965,205.601 362.5,205C 359.704,200.563 356.704,200.397 353.5,204.5C 355.372,206.535 357.039,208.702 358.5,211C 358.387,212.28 357.72,213.113 356.5,213.5C 353.516,211.016 350.682,208.35 348,205.5C 347.316,204.216 347.483,203.049 348.5,202C 354.844,198.496 360.844,194.496 366.5,190C 367.448,189.517 368.448,189.351 369.5,189.5 Z"/></g>
<g><path style="opacity:1" fill="#dbd3d6" d="M 369.5,189.5 C 371.262,190.262 372.262,191.596 372.5,193.5C 370.738,192.738 369.738,191.404 369.5,189.5 Z"/></g>
<g><path style="opacity:1" fill="#a1a1a1" d="M 130.5,196.5 C 133.09,197.128 135.423,198.295 137.5,200C 135.837,200.265 134.337,199.765 133,198.5C 133.194,203.759 135.527,204.759 140,201.5C 140.507,203.835 139.84,205.835 138,207.5C 137.383,206.551 137.549,205.718 138.5,205C 137.207,204.51 135.873,204.343 134.5,204.5C 134.271,206.433 133.438,208.1 132,209.5C 129.133,209.434 126.3,209.434 123.5,209.5C 124.083,207.998 124.916,206.665 126,205.5C 125.923,206.738 126.089,207.738 126.5,208.5C 129.056,207.949 131.389,206.949 133.5,205.5C 132.037,202.643 131.037,199.643 130.5,196.5 Z"/></g>
<g><path style="opacity:1" fill="#752d47" d="M 236.5,204.5 C 251.117,202.767 264.117,206.434 275.5,215.5C 277.539,213.258 279.205,210.758 280.5,208C 282.134,207.506 283.801,207.34 285.5,207.5C 286.194,219.154 286.527,230.82 286.5,242.5C 283.881,242.768 281.381,242.435 279,241.5C 270.004,216.419 253.171,208.919 228.5,219C 221.432,225.036 219.099,232.536 221.5,241.5C 215.202,242.496 208.868,242.83 202.5,242.5C 205.088,221.916 216.422,209.249 236.5,204.5 Z"/></g>
<g><path style="opacity:1" fill="#79334b" d="M 375.5,208.5 C 377.948,208.01 379.615,208.843 380.5,211C 377.75,215.588 374.417,219.755 370.5,223.5C 370.833,223.833 371.167,224.167 371.5,224.5C 375.936,221.948 380.603,219.948 385.5,218.5C 385.67,219.822 385.337,220.989 384.5,222C 377.242,226.3 369.576,229.466 361.5,231.5C 361.343,230.127 361.51,228.793 362,227.5C 364.98,223.686 368.146,220.019 371.5,216.5C 371.333,216.167 371.167,215.833 371,215.5C 366.511,218.384 361.678,220.384 356.5,221.5C 356.33,220.178 356.663,219.011 357.5,218C 363.72,215.059 369.72,211.892 375.5,208.5 Z"/></g>
<g><path style="opacity:1" fill="#79334c" d="M 110.5,216.5 C 111.5,216.5 112.5,216.5 113.5,216.5C 113.318,218.675 112.651,220.675 111.5,222.5C 111.608,223.442 111.941,224.275 112.5,225C 116.776,224.308 121.109,223.475 125.5,222.5C 132.38,222.546 134.88,225.88 133,232.5C 131.285,235.397 128.785,236.731 125.5,236.5C 125.662,234.176 126.828,232.509 129,231.5C 130.272,227.771 128.939,226.104 125,226.5C 122.268,226.615 119.768,227.448 117.5,229C 111.974,230.32 108.641,228.153 107.5,222.5C 107.984,220.199 108.984,218.199 110.5,216.5 Z"/></g>
<g><path style="opacity:1" fill="#773049" d="M 376.5,231.5 C 379.85,231.335 383.183,231.502 386.5,232C 391.575,234.116 392.741,237.616 390,242.5C 388.989,243.337 387.822,243.67 386.5,243.5C 387.167,241.181 387.334,238.847 387,236.5C 381.104,234.555 375.771,235.555 371,239.5C 370.333,240.833 370.333,242.167 371,243.5C 377.034,246.228 376.867,247.728 370.5,248C 366.874,245.749 365.707,242.582 367,238.5C 369.79,235.535 372.957,233.202 376.5,231.5 Z"/></g>
<g><path style="opacity:1" fill="#7c374f" d="M 102.5,236.5 C 104.252,236.418 105.252,237.251 105.5,239C 102.985,244.917 104.652,247.083 110.5,245.5C 111.246,244.264 111.579,242.93 111.5,241.5C 112.833,241.5 114.167,241.5 115.5,241.5C 115.192,243.924 115.526,246.257 116.5,248.5C 118.071,249.309 119.738,249.643 121.5,249.5C 121.337,247.143 121.503,244.81 122,242.5C 122.71,241.027 123.876,240.36 125.5,240.5C 125.666,244.846 125.499,249.179 125,253.5C 124.275,254.059 123.442,254.392 122.5,254.5C 115.209,252.375 107.876,250.375 100.5,248.5C 99.8541,244.375 100.521,240.375 102.5,236.5 Z"/></g>
<g><path style="opacity:1" fill="#7e3a51" d="M 389.5,249.5 C 391.167,249.5 392.833,249.5 394.5,249.5C 394.5,250.833 394.5,252.167 394.5,253.5C 386.249,255.35 377.915,256.684 369.5,257.5C 369.33,256.178 369.663,255.011 370.5,254C 377.006,252.67 383.339,251.17 389.5,249.5 Z"/></g>
<g><path style="opacity:1" fill="#762f48" d="M 215.5,257.5 C 216.978,257.238 218.311,257.571 219.5,258.5C 224.236,269.874 229.069,281.208 234,292.5C 235.42,294.422 237.253,295.755 239.5,296.5C 233.167,297.833 226.833,297.833 220.5,296.5C 225.624,295.637 226.791,292.97 224,288.5C 223.626,287.584 223.126,286.75 222.5,286C 217.833,285.333 213.167,285.333 208.5,286C 206.635,288.588 205.802,291.422 206,294.5C 207.509,295.09 209.009,295.756 210.5,296.5C 205.833,297.833 201.167,297.833 196.5,296.5C 198.422,295.289 200.255,293.956 202,292.5C 206.605,280.849 211.105,269.182 215.5,257.5 Z"/></g>
<g><path style="opacity:1" fill="#77304a" d="M 253.5,258.5 C 260.171,257.757 266.504,258.757 272.5,261.5C 273.386,260.675 273.719,259.675 273.5,258.5C 274.5,258.5 275.5,258.5 276.5,258.5C 276.393,262.917 275.726,267.251 274.5,271.5C 272.869,268.404 270.869,265.57 268.5,263C 256.063,259.587 249.73,264.421 249.5,277.5C 249.665,292.519 256.665,297.352 270.5,292C 272.893,289.358 274.893,286.525 276.5,283.5C 277.493,288.12 277.827,292.786 277.5,297.5C 276.5,297.5 275.5,297.5 274.5,297.5C 274.657,296.127 274.49,294.793 274,293.5C 272.2,295.317 270.034,296.484 267.5,297C 248.874,300.035 240.04,292.202 241,273.5C 243.211,266.796 247.378,261.796 253.5,258.5 Z"/></g>
<g><path style="opacity:1" fill="#722944" d="M 282.5,258.5 C 288.206,258.171 293.872,258.505 299.5,259.5C 297.807,260.228 296.307,261.228 295,262.5C 294.333,272.833 294.333,283.167 295,293.5C 296.307,294.772 297.807,295.772 299.5,296.5C 293.5,297.833 287.5,297.833 281.5,296.5C 283.805,295.769 285.638,294.436 287,292.5C 287.667,282.833 287.667,273.167 287,263.5C 285.287,261.924 283.787,260.257 282.5,258.5 Z"/></g>
<g><path style="opacity:1" fill="#7a344d" d="M 120.5,258.5 C 121.496,258.414 122.329,258.748 123,259.5C 123.263,263.835 123.097,268.168 122.5,272.5C 113.806,271.762 105.14,270.762 96.5,269.5C 96.5,268.167 96.5,266.833 96.5,265.5C 104.153,266.582 111.82,267.582 119.5,268.5C 119.342,265.098 119.676,261.764 120.5,258.5 Z"/></g>
<g><path style="opacity:1" fill="#7b364e" d="M 381.5,260.5 C 387.279,259.708 392.446,261.041 397,264.5C 397.495,266.473 397.662,268.473 397.5,270.5C 394.562,271.628 391.562,272.795 388.5,274C 383.713,274.879 379.047,274.545 374.5,273C 372.813,271.087 372.313,268.92 373,266.5C 375.322,263.605 378.155,261.605 381.5,260.5 Z"/></g>
<g><path style="opacity:1" fill="#f5f0f2" d="M 382.5,264.5 C 386.544,263.958 390.211,264.791 393.5,267C 388.638,270.224 383.304,271.224 377.5,270C 376.549,269.282 376.383,268.449 377,267.5C 378.876,266.391 380.709,265.391 382.5,264.5 Z"/></g>
<g><path style="opacity:1" fill="#f6f1f3" d="M 214.5,267.5 C 215.497,267.47 216.164,267.97 216.5,269C 218.028,273.223 219.695,277.39 221.5,281.5C 217.5,282.833 213.5,282.833 209.5,281.5C 211.745,277.017 213.411,272.35 214.5,267.5 Z"/></g>
<g><path style="opacity:1" fill="#78324b" d="M 115.5,277.5 C 117.167,277.5 118.833,277.5 120.5,277.5C 120.254,280.47 118.588,281.803 115.5,281.5C 115.5,283.833 115.5,286.167 115.5,288.5C 117.199,288.34 118.866,288.506 120.5,289C 121.833,290 121.833,291 120.5,292C 112.796,291.66 105.13,290.326 97.5,288C 94.8333,286.333 94.8333,284.667 97.5,283C 103.695,281.457 109.695,279.623 115.5,277.5 Z"/></g>
<g><path style="opacity:1" fill="#7a344d" d="M 371.5,280.5 C 380.2,280.289 388.867,280.623 397.5,281.5C 397.762,282.978 397.429,284.311 396.5,285.5C 391.093,287.578 385.759,289.745 380.5,292C 385.833,292.333 391.167,292.667 396.5,293C 397.337,294.011 397.67,295.178 397.5,296.5C 389.114,296.787 380.781,296.287 372.5,295C 370.606,293.921 370.273,292.587 371.5,291C 376.833,289 382.167,287 387.5,285C 382.53,284.114 377.53,283.448 372.5,283C 371.748,282.329 371.414,281.496 371.5,280.5 Z"/></g>
<g><path style="opacity:1" fill="#d3bcc4" d="M 108.5,283.5 C 109.5,283.5 110.5,283.5 111.5,283.5C 111.5,284.833 111.5,286.167 111.5,287.5C 109.304,287.435 107.304,286.768 105.5,285.5C 106.602,284.824 107.602,284.158 108.5,283.5 Z"/></g>
<g><path style="opacity:1" fill="#79334c" d="M 115.5,297.5 C 118.5,297.5 121.5,297.5 124.5,297.5C 124.607,299.903 123.607,301.736 121.5,303C 118.167,305.333 114.833,307.667 111.5,310C 116.42,309.467 121.42,308.967 126.5,308.5C 126.67,309.822 126.337,310.989 125.5,312C 117.576,313.752 109.576,314.919 101.5,315.5C 101.286,313.856 101.62,312.356 102.5,311C 107.008,308.247 111.341,305.247 115.5,302C 109.96,303.137 104.294,303.97 98.5,304.5C 98.33,303.178 98.6634,302.011 99.5,301C 104.954,299.745 110.287,298.578 115.5,297.5 Z"/></g>
<g><path style="opacity:1" fill="#742c46" d="M 197.5,310.5 C 199.833,310.5 202.167,310.5 204.5,310.5C 209.302,332.798 223.136,344.464 246,345.5C 256.548,346.121 265.548,342.788 273,335.5C 277.802,327.869 278.635,319.869 275.5,311.5C 283.138,310.503 290.804,310.169 298.5,310.5C 296.172,337.329 281.505,352.162 254.5,355C 237.623,357.428 222.623,353.261 209.5,342.5C 207.333,344.83 205.666,347.497 204.5,350.5C 202.955,351.452 201.288,351.785 199.5,351.5C 198.599,337.846 197.932,324.18 197.5,310.5 Z"/></g>
<g><path style="opacity:1" fill="#79334c" d="M 367.5,312.5 C 375.58,314.414 383.58,316.747 391.5,319.5C 391.641,326.053 388.307,330.053 381.5,331.5C 371.351,329.039 366.684,322.705 367.5,312.5 Z"/></g>
<g><path style="opacity:1" fill="#f5f0f2" d="M 370.5,316.5 C 375.985,318.773 381.652,320.439 387.5,321.5C 386.774,326.037 384.107,327.87 379.5,327C 374.512,325.18 371.512,321.68 370.5,316.5 Z"/></g>
<g><path style="opacity:1" fill="#7a344d" d="M 116.5,318.5 C 120.308,318.163 123.974,318.663 127.5,320C 129.984,322.284 130.151,324.784 128,327.5C 122.187,333.328 115.353,335.161 107.5,333C 105.203,331.737 104.37,329.903 105,327.5C 108.449,323.877 112.283,320.877 116.5,318.5 Z"/></g>
<g><path style="opacity:1" fill="#f5f0f1" d="M 117.5,322.5 C 125.374,321.452 126.708,323.285 121.5,328C 117.693,330.33 113.693,330.83 109.5,329.5C 111.595,326.398 114.262,324.065 117.5,322.5 Z"/></g>
<g><path style="opacity:1" fill="#79334c" d="M 362.5,330.5 C 370.136,333.734 377.636,337.4 385,341.5C 384.376,344.866 383.209,348.199 381.5,351.5C 380.675,352.386 379.675,352.719 378.5,352.5C 378.548,349.687 379.215,347.021 380.5,344.5C 376.953,339.768 374.287,339.935 372.5,345C 371.552,345.483 370.552,345.649 369.5,345.5C 369.851,343.131 370.018,340.797 370,338.5C 365.566,335.549 363.066,336.882 362.5,342.5C 361.675,343.386 360.675,343.719 359.5,343.5C 359.718,338.962 360.718,334.629 362.5,330.5 Z"/></g>
<g><path style="opacity:1" fill="#7a354d" d="M 131.5,332.5 C 134.694,332.176 135.694,333.342 134.5,336C 127.242,340.3 119.576,343.466 111.5,345.5C 111.33,344.178 111.663,343.011 112.5,342C 119.173,339.33 125.506,336.163 131.5,332.5 Z"/></g>
<g><path style="opacity:1" fill="#79334c" d="M 132.5,341.5 C 139.193,341.685 142.026,345.019 141,351.5C 135.456,360.576 128.122,362.909 119,358.5C 118.333,356.167 118.333,353.833 119,351.5C 120.011,350.663 121.178,350.33 122.5,350.5C 122.5,352.833 122.5,355.167 122.5,357.5C 128.194,357.547 133.027,355.547 137,351.5C 137.798,349.741 137.631,348.074 136.5,346.5C 134.435,346.047 132.768,345.047 131.5,343.5C 131.863,342.817 132.196,342.15 132.5,341.5 Z"/></g>
<g><path style="opacity:1" fill="#7b364f" d="M 143.5,358.5 C 154.347,358.806 156.347,363.306 149.5,372C 145.65,374.761 141.983,377.761 138.5,381C 137.552,381.483 136.552,381.649 135.5,381.5C 135.343,380.127 135.51,378.793 136,377.5C 140.333,373.833 144.667,370.167 149,366.5C 149.611,362.912 148.111,361.746 144.5,363C 140.534,365.964 136.867,369.297 133.5,373C 132.207,373.49 130.873,373.657 129.5,373.5C 129.351,372.448 129.517,371.448 130,370.5C 134.099,365.892 138.599,361.892 143.5,358.5 Z"/></g>
<g><path style="opacity:1" fill="#7c374f" d="M 344.5,359.5 C 354.152,360.154 360.152,365.154 362.5,374.5C 361.462,379.934 358.295,381.934 353,380.5C 352.383,379.551 352.549,378.718 353.5,378C 357.293,377.88 358.793,376.046 358,372.5C 355.292,366.725 350.958,364.058 345,364.5C 344.764,366.764 344.264,368.931 343.5,371C 342.551,371.617 341.718,371.451 341,370.5C 339.663,365.872 340.83,362.205 344.5,359.5 Z"/></g>
<g><path style="opacity:1" fill="#868686" d="M 264.5,367.5 C 265.808,371.019 265.808,374.685 264.5,378.5C 263.893,378.376 263.56,378.043 263.5,377.5C 264.479,374.375 264.813,371.042 264.5,367.5 Z"/></g>
<g><path style="opacity:1" fill="#565656" d="M 228.5,367.5 C 229.787,368.871 230.453,370.705 230.5,373C 230.167,374.833 229.833,376.667 229.5,378.5C 228.511,374.893 228.177,371.226 228.5,367.5 Z"/></g>
<g><path style="opacity:1" fill="#171717" d="M 240.5,367.5 C 246.158,366.679 247.825,368.846 245.5,374C 244.207,374.49 242.873,374.657 241.5,374.5C 241.657,375.873 241.49,377.207 241,378.5C 240.501,374.848 240.335,371.182 240.5,367.5 Z"/></g>
<g><path style="opacity:1" fill="#dedede" d="M 241.5,369.5 C 242.833,369.5 244.167,369.5 245.5,369.5C 245.5,370.5 245.5,371.5 245.5,372.5C 244.167,372.5 242.833,372.5 241.5,372.5C 241.5,371.5 241.5,370.5 241.5,369.5 Z"/></g>
<g><path style="opacity:1" fill="#1d1d1d" d="M 264.5,367.5 C 264.813,371.042 264.479,374.375 263.5,377.5C 261.527,376.194 259.861,374.527 258.5,372.5C 258.44,371.957 258.107,371.624 257.5,371.5C 256.526,373.743 256.192,376.076 256.5,378.5C 255.357,375.024 255.19,371.358 256,367.5C 258.333,369.833 260.667,372.167 263,374.5C 263.186,371.964 263.686,369.631 264.5,367.5 Z"/></g>
<g><path style="opacity:1" fill="#7a354d" d="M 163.5,371.5 C 164.5,371.5 165.5,371.5 166.5,371.5C 166.657,372.873 166.49,374.207 166,375.5C 161.645,380.354 157.478,385.354 153.5,390.5C 154.833,392.167 156.167,393.833 157.5,395.5C 156.652,397.283 155.319,397.783 153.5,397C 151.129,394.294 148.463,391.961 145.5,390C 143.963,388.89 143.297,387.39 143.5,385.5C 146.325,385.081 148.491,386.081 150,388.5C 154.508,382.803 159.008,377.136 163.5,371.5 Z"/></g>
<g><path style="opacity:1" fill="#767676" d="M 258.5,372.5 C 257.833,374.5 257.167,376.5 256.5,378.5C 256.192,376.076 256.526,373.743 257.5,371.5C 258.107,371.624 258.44,371.957 258.5,372.5 Z"/></g>
<g><path style="opacity:1" fill="#7a354d" d="M 330.5,374.5 C 340.224,374.89 345.89,379.89 347.5,389.5C 347.827,394.01 345.827,395.843 341.5,395C 334.383,392.218 329.716,387.218 327.5,380C 327.613,377.601 328.613,375.768 330.5,374.5 Z"/></g>
<g><path style="opacity:1" fill="#f8f4f5" d="M 331.5,378.5 C 339.113,379.607 342.946,383.941 343,391.5C 337.155,388.828 333.321,384.495 331.5,378.5 Z"/></g>
<g><path style="opacity:1" fill="#7b364e" d="M 174.5,382.5 C 175.5,382.5 176.5,382.5 177.5,382.5C 177.657,383.873 177.49,385.207 177,386.5C 172.943,391.558 169.276,396.892 166,402.5C 164.89,404.037 163.39,404.703 161.5,404.5C 161.343,403.127 161.51,401.793 162,400.5C 166.423,394.645 170.59,388.645 174.5,382.5 Z"/></g>
<g><path style="opacity:1" fill="#79334b" d="M 318.5,381.5 C 319.675,381.281 320.675,381.614 321.5,382.5C 325.335,389.508 329.669,396.174 334.5,402.5C 330.767,407.4 326.1,408.567 320.5,406C 317.52,402.953 316.853,399.453 318.5,395.5C 315.226,394.53 312.226,393.03 309.5,391C 308.663,389.989 308.33,388.822 308.5,387.5C 312.203,388.508 315.87,389.842 319.5,391.5C 320.167,391.167 320.833,390.833 321.5,390.5C 320.42,388.004 319.086,385.67 317.5,383.5C 317.863,382.817 318.196,382.15 318.5,381.5 Z"/></g>
<g><path style="opacity:1" fill="#78324b" d="M 186.5,388.5 C 187.833,388.5 189.167,388.5 190.5,388.5C 187.532,395.109 184.532,401.775 181.5,408.5C 181.833,410.167 182.833,411.167 184.5,411.5C 185.429,412.689 185.762,414.022 185.5,415.5C 179.768,414.135 174.768,411.468 170.5,407.5C 170.833,406.5 171.5,405.833 172.5,405.5C 174.169,406.89 175.836,407.223 177.5,406.5C 180.527,400.447 183.527,394.447 186.5,388.5 Z"/></g>
<g><path style="opacity:1" fill="#79334c" d="M 301.5,391.5 C 302.978,391.238 304.311,391.571 305.5,392.5C 309.361,399.879 312.361,407.546 314.5,415.5C 306.118,419.979 300.784,417.645 298.5,408.5C 298.529,406.971 299.196,405.804 300.5,405C 297.577,402.955 294.743,400.788 292,398.5C 291.517,397.552 291.351,396.552 291.5,395.5C 292.873,395.343 294.207,395.51 295.5,396C 297.759,399.476 300.759,400.642 304.5,399.5C 302.924,397.021 301.924,394.354 301.5,391.5 Z"/></g>
<g><path style="opacity:1" fill="#f6f2f3" d="M 322.5,396.5 C 326.757,396.902 328.424,399.069 327.5,403C 322.262,403.594 320.595,401.427 322.5,396.5 Z"/></g>
<g><path style="opacity:1" fill="#7c3850" d="M 200.5,397.5 C 206.178,396.339 210.178,398.339 212.5,403.5C 212.167,404.5 211.5,405.167 210.5,405.5C 209.019,404.52 207.685,403.353 206.5,402C 204.888,401.28 203.388,401.446 202,402.5C 202.239,407.387 203.406,412.054 205.5,416.5C 204.72,422.398 201.387,424.565 195.5,423C 193.137,422.411 192.137,420.911 192.5,418.5C 195.417,419.291 198.25,419.291 201,418.5C 201.667,417.167 201.667,415.833 201,414.5C 196.677,408.825 196.511,403.158 200.5,397.5 Z"/></g>
<g><path style="opacity:1" fill="#7b364e" d="M 285.5,399.5 C 286.496,399.414 287.329,399.748 288,400.5C 289.964,408.059 292.131,415.559 294.5,423C 294.355,423.772 294.022,424.439 293.5,425C 289.888,426.15 286.222,426.983 282.5,427.5C 282.33,426.178 282.663,425.011 283.5,424C 289.178,423.444 290.844,420.61 288.5,415.5C 286.801,415.62 285.135,415.954 283.5,416.5C 282,416.547 281,415.881 280.5,414.5C 282.71,413.234 284.71,411.734 286.5,410C 285.852,408.56 285.519,407.06 285.5,405.5C 282.211,406.374 278.877,407.041 275.5,407.5C 275.33,406.178 275.663,405.011 276.5,404C 279.84,402.997 282.84,401.497 285.5,399.5 Z"/></g>
<g><path style="opacity:1" fill="#7a354d" d="M 217.5,401.5 C 218.822,401.33 219.989,401.663 221,402.5C 222.546,407.768 223.879,413.101 225,418.5C 226.317,413.9 227.317,409.234 228,404.5C 229.011,403.663 230.178,403.33 231.5,403.5C 230.511,411.918 229.011,420.252 227,428.5C 225.413,429.727 224.079,429.394 223,427.5C 221.665,422.142 220.331,416.809 219,411.5C 217.744,416.448 216.744,421.448 216,426.5C 214.989,427.337 213.822,427.67 212.5,427.5C 212.892,418.543 214.558,409.876 217.5,401.5 Z"/></g>
<g><path style="opacity:1" fill="#7c374f" d="M 236.5,404.5 C 237.5,404.5 238.5,404.5 239.5,404.5C 239.19,412.841 238.69,421.174 238,429.5C 237,430.833 236,430.833 235,429.5C 234.216,421.044 234.716,412.711 236.5,404.5 Z"/></g>
<g><path style="opacity:1" fill="#7a344d" d="M 261.5,405.5 C 267.404,404.894 270.904,407.561 272,413.5C 272.81,418.257 272.476,422.924 271,427.5C 268.521,430.683 265.854,431.016 263,428.5C 257.864,420.903 257.364,413.237 261.5,405.5 Z"/></g>
<g><path style="opacity:1" fill="#f6f1f2" d="M 304.5,406.5 C 307.835,407.461 309.501,409.794 309.5,413.5C 303.238,413.944 301.571,411.611 304.5,406.5 Z"/></g>
<g><path style="opacity:1" fill="#f9f6f7" d="M 262.5,409.5 C 265.292,409.452 267.125,410.785 268,413.5C 268.667,417.167 268.667,420.833 268,424.5C 267.586,424.957 267.086,425.291 266.5,425.5C 263.076,420.734 261.743,415.401 262.5,409.5 Z"/></g>
</svg>
