<?xml version="1.0" encoding="UTF-8"?>
<!DOCTYPE svg PUBLIC "-//W3C//DTD SVG 1.1//EN" "http://www.w3.org/Graphics/SVG/1.1/DTD/svg11.dtd">
<svg xmlns="http://www.w3.org/2000/svg" version="1.1" width="500px" height="500px" style="shape-rendering:geometricPrecision; text-rendering:geometricPrecision; image-rendering:optimizeQuality; fill-rule:evenodd; clip-rule:evenodd" xmlns:xlink="http://www.w3.org/1999/xlink">
<g><path style="opacity:1" fill="#000000" d="M -0.5,-0.5 C 166.167,-0.5 332.833,-0.5 499.5,-0.5C 499.5,166.167 499.5,332.833 499.5,499.5C 332.833,499.5 166.167,499.5 -0.5,499.5C -0.5,332.833 -0.5,166.167 -0.5,-0.5 Z"/></g>
<g><path style="opacity:1" fill="#d09574" d="M 231.5,117.5 C 301.653,113.655 355.153,141.322 392,200.5C 417.475,249.683 419.141,299.683 397,350.5C 371.985,399.502 332.485,429.668 278.5,441C 202.905,450.614 145.405,423.114 106,358.5C 79.7278,305.637 80.0612,252.97 107,200.5C 135.268,153.078 176.768,125.412 231.5,117.5 Z"/></g>
<g><path style="opacity:1" fill="#f0f0f6" d="M 232.5,123.5 C 299.389,120.19 350.556,146.523 386,202.5C 412.961,253.632 413.295,304.966 387,356.5C 353.414,411.385 304.248,438.218 239.5,437C 183.237,431.697 140.737,404.864 112,356.5C 81.5386,294.456 86.872,235.789 128,180.5C 155.688,148.57 190.521,129.57 232.5,123.5 Z"/></g>
<g><path style="opacity:1" fill="#6c354b" d="M 247.5,127.5 C 249.017,127.511 250.184,128.177 251,129.5C 253.464,137.355 255.297,145.355 256.5,153.5C 255.178,153.67 254.011,153.337 253,152.5C 252.618,147.975 250.118,146.309 245.5,147.5C 246.401,151.241 245.068,153.241 241.5,153.5C 241.928,144.457 243.928,135.791 247.5,127.5 Z"/></g>
<g><path style="opacity:1" fill="#6a3249" d="M 228.5,130.5 C 231.05,130.561 232.55,131.894 233,134.5C 234.882,141.467 236.215,148.467 237,155.5C 236,156.833 235,156.833 234,155.5C 232.791,150.452 231.458,145.452 230,140.5C 229.088,142.659 228.255,144.825 227.5,147C 224.692,147.92 222.525,147.087 221,144.5C 220.946,148.523 221.446,152.523 222.5,156.5C 222.292,159.185 221.125,159.851 219,158.5C 217.61,150.383 215.777,142.383 213.5,134.5C 214.348,132.717 215.681,132.217 217.5,133C 220,136.167 222.5,139.333 225,142.5C 225.484,138.206 226.651,134.206 228.5,130.5 Z"/></g>
<g><path style="opacity:1" fill="#693147" d="M 280.5,132.5 C 294.531,137.49 296.197,145.323 285.5,156C 282.077,157.904 278.41,158.737 274.5,158.5C 275.86,149.664 277.86,140.997 280.5,132.5 Z"/></g>
<g><path style="opacity:1" fill="#6b344a" d="M 201.5,135.5 C 203.346,135.222 204.68,135.889 205.5,137.5C 203.174,139.331 200.841,141.165 198.5,143C 198.938,144.92 199.605,146.754 200.5,148.5C 201.941,147.696 203.441,147.029 205,146.5C 206.28,146.613 207.113,147.28 207.5,148.5C 205.597,149.947 203.93,151.614 202.5,153.5C 202.776,155.33 203.443,156.997 204.5,158.5C 207.028,156.126 210.028,155.126 213.5,155.5C 213.719,156.675 213.386,157.675 212.5,158.5C 208.868,161.152 204.868,162.819 200.5,163.5C 198.879,155.801 196.545,148.301 193.5,141C 193.645,140.228 193.978,139.561 194.5,139C 197.174,138.33 199.507,137.163 201.5,135.5 Z"/></g>
<g><path style="opacity:1" fill="#e9e6ed" d="M 282.5,137.5 C 287.824,138.33 289.658,141.33 288,146.5C 286.434,151.494 283.268,153.827 278.5,153.5C 280.149,148.238 281.482,142.904 282.5,137.5 Z"/></g>
<g><path style="opacity:1" fill="#6a3249" d="M 302.5,138.5 C 306.671,139.217 310.338,140.883 313.5,143.5C 313.113,144.72 312.28,145.387 311,145.5C 305.628,141.944 302.961,143.277 303,149.5C 306.094,149.793 307.594,151.459 307.5,154.5C 304.833,154.167 302.167,153.833 299.5,153.5C 299.528,155.582 298.861,157.416 297.5,159C 300.172,159.834 302.839,160.668 305.5,161.5C 306.386,162.325 306.719,163.325 306.5,164.5C 302.44,164.515 298.44,164.015 294.5,163C 293.643,162.311 292.977,161.478 292.5,160.5C 295.848,153.141 299.181,145.807 302.5,138.5 Z"/></g>
<g><path style="opacity:1" fill="#ecebf2" d="M 248.5,138.5 C 249.234,139.878 249.901,141.378 250.5,143C 249.552,143.483 248.552,143.649 247.5,143.5C 247.366,141.708 247.699,140.042 248.5,138.5 Z"/></g>
<g><path style="opacity:1" fill="#6a3249" d="M 184.5,145.5 C 185.995,145.415 186.995,146.081 187.5,147.5C 186.252,149.459 184.585,150.959 182.5,152C 186.544,157.919 190.211,164.086 193.5,170.5C 192.112,173.079 190.612,173.079 189,170.5C 185.919,164.669 182.585,159.002 179,153.5C 177.103,155.016 174.936,155.683 172.5,155.5C 172.33,154.178 172.663,153.011 173.5,152C 177.56,150.311 181.227,148.144 184.5,145.5 Z"/></g>
<g><path style="opacity:1" fill="#6a3349" d="M 160.5,157.5 C 161.833,157.5 163.167,157.5 164.5,157.5C 164.338,159.824 163.172,161.491 161,162.5C 160.333,163.5 160.333,164.5 161,165.5C 165.943,166.797 170.776,168.63 175.5,171C 179.338,179.178 176.671,183.178 167.5,183C 166.663,181.989 166.33,180.822 166.5,179.5C 169.885,180.21 172.219,179.044 173.5,176C 172.48,173.974 170.813,172.641 168.5,172C 164.511,172.107 161.011,170.941 158,168.5C 155.6,163.99 156.433,160.323 160.5,157.5 Z"/></g>
<g><path style="opacity:1" fill="#693148" d="M 339.5,158.5 C 340.5,158.5 341.5,158.5 342.5,158.5C 340.519,166.796 337.686,174.796 334,182.5C 332.989,183.337 331.822,183.67 330.5,183.5C 330.511,181.453 330.844,179.453 331.5,177.5C 331.471,175.971 330.804,174.804 329.5,174C 326.802,174.484 324.135,175.317 321.5,176.5C 321.343,175.127 321.51,173.793 322,172.5C 327.698,167.725 333.531,163.059 339.5,158.5 Z"/></g>
<g><path style="opacity:1" fill="#d59876" d="M 192.5,387.5 C 144.733,358.296 123.9,315.629 130,259.5C 143.168,202.999 178.334,169.832 235.5,160C 291.337,156.99 332.504,179.823 359,228.5C 378.372,275.164 372.705,318.497 342,358.5C 306.649,396.056 263.815,408.556 213.5,396C 206.276,393.649 199.276,390.816 192.5,387.5 Z"/></g>
<g><path style="opacity:1" fill="#fdfdfd" d="M 234.5,165.5 C 294.779,162.7 336.279,189.034 359,244.5C 371.762,291.96 360.595,332.793 325.5,367C 284.47,399.05 240.47,403.717 193.5,381C 151.135,354.775 131.635,316.608 135,266.5C 145.91,210.757 179.077,177.091 234.5,165.5 Z"/></g>
<g><path style="opacity:1" fill="#ded7e0" d="M 334.5,166.5 C 335.239,166.369 335.906,166.536 336.5,167C 335.406,168.78 334.406,170.614 333.5,172.5C 332.5,172.167 331.833,171.5 331.5,170.5C 332.524,169.148 333.524,167.815 334.5,166.5 Z"/></g>
<g><path style="opacity:1" fill="#6b344a" d="M 146.5,170.5 C 147.552,170.351 148.552,170.517 149.5,171C 155.387,176.384 160.72,182.217 165.5,188.5C 164.965,190.101 163.965,190.601 162.5,190C 155.759,184.448 150.426,177.948 146.5,170.5 Z"/></g>
<g><path style="opacity:1" fill="#662d44" d="M 350.5,172.5 C 351.873,172.343 353.207,172.51 354.5,173C 357.313,176.647 360.313,180.147 363.5,183.5C 363.167,184.5 362.5,185.167 361.5,185.5C 359.851,184.352 358.351,183.019 357,181.5C 352.167,186.333 347.333,191.167 342.5,196C 341.552,196.483 340.552,196.649 339.5,196.5C 339.351,195.448 339.517,194.448 340,193.5C 344.833,188.667 349.667,183.833 354.5,179C 352.077,177.429 350.744,175.263 350.5,172.5 Z"/></g>
<g><path style="opacity:1" fill="#6c354b" d="M 138.5,177.5 C 139.5,177.5 140.5,177.5 141.5,177.5C 141.201,179.973 140.201,182.14 138.5,184C 138.645,184.772 138.978,185.439 139.5,186C 144.229,186.273 148.896,186.939 153.5,188C 157.292,190.053 158.458,193.219 157,197.5C 154.592,200.62 151.426,201.953 147.5,201.5C 147.433,198.234 149.099,196.734 152.5,197C 154.988,193.733 153.988,191.733 149.5,191C 145.5,190.667 141.5,190.333 137.5,190C 133.334,185.368 133.667,181.202 138.5,177.5 Z"/></g>
<g><path style="opacity:1" fill="#6a3148" d="M 369.5,189.5 C 373.332,191.168 375.999,194.001 377.5,198C 377.387,199.28 376.72,200.113 375.5,200.5C 373.96,198.613 372.293,196.78 370.5,195C 368.229,195.382 366.229,196.549 364.5,198.5C 366.415,200.071 367.415,202.071 367.5,204.5C 364.737,204.256 362.571,202.923 361,200.5C 359.167,201.667 357.333,202.833 355.5,204C 358.596,206.029 360.262,208.862 360.5,212.5C 356.698,211.221 353.531,208.888 351,205.5C 350.333,204.5 350.333,203.5 351,202.5C 357.346,198.304 363.513,193.97 369.5,189.5 Z"/></g>
<g><path style="opacity:1" fill="#dadada" d="M 234.5,191.5 C 244.839,191.334 255.172,191.5 265.5,192C 266.646,199.086 266.812,206.253 266,213.5C 255.243,214.653 244.41,214.82 233.5,214C 232.355,207.248 232.189,200.414 233,193.5C 233.717,192.956 234.217,192.289 234.5,191.5 Z"/></g>
<g><path style="opacity:1" fill="#fdfdfd" d="M 237.5,194.5 C 245.343,193.18 253.343,193.18 261.5,194.5C 257.849,198.652 254.016,202.652 250,206.5C 245.964,202.296 241.798,198.296 237.5,194.5 Z"/></g>
<g><path style="opacity:1" fill="#fdfdfd" d="M 234.5,194.5 C 237.964,197.462 241.297,200.629 244.5,204C 241.651,207.016 238.651,209.85 235.5,212.5C 234.504,206.537 234.171,200.537 234.5,194.5 Z"/></g>
<g><path style="opacity:1" fill="#fdfdfd" d="M 263.5,194.5 C 264.653,200.653 264.82,206.986 264,213.5C 260.833,210.333 257.667,207.167 254.5,204C 257.704,200.964 260.704,197.797 263.5,194.5 Z"/></g>
<g><path style="opacity:1" fill="#fefefe" d="M 245.5,205.5 C 246.815,206.476 248.148,207.476 249.5,208.5C 250.814,207.687 251.981,206.687 253,205.5C 255.5,208 258,210.5 260.5,213C 253.167,213.667 245.833,213.667 238.5,213C 241.039,210.63 243.372,208.13 245.5,205.5 Z"/></g>
<g><path style="opacity:1" fill="#693148" d="M 377.5,208.5 C 379.167,208.5 380.833,208.5 382.5,208.5C 380.484,214.65 376.817,219.816 371.5,224C 376.666,221.929 381.999,220.096 387.5,218.5C 387.67,219.822 387.337,220.989 386.5,222C 379.51,226.172 372.177,229.172 364.5,231C 363.483,229.951 363.316,228.784 364,227.5C 366.98,223.686 370.146,220.019 373.5,216.5C 373.167,216.167 372.833,215.833 372.5,215.5C 368.5,217.5 364.5,219.5 360.5,221.5C 358.899,220.965 358.399,219.965 359,218.5C 365.308,215.265 371.475,211.932 377.5,208.5 Z"/></g>
<g><path style="opacity:1" fill="#6a3349" d="M 112.5,216.5 C 113.833,216.5 115.167,216.5 116.5,216.5C 116.318,218.675 115.651,220.675 114.5,222.5C 114.608,223.442 114.941,224.275 115.5,225C 119.539,223.999 123.706,223.166 128,222.5C 136.77,223.542 138.603,227.709 133.5,235C 131.176,237.088 129.176,236.921 127.5,234.5C 130.56,232.981 132.06,230.648 132,227.5C 130.6,226.884 129.1,226.551 127.5,226.5C 122.968,228.15 118.301,228.65 113.5,228C 109.84,224.517 109.506,220.684 112.5,216.5 Z"/></g>
<g><path style="opacity:1" fill="#6b344a" d="M 378.5,231.5 C 382.967,231.133 387.3,231.633 391.5,233C 393.478,235.497 393.978,238.331 393,241.5C 391.388,244.079 389.888,244.079 388.5,241.5C 389.348,239.591 389.682,237.591 389.5,235.5C 382.984,234.237 377.484,235.904 373,240.5C 373.086,242.943 374.419,244.61 377,245.5C 377.483,246.448 377.649,247.448 377.5,248.5C 370.458,247.722 367.958,244.055 370,237.5C 372.637,235.109 375.47,233.109 378.5,231.5 Z"/></g>
<g><path style="opacity:1" fill="#6e374d" d="M 104.5,236.5 C 105.5,236.5 106.5,236.5 107.5,236.5C 107.037,239.482 106.704,242.482 106.5,245.5C 108.861,245.674 111.194,246.007 113.5,246.5C 112.599,242.759 113.932,240.759 117.5,240.5C 117.5,243.167 117.5,245.833 117.5,248.5C 119.5,248.833 121.5,249.167 123.5,249.5C 123.337,247.143 123.503,244.81 124,242.5C 125.907,239.713 127.407,239.88 128.5,243C 127.904,246.718 127.238,250.384 126.5,254C 118.41,252.644 110.41,250.644 102.5,248C 102.042,244.107 102.708,240.274 104.5,236.5 Z"/></g>
<g><path style="opacity:1" fill="#757575" d="M 340.5,239.5 C 331.143,239.168 321.81,239.502 312.5,240.5C 314.631,241.169 316.631,241.835 318.5,242.5C 316.167,242.5 313.833,242.5 311.5,242.5C 311.5,241.167 311.5,239.833 311.5,238.5C 321.348,238.173 331.014,238.506 340.5,239.5 Z"/></g>
<g><path style="opacity:1" fill="#0a0a0a" d="M 317.5,255.5 C 318.72,257.284 318.72,258.95 317.5,260.5C 307.146,243.245 293.146,239.412 275.5,249C 262.284,261.37 257.451,276.537 261,294.5C 263.942,300.718 266.609,307.051 269,313.5C 279.094,327.089 291.594,329.922 306.5,322C 310.988,318.499 314.655,314.332 317.5,309.5C 318.72,311.05 318.72,312.716 317.5,314.5C 311.49,322.664 303.49,327.83 293.5,330C 279.837,330.5 266.171,330.667 252.5,330.5C 252.5,329.5 252.5,328.5 252.5,327.5C 254.604,327.799 256.604,327.466 258.5,326.5C 255.253,317.065 251.253,308.065 246.5,299.5C 240.987,298.184 235.32,298.184 229.5,299.5C 229.624,300.107 229.957,300.44 230.5,300.5C 233.059,312.323 229.726,322.156 220.5,330C 219.833,330.667 219.167,330.667 218.5,330C 223.968,320.763 223.801,311.596 218,302.5C 216.649,300.981 215.149,299.648 213.5,298.5C 212.201,299.09 211.368,300.09 211,301.5C 207.954,310.012 204.454,318.346 200.5,326.5C 201.325,327.386 202.325,327.719 203.5,327.5C 203.5,328.5 203.5,329.5 203.5,330.5C 199.5,330.5 195.5,330.5 191.5,330.5C 191.5,329.5 191.5,328.5 191.5,327.5C 192.822,327.67 193.989,327.337 195,326.5C 199.302,315.929 203.802,305.429 208.5,295C 200.205,288.847 191.538,283.18 182.5,278C 178.333,275.167 174.833,271.667 172,267.5C 170.456,260.916 170.123,254.249 171,247.5C 171.366,245.548 172.199,243.882 173.5,242.5C 174.167,245.167 174.833,247.833 175.5,250.5C 177.368,256.879 181.034,262.046 186.5,266C 194.998,271.75 203.664,277.25 212.5,282.5C 217.469,272.782 221.969,262.782 226,252.5C 226.494,247.809 224.994,243.809 221.5,240.5C 223.743,239.526 226.076,239.192 228.5,239.5C 228.338,241.527 228.505,243.527 229,245.5C 229.557,243.385 230.391,241.385 231.5,239.5C 233.695,238.231 235.861,238.231 238,239.5C 241.426,248.012 245.093,256.345 249,264.5C 259.346,243.08 276.179,235.247 299.5,241C 306.814,244.163 312.814,248.996 317.5,255.5 Z"/></g>
<g><path style="opacity:1" fill="#050505" d="M 340.5,239.5 C 340.5,240.5 340.5,241.5 340.5,242.5C 338.167,242.5 335.833,242.5 333.5,242.5C 333.5,270.833 333.5,299.167 333.5,327.5C 335.833,327.5 338.167,327.5 340.5,327.5C 340.5,328.5 340.5,329.5 340.5,330.5C 330.833,330.5 321.167,330.5 311.5,330.5C 311.5,329.5 311.5,328.5 311.5,327.5C 314.167,327.5 316.833,327.5 319.5,327.5C 319.831,298.995 319.498,270.662 318.5,242.5C 316.631,241.835 314.631,241.169 312.5,240.5C 321.81,239.502 331.143,239.168 340.5,239.5 Z"/></g>
<g><path style="opacity:1" fill="#444444" d="M 175.5,250.5 C 174.833,247.833 174.167,245.167 173.5,242.5C 174.072,241.027 174.905,239.693 176,238.5C 175.733,242.441 175.566,246.441 175.5,250.5 Z"/></g>
<g><path style="opacity:1" fill="#fcfcfc" d="M 317.5,260.5 C 318.833,276.833 318.833,293.167 317.5,309.5C 314.655,314.332 310.988,318.499 306.5,322C 291.594,329.922 279.094,327.089 269,313.5C 266.609,307.051 263.942,300.718 261,294.5C 257.451,276.537 262.284,261.37 275.5,249C 293.146,239.412 307.146,243.245 317.5,260.5 Z"/></g>
<g><path style="opacity:1" fill="#6b334a" d="M 392.5,249.5 C 393.873,249.343 395.207,249.51 396.5,250C 397.833,251 397.833,252 396.5,253C 389.316,254.421 382.15,255.921 375,257.5C 370.355,255.898 370.521,254.398 375.5,253C 381.412,252.385 387.079,251.218 392.5,249.5 Z"/></g>
<g><path style="opacity:1" fill="#6e384e" d="M 123.5,258.5 C 125.722,258.559 126.722,259.725 126.5,262C 126.015,265.411 125.348,268.744 124.5,272C 116.111,271.77 107.778,270.77 99.5,269C 98.6634,267.989 98.33,266.822 98.5,265.5C 105.911,265.983 113.244,266.983 120.5,268.5C 121.755,265.214 122.755,261.88 123.5,258.5 Z"/></g>
<g><path style="opacity:1" fill="#f5f5f5" d="M 228.5,258.5 C 229.376,258.369 230.043,258.702 230.5,259.5C 235.158,270.466 239.825,281.466 244.5,292.5C 238.193,293.664 231.859,293.831 225.5,293C 222.601,290.723 219.934,288.223 217.5,285.5C 221.444,276.612 225.111,267.612 228.5,258.5 Z"/></g>
<g><path style="opacity:1" fill="#6b3349" d="M 383.5,260.5 C 390.016,259.237 395.516,260.904 400,265.5C 400.667,266.833 400.667,268.167 400,269.5C 392.237,275.012 384.237,275.679 376,271.5C 375.096,265.563 377.596,261.896 383.5,260.5 Z"/></g>
<g><path style="opacity:1" fill="#8c8c8c" d="M 318.5,242.5 C 319.498,270.662 319.831,298.995 319.5,327.5C 316.833,327.5 314.167,327.5 311.5,327.5C 313.607,326.532 315.941,326.198 318.5,326.5C 318.817,322.298 318.483,318.298 317.5,314.5C 318.72,312.716 318.72,311.05 317.5,309.5C 318.833,293.167 318.833,276.833 317.5,260.5C 318.72,258.95 318.72,257.284 317.5,255.5C 318.485,251.366 318.818,247.032 318.5,242.5 Z"/></g>
<g><path style="opacity:1" fill="#ecebf2" d="M 383.5,264.5 C 386.85,264.335 390.183,264.502 393.5,265C 394.308,265.308 394.975,265.808 395.5,266.5C 394.221,268.146 392.555,269.313 390.5,270C 387.167,270.667 383.833,270.667 380.5,270C 379.549,269.282 379.383,268.449 380,267.5C 381.145,266.364 382.312,265.364 383.5,264.5 Z"/></g>
<g><path style="opacity:1" fill="#6b344a" d="M 119.5,276.5 C 121.346,276.222 122.68,276.889 123.5,278.5C 122.061,280.553 120.061,281.553 117.5,281.5C 117.5,283.5 117.5,285.5 117.5,287.5C 120.056,287.132 122.056,287.966 123.5,290C 123.355,290.772 123.022,291.439 122.5,292C 121.167,292.167 119.833,292.333 118.5,292.5C 112.604,290.703 106.604,289.203 100.5,288C 97.0847,286.857 96.7514,285.19 99.5,283C 106.443,281.11 113.11,278.944 119.5,276.5 Z"/></g>
<g><path style="opacity:1" fill="#6e384e" d="M 374.5,279.5 C 382.486,280.11 390.486,280.61 398.5,281C 400.592,281.953 400.925,283.286 399.5,285C 394.58,287.196 389.58,289.196 384.5,291C 389.453,291.995 394.453,292.662 399.5,293C 400.833,294 400.833,295 399.5,296C 391.474,296.522 383.474,296.189 375.5,295C 372.833,293.333 372.833,291.667 375.5,290C 380.167,288.333 384.833,286.667 389.5,285C 384.504,284.389 379.504,283.889 374.5,283.5C 374.5,282.167 374.5,280.833 374.5,279.5 Z"/></g>
<g><path style="opacity:1" fill="#e3dde6" d="M 110.5,283.5 C 111.5,283.5 112.5,283.5 113.5,283.5C 113.5,284.5 113.5,285.5 113.5,286.5C 111.25,286.819 109.25,286.319 107.5,285C 108.737,284.768 109.737,284.268 110.5,283.5 Z"/></g>
<g><path style="opacity:1" fill="#6c354b" d="M 120.5,296.5 C 122.527,296.338 124.527,296.505 126.5,297C 127.517,298.049 127.684,299.216 127,300.5C 122.5,303.667 118,306.833 113.5,310C 118.724,309.191 124.057,308.691 129.5,308.5C 129.5,309.5 129.5,310.5 129.5,311.5C 122.108,312.445 114.775,313.778 107.5,315.5C 104.054,315.739 103.054,314.406 104.5,311.5C 108.361,308.472 112.361,305.639 116.5,303C 111.935,302.676 107.435,303.176 103,304.5C 101.054,304.237 100.388,303.237 101,301.5C 107.539,299.6 114.039,297.933 120.5,296.5 Z"/></g>
<g><path style="opacity:1" fill="#818181" d="M 246.5,299.5 C 240.974,299.179 235.64,299.512 230.5,300.5C 229.957,300.44 229.624,300.107 229.5,299.5C 235.32,298.184 240.987,298.184 246.5,299.5 Z"/></g>
<g><path style="opacity:1" fill="#6b344a" d="M 370.5,311.5 C 379.141,313.933 387.474,316.933 395.5,320.5C 391.269,331.223 384.269,333.39 374.5,327C 370.372,322.466 369.039,317.299 370.5,311.5 Z"/></g>
<g><path style="opacity:1" fill="#151515" d="M 165.5,315.5 C 168.929,320.764 173.262,325.264 178.5,329C 174.195,328.923 169.862,328.756 165.5,328.5C 165.5,324.167 165.5,319.833 165.5,315.5 Z"/></g>
<g><path style="opacity:1" fill="#eeeef5" d="M 373.5,316.5 C 378.414,318.36 383.414,320.027 388.5,321.5C 389.497,325.019 387.997,326.685 384,326.5C 378.054,325.72 374.554,322.387 373.5,316.5 Z"/></g>
<g><path style="opacity:1" fill="#6e374d" d="M 118.5,318.5 C 122.24,318.241 125.906,318.574 129.5,319.5C 132.349,325.646 130.349,329.813 123.5,332C 118.078,335.289 112.911,335.122 108,331.5C 107.333,329.833 107.333,328.167 108,326.5C 111.299,323.449 114.799,320.782 118.5,318.5 Z"/></g>
<g><path style="opacity:1" fill="#f0f0f6" d="M 119.5,322.5 C 129.548,322.336 129.881,324.502 120.5,329C 117.5,329.667 114.5,329.667 111.5,329C 113.776,326.211 116.443,324.044 119.5,322.5 Z"/></g>
<g><path style="opacity:1" fill="#6c354b" d="M 364.5,330.5 C 373.011,333.422 381.011,337.422 388.5,342.5C 387.002,346.168 385.002,349.502 382.5,352.5C 381.28,352.113 380.613,351.28 380.5,350C 383.929,345.369 382.929,342.202 377.5,340.5C 376.643,341.736 375.977,343.069 375.5,344.5C 373.796,345.823 372.463,345.49 371.5,343.5C 372.074,341.941 372.74,340.441 373.5,339C 367.749,333.856 365.082,335.356 365.5,343.5C 364.167,343.5 362.833,343.5 361.5,343.5C 362.293,339.12 363.293,334.786 364.5,330.5 Z"/></g>
<g><path style="opacity:1" fill="#6a3249" d="M 133.5,332.5 C 134.833,332.5 136.167,332.5 137.5,332.5C 137.67,333.822 137.337,334.989 136.5,336C 129.418,339.857 122.085,343.023 114.5,345.5C 114.238,344.022 114.571,342.689 115.5,341.5C 121.84,338.997 127.84,335.997 133.5,332.5 Z"/></g>
<g><path style="opacity:1" fill="#6c344b" d="M 134.5,341.5 C 145.297,342.63 147.297,347.463 140.5,356C 135.841,360.005 130.507,361.672 124.5,361C 120.876,358.839 119.709,355.672 121,351.5C 122.011,350.663 123.178,350.33 124.5,350.5C 123.079,356.113 125.079,358.28 130.5,357C 134.274,355.698 137.441,353.531 140,350.5C 140.563,346.498 138.73,344.831 134.5,345.5C 134.5,344.167 134.5,342.833 134.5,341.5 Z"/></g>
<g><path style="opacity:1" fill="#6c354c" d="M 145.5,358.5 C 153.16,356.996 156.327,359.996 155,367.5C 150.293,373.231 144.793,377.731 138.5,381C 137.483,379.951 137.316,378.784 138,377.5C 142.333,373.833 146.667,370.167 151,366.5C 151.49,365.207 151.657,363.873 151.5,362.5C 149.011,362.298 146.677,362.798 144.5,364C 141.5,367 138.5,370 135.5,373C 132.866,373.925 131.699,373.091 132,370.5C 136.099,365.892 140.599,361.892 145.5,358.5 Z"/></g>
<g><path style="opacity:1" fill="#6c344a" d="M 346.5,359.5 C 356.426,359.962 362.759,364.962 365.5,374.5C 364.074,379.455 360.907,381.455 356,380.5C 355.517,379.552 355.351,378.552 355.5,377.5C 358.571,378.075 360.571,376.909 361.5,374C 358.986,367.466 354.32,364.132 347.5,364C 346.577,366.041 346.244,368.208 346.5,370.5C 343.512,370.845 342.179,369.512 342.5,366.5C 342.974,363.689 344.307,361.355 346.5,359.5 Z"/></g>
<g><path style="opacity:1" fill="#868686" d="M 264.5,367.5 C 265.808,371.019 265.808,374.685 264.5,378.5C 263.893,378.376 263.56,378.043 263.5,377.5C 264.479,374.375 264.813,371.042 264.5,367.5 Z"/></g>
<g><path style="opacity:1" fill="#565656" d="M 228.5,367.5 C 229.787,368.871 230.453,370.705 230.5,373C 230.167,374.833 229.833,376.667 229.5,378.5C 228.511,374.893 228.177,371.226 228.5,367.5 Z"/></g>
<g><path style="opacity:1" fill="#171717" d="M 240.5,367.5 C 246.158,366.679 247.825,368.846 245.5,374C 244.207,374.49 242.873,374.657 241.5,374.5C 241.657,375.873 241.49,377.207 241,378.5C 240.501,374.848 240.335,371.182 240.5,367.5 Z"/></g>
<g><path style="opacity:1" fill="#dedede" d="M 241.5,369.5 C 242.833,369.5 244.167,369.5 245.5,369.5C 245.5,370.5 245.5,371.5 245.5,372.5C 244.167,372.5 242.833,372.5 241.5,372.5C 241.5,371.5 241.5,370.5 241.5,369.5 Z"/></g>
<g><path style="opacity:1" fill="#1d1d1d" d="M 264.5,367.5 C 264.813,371.042 264.479,374.375 263.5,377.5C 261.527,376.194 259.861,374.527 258.5,372.5C 258.44,371.957 258.107,371.624 257.5,371.5C 256.526,373.743 256.192,376.076 256.5,378.5C 255.357,375.024 255.19,371.358 256,367.5C 258.333,369.833 260.667,372.167 263,374.5C 263.186,371.964 263.686,369.631 264.5,367.5 Z"/></g>
<g><path style="opacity:1" fill="#6c354b" d="M 166.5,371.5 C 168.686,371.511 169.519,372.511 169,374.5C 164.44,379.389 160.274,384.555 156.5,390C 156.93,391.434 157.764,392.601 159,393.5C 159.49,394.793 159.657,396.127 159.5,397.5C 158.448,397.649 157.448,397.483 156.5,397C 153.631,393.796 150.465,390.963 147,388.5C 146.51,387.207 146.343,385.873 146.5,384.5C 148.993,385.229 151.326,386.063 153.5,387C 157.96,381.895 162.294,376.728 166.5,371.5 Z"/></g>
<g><path style="opacity:1" fill="#767676" d="M 258.5,372.5 C 257.833,374.5 257.167,376.5 256.5,378.5C 256.192,376.076 256.526,373.743 257.5,371.5C 258.107,371.624 258.44,371.957 258.5,372.5 Z"/></g>
<g><path style="opacity:1" fill="#6a3249" d="M 332.5,374.5 C 342.068,375.057 348.068,380.057 350.5,389.5C 350.594,391.912 349.594,393.745 347.5,395C 338.556,393.561 332.889,388.394 330.5,379.5C 330.437,377.486 331.103,375.819 332.5,374.5 Z"/></g>
<g><path style="opacity:1" fill="#eae8ef" d="M 334.5,378.5 C 341.458,379.458 345.458,383.458 346.5,390.5C 339.458,389.458 335.458,385.458 334.5,378.5 Z"/></g>
<g><path style="opacity:1" fill="#6b334a" d="M 320.5,381.5 C 322.39,381.297 323.89,381.963 325,383.5C 327.919,389.677 331.586,395.344 336,400.5C 336.667,401.5 336.667,402.5 336,403.5C 329.783,409.32 324.45,408.654 320,401.5C 319.313,399.432 319.48,397.432 320.5,395.5C 316.596,393.921 313.263,391.588 310.5,388.5C 310.833,387.5 311.5,386.833 312.5,386.5C 315.039,388.2 317.705,389.7 320.5,391C 321.944,391.781 323.277,391.614 324.5,390.5C 322.342,387.852 321.008,384.852 320.5,381.5 Z"/></g>
<g><path style="opacity:1" fill="#6d374d" d="M 176.5,382.5 C 177.833,382.5 179.167,382.5 180.5,382.5C 180.649,383.552 180.483,384.552 180,385.5C 175.64,392.232 170.807,398.565 165.5,404.5C 164.5,404.167 163.833,403.5 163.5,402.5C 167.859,395.816 172.193,389.149 176.5,382.5 Z"/></g>
<g><path style="opacity:1" fill="#6b344a" d="M 192.5,387.5 C 190.354,394.8 187.354,401.8 183.5,408.5C 185.159,409.998 186.825,411.498 188.5,413C 188.355,413.772 188.022,414.439 187.5,415C 182.89,413.866 178.557,411.866 174.5,409C 173.663,407.989 173.33,406.822 173.5,405.5C 175.895,406.363 178.229,406.363 180.5,405.5C 183,400.5 185.5,395.5 188,390.5C 188.908,388.561 190.408,387.561 192.5,387.5 Z"/></g>
<g><path style="opacity:1" fill="#6a3249" d="M 305.5,390.5 C 306.496,390.414 307.329,390.748 308,391.5C 310.891,398.95 314.058,406.283 317.5,413.5C 312.955,418.287 308.122,418.62 303,414.5C 301.238,411.424 301.071,408.258 302.5,405C 300.126,402.723 297.626,400.557 295,398.5C 294.51,397.207 294.343,395.873 294.5,394.5C 295.552,394.351 296.552,394.517 297.5,395C 305.436,403.08 307.769,402.414 304.5,393C 304.743,392.098 305.077,391.265 305.5,390.5 Z"/></g>
<g><path style="opacity:1" fill="#eae8ef" d="M 325.5,396.5 C 329.316,397.09 330.983,399.423 330.5,403.5C 327.675,403.919 325.509,402.919 324,400.5C 323.7,398.934 324.2,397.601 325.5,396.5 Z"/></g>
<g><path style="opacity:1" fill="#6c344a" d="M 204.5,396.5 C 209.947,396.621 213.281,399.288 214.5,404.5C 211.511,403.917 208.845,402.584 206.5,400.5C 205.914,400.709 205.414,401.043 205,401.5C 204.333,403.833 204.333,406.167 205,408.5C 207.969,413.013 208.136,417.513 205.5,422C 199.851,424.94 196.518,423.44 195.5,417.5C 197.6,417.477 199.433,418.144 201,419.5C 201.772,419.355 202.439,419.022 203,418.5C 202.529,413.844 201.696,409.178 200.5,404.5C 200.667,403.167 200.833,401.833 201,400.5C 202.102,399.051 203.269,397.718 204.5,396.5 Z"/></g>
<g><path style="opacity:1" fill="#6c344b" d="M 287.5,399.5 C 288.822,399.33 289.989,399.663 291,400.5C 293.148,408.441 294.982,416.441 296.5,424.5C 292.908,425.869 289.241,426.702 285.5,427C 284.549,426.282 284.383,425.449 285,424.5C 286.648,423.283 288.481,422.45 290.5,422C 291.797,419.455 291.631,416.955 290,414.5C 288.103,416.016 285.936,416.683 283.5,416.5C 283.316,413.679 284.649,412.012 287.5,411.5C 288.861,409.016 288.694,406.683 287,404.5C 284.848,405.885 282.515,406.885 280,407.5C 278.72,407.387 277.887,406.72 277.5,405.5C 280.829,403.502 284.162,401.502 287.5,399.5 Z"/></g>
<g><path style="opacity:1" fill="#6a3249" d="M 219.5,401.5 C 220.978,401.238 222.311,401.571 223.5,402.5C 225.014,407.897 226.514,413.23 228,418.5C 228.643,413.455 229.476,408.455 230.5,403.5C 232.346,403.222 233.68,403.889 234.5,405.5C 233.066,412.501 231.566,419.501 230,426.5C 228.951,428.107 227.451,428.773 225.5,428.5C 224.675,422.709 223.342,417.042 221.5,411.5C 220.016,416.416 218.85,421.416 218,426.5C 216.174,427.841 215.007,427.341 214.5,425C 215.721,417.059 217.388,409.225 219.5,401.5 Z"/></g>
<g><path style="opacity:1" fill="#713c51" d="M 239.5,403.5 C 240.496,403.414 241.329,403.748 242,404.5C 242.167,405.833 242.333,407.167 242.5,408.5C 241.269,415.451 240.602,422.451 240.5,429.5C 239.167,429.5 237.833,429.5 236.5,429.5C 236.581,420.68 237.581,412.013 239.5,403.5 Z"/></g>
<g><path style="opacity:1" fill="#6d364c" d="M 265.5,404.5 C 269.961,404.79 272.795,407.123 274,411.5C 276.478,417.848 275.645,423.681 271.5,429C 269.527,429.495 267.527,429.662 265.5,429.5C 263.146,424.603 261.479,419.436 260.5,414C 260.228,409.706 261.895,406.54 265.5,404.5 Z"/></g>
<g><path style="opacity:1" fill="#eae7ef" d="M 306.5,406.5 C 309.94,406.337 311.94,408.004 312.5,411.5C 310.423,414.119 308.257,414.119 306,411.5C 305.36,409.735 305.527,408.068 306.5,406.5 Z"/></g>
<g><path style="opacity:1" fill="#e7e3eb" d="M 265.5,408.5 C 268.735,409.595 270.568,411.928 271,415.5C 270.763,428.082 268.763,428.416 265,416.5C 264.398,413.779 264.565,411.113 265.5,408.5 Z"/></g>
</svg>
