<?xml version="1.0" encoding="UTF-8"?>
<!DOCTYPE svg PUBLIC "-//W3C//DTD SVG 1.1//EN" "http://www.w3.org/Graphics/SVG/1.1/DTD/svg11.dtd">
<svg xmlns="http://www.w3.org/2000/svg" version="1.1" width="500px" height="500px" style="shape-rendering:geometricPrecision; text-rendering:geometricPrecision; image-rendering:optimizeQuality; fill-rule:evenodd; clip-rule:evenodd" xmlns:xlink="http://www.w3.org/1999/xlink">
<g><path style="opacity:1" fill="#fefefe" d="M -0.5,-0.5 C 166.167,-0.5 332.833,-0.5 499.5,-0.5C 499.5,166.167 499.5,332.833 499.5,499.5C 332.833,499.5 166.167,499.5 -0.5,499.5C -0.5,332.833 -0.5,166.167 -0.5,-0.5 Z"/></g>
<g><path style="opacity:1" fill="#0d0d0d" d="M 224.5,83.5 C 296.399,78.6986 351.565,106.365 390,166.5C 415.755,215.214 418.422,265.214 398,316.5C 370.339,374.468 324.505,407.301 260.5,415C 191.032,418.519 137.866,391.019 101,332.5C 75.772,284.501 72.772,235.168 92,184.5C 118.429,127.572 162.596,93.905 224.5,83.5 Z"/></g>
<g><path style="opacity:1" fill="#f8f8f8" d="M 225.5,89.5 C 295.776,84.7186 349.276,112.052 386,171.5C 405.333,207.5 410.667,245.5 402,285.5C 387.59,340.908 353.757,379.075 300.5,400C 230.859,421.551 171.359,405.717 122,352.5C 83.0246,301.423 75.0246,245.756 98,185.5C 124.02,131.577 166.52,99.5772 225.5,89.5 Z"/></g>
<g><path style="opacity:1" fill="#121212" d="M 246.5,94.5 C 247.822,94.33 248.989,94.6634 250,95.5C 252.955,103.653 255.121,111.986 256.5,120.5C 253.344,120.471 251.678,118.804 251.5,115.5C 249.604,114.534 247.604,114.201 245.5,114.5C 246.152,118.56 244.485,120.56 240.5,120.5C 241.517,117.973 241.517,115.473 240.5,113C 243.311,107.132 245.311,100.965 246.5,94.5 Z"/></g>
<g><path style="opacity:1" fill="#111111" d="M 236.5,123.5 C 235.5,123.5 234.5,123.5 233.5,123.5C 232.192,118.138 230.692,112.804 229,107.5C 228.517,110.823 227.017,113.49 224.5,115.5C 222.851,114.352 221.351,113.019 220,111.5C 219.462,115.445 219.962,119.278 221.5,123C 221.562,125.965 220.395,126.798 218,125.5C 216.397,117.438 214.563,109.438 212.5,101.5C 213.348,99.7172 214.681,99.2172 216.5,100C 219,103.167 221.5,106.333 224,109.5C 224.667,106.167 225.333,102.833 226,99.5C 228.522,96.6736 230.522,97.0069 232,100.5C 233.932,108.092 235.432,115.759 236.5,123.5 Z"/></g>
<g><path style="opacity:1" fill="#131313" d="M 280.5,99.5 C 293.399,103.169 295.899,110.502 288,121.5C 284.847,123.832 281.347,125.499 277.5,126.5C 275.391,126.225 274.058,125.058 273.5,123C 275.61,115.052 277.943,107.219 280.5,99.5 Z"/></g>
<g><path style="opacity:1" fill="#111111" d="M 200.5,102.5 C 201.5,102.5 202.5,102.5 203.5,102.5C 203.5,103.833 203.5,105.167 203.5,106.5C 196.043,106.933 194.709,109.933 199.5,115.5C 201.323,114.253 203.323,113.586 205.5,113.5C 205.762,114.978 205.429,116.311 204.5,117.5C 199.696,119.357 199.363,122.023 203.5,125.5C 205.226,123.97 207.226,122.97 209.5,122.5C 211,122.453 212,123.119 212.5,124.5C 208.513,127.057 204.513,129.224 200.5,131C 197.105,122.715 194.438,114.215 192.5,105.5C 195.443,105.02 198.11,104.02 200.5,102.5 Z"/></g>
<g><path style="opacity:1" fill="#eeeeee" d="M 282.5,104.5 C 287.824,105.33 289.658,108.33 288,113.5C 286.472,118.201 283.305,120.868 278.5,121.5C 280.302,115.956 281.636,110.29 282.5,104.5 Z"/></g>
<g><path style="opacity:1" fill="#141414" d="M 302.5,105.5 C 307.057,106.014 311.057,107.68 314.5,110.5C 314.113,111.72 313.28,112.387 312,112.5C 307.062,109.056 303.896,110.223 302.5,116C 305.711,116.732 307.711,118.566 308.5,121.5C 306.266,121.62 304.099,121.287 302,120.5C 300.351,121.786 299.185,123.453 298.5,125.5C 300.792,127.258 303.459,128.424 306.5,129C 307.833,130 307.833,131 306.5,132C 302.184,132.047 298.017,131.214 294,129.5C 293.333,128.167 293.333,126.833 294,125.5C 297.124,118.923 299.957,112.256 302.5,105.5 Z"/></g>
<g><path style="opacity:1" fill="#dedede" d="M 247.5,104.5 C 249.28,105.99 249.946,107.99 249.5,110.5C 248.5,110.5 247.5,110.5 246.5,110.5C 246.833,108.5 247.167,106.5 247.5,104.5 Z"/></g>
<g><path style="opacity:1" fill="#0d0d0d" d="M 234.5,125.5 C 241.5,125.5 248.5,125.5 255.5,125.5C 305.331,131.165 339.831,157.165 359,203.5C 374.756,254.308 363.922,298.475 326.5,336C 288.418,367.181 246.085,374.514 199.5,358C 150.929,335.226 125.929,296.892 124.5,243C 124.566,229.302 127.233,216.136 132.5,203.5C 132.333,203.167 132.167,202.833 132,202.5C 129.88,205.386 127.713,205.719 125.5,203.5C 127.167,201.5 128.833,199.5 130.5,197.5C 128.559,194.666 125.893,193.832 122.5,195C 118.292,197.65 113.959,197.983 109.5,196C 105.815,190.16 107.148,186.327 113.5,184.5C 113.318,186.675 112.651,188.675 111.5,190.5C 111.608,191.442 111.941,192.275 112.5,193C 118.011,191.429 123.678,190.763 129.5,191C 132,192.167 133.833,194 135,196.5C 138.916,186.604 144.416,177.771 151.5,170C 149.527,169.505 147.527,169.338 145.5,169.5C 145.5,168.5 145.5,167.5 145.5,166.5C 150.541,166.647 152.207,164.481 150.5,160C 145.584,158.839 140.584,158.173 135.5,158C 131.5,154 131.5,150 135.5,146C 136.793,145.51 138.127,145.343 139.5,145.5C 139.539,147.359 138.706,148.692 137,149.5C 136.506,151.134 136.34,152.801 136.5,154.5C 141.58,154.25 146.58,154.75 151.5,156C 154.663,157.48 156.496,159.98 157,163.5C 159.449,162.094 160.449,160.094 160,157.5C 153.424,152.113 148.257,145.78 144.5,138.5C 151.996,143.152 158.496,149.152 164,156.5C 165.873,154.291 168.04,152.458 170.5,151C 168.527,150.505 166.527,150.338 164.5,150.5C 164.33,149.178 164.663,148.011 165.5,147C 170.083,147.612 171.916,145.779 171,141.5C 166.642,139.626 162.142,138.126 157.5,137C 153.895,133.685 153.561,130.018 156.5,126C 158.345,124.872 160.345,124.372 162.5,124.5C 162.723,127.114 161.556,128.781 159,129.5C 158.219,130.944 158.386,132.277 159.5,133.5C 163.44,134.855 167.44,136.022 171.5,137C 173.384,138.049 174.718,139.549 175.5,141.5C 175.739,143.467 175.406,145.301 174.5,147C 175.998,147.585 176.998,147.085 177.5,145.5C 180.842,143.164 184.175,140.831 187.5,138.5C 184.252,132.336 180.752,126.336 177,120.5C 175.13,122.219 172.963,123.219 170.5,123.5C 170.286,121.856 170.62,120.356 171.5,119C 175.857,116.649 180.19,114.649 184.5,113C 185.022,113.561 185.355,114.228 185.5,115C 184.004,116.331 182.671,117.831 181.5,119.5C 184.748,125.664 188.248,131.664 192,137.5C 205.356,130.661 219.523,126.661 234.5,125.5 Z"/></g>
<g><path style="opacity:1" fill="#a7a7a7" d="M 233.5,123.5 C 234.5,123.5 235.5,123.5 236.5,123.5C 242.833,124.167 249.167,124.833 255.5,125.5C 248.5,125.5 241.5,125.5 234.5,125.5C 234.167,124.833 233.833,124.167 233.5,123.5 Z"/></g>
<g><path style="opacity:1" fill="#101010" d="M 340.5,125.5 C 342.635,125.147 343.968,125.98 344.5,128C 341.172,135.483 338.005,142.983 335,150.5C 334,151.833 333,151.833 332,150.5C 333.381,146.724 332.548,143.558 329.5,141C 327.763,142.771 325.429,143.605 322.5,143.5C 323.5,140.833 324.5,138.167 325.5,135.5C 326.873,135.657 328.207,135.49 329.5,135C 333.359,131.968 337.026,128.802 340.5,125.5 Z"/></g>
<g><path style="opacity:1" fill="#fcfcfc" d="M 142.5,296.5 C 144.099,296.768 145.432,296.434 146.5,295.5C 150.608,295.717 154.608,296.217 158.5,297C 152.29,292.458 147.124,286.958 143,280.5C 142.505,282.473 142.338,284.473 142.5,286.5C 142.81,289.713 142.477,292.713 141.5,295.5C 121.779,248.709 128.279,206.042 161,167.5C 187.176,140.771 219.009,128.604 256.5,131C 314.765,140.598 349.265,174.432 360,232.5C 362.953,285.783 341.12,324.95 294.5,350C 241.527,371.128 195.694,360.961 157,319.5C 151.156,312.48 146.322,304.813 142.5,296.5 Z"/></g>
<g><path style="opacity:1" fill="#dddddd" d="M 336.5,133.5 C 337.152,135.621 336.485,137.621 334.5,139.5C 333.5,139.167 332.833,138.5 332.5,137.5C 334.188,136.479 335.521,135.145 336.5,133.5 Z"/></g>
<g><path style="opacity:1" fill="#141414" d="M 352.5,139.5 C 356.737,142.228 360.571,145.561 364,149.5C 364.49,150.793 364.657,152.127 364.5,153.5C 362.071,153.415 360.071,152.415 358.5,150.5C 354.015,154.485 349.682,158.651 345.5,163C 343.975,164.009 342.308,164.509 340.5,164.5C 340.351,163.448 340.517,162.448 341,161.5C 346.015,156.652 350.848,151.652 355.5,146.5C 354.167,144.833 352.833,143.167 351.5,141.5C 351.863,140.817 352.196,140.15 352.5,139.5 Z"/></g>
<g><path style="opacity:1" fill="#868686" d="M 175.5,141.5 C 176.167,142.833 176.833,144.167 177.5,145.5C 176.998,147.085 175.998,147.585 174.5,147C 175.406,145.301 175.739,143.467 175.5,141.5 Z"/></g>
<g><path style="opacity:1" fill="#131313" d="M 370.5,157.5 C 371.978,157.238 373.311,157.571 374.5,158.5C 376.669,161.307 378.335,164.307 379.5,167.5C 378.127,167.657 376.793,167.49 375.5,167C 372.891,161.287 369.891,161.121 366.5,166.5C 368.415,168.071 369.415,170.071 369.5,172.5C 368.127,172.657 366.793,172.49 365.5,172C 364.845,170.513 363.845,169.347 362.5,168.5C 360.611,169.604 358.945,170.937 357.5,172.5C 359.372,174.535 361.039,176.702 362.5,179C 362.387,180.28 361.72,181.113 360.5,181.5C 357.602,178.177 354.602,175.01 351.5,172C 351.759,170.739 352.426,169.739 353.5,169C 359.578,165.639 365.245,161.805 370.5,157.5 Z"/></g>
<g><path style="opacity:1" fill="#0f0f0f" d="M 379.5,176.5 C 381.167,176.5 382.833,176.5 384.5,176.5C 384.657,177.873 384.49,179.207 384,180.5C 380.686,184.648 377.186,188.648 373.5,192.5C 373.667,192.833 373.833,193.167 374,193.5C 378.527,190.903 383.194,188.57 388,186.5C 389.28,186.613 390.113,187.28 390.5,188.5C 384.023,192.24 377.356,195.74 370.5,199C 368.866,199.494 367.199,199.66 365.5,199.5C 365.343,198.127 365.51,196.793 366,195.5C 368.98,191.686 372.146,188.019 375.5,184.5C 375.333,184.167 375.167,183.833 375,183.5C 370.35,185.993 365.516,187.993 360.5,189.5C 360.33,188.178 360.663,187.011 361.5,186C 367.72,183.059 373.72,179.892 379.5,176.5 Z"/></g>
<g><path style="opacity:1" fill="#0a0a0a" d="M 318.5,212.5 C 318.768,214.099 318.434,215.432 317.5,216.5C 302.138,194.062 284.304,191.728 264,209.5C 253.731,223.495 250.064,239.162 253,256.5C 256,263.833 259,271.167 262,278.5C 275.238,295.338 290.738,297.838 308.5,286C 312.112,282.59 315.112,278.756 317.5,274.5C 318.434,275.568 318.768,276.901 318.5,278.5C 310.927,289.212 300.594,295.712 287.5,298C 272.837,298.5 258.17,298.667 243.5,298.5C 243.5,297.167 243.5,295.833 243.5,294.5C 245.924,294.808 248.257,294.474 250.5,293.5C 246.069,282.978 241.402,272.645 236.5,262.5C 229.989,261.182 223.322,261.182 216.5,262.5C 216.624,263.107 216.957,263.44 217.5,263.5C 220.895,277.977 216.561,289.644 204.5,298.5C 204.167,298.333 203.833,298.167 203.5,298C 211.283,284.951 209.95,272.951 199.5,262C 198.552,261.517 197.552,261.351 196.5,261.5C 191.98,272.387 187.647,283.387 183.5,294.5C 184.833,294.5 186.167,294.5 187.5,294.5C 187.5,295.833 187.5,297.167 187.5,298.5C 182.5,298.5 177.5,298.5 172.5,298.5C 172.5,297.167 172.5,295.833 172.5,294.5C 174.144,294.714 175.644,294.38 177,293.5C 181.598,281.403 186.431,269.403 191.5,257.5C 191.471,255.971 190.804,254.804 189.5,254C 179.589,248.427 169.922,242.427 160.5,236C 156.631,232.466 153.131,228.633 150,224.5C 148.456,217.916 148.123,211.249 149,204.5C 149.705,201.524 150.871,198.858 152.5,196.5C 153.167,199.5 153.833,202.5 154.5,205.5C 156.602,213.123 160.935,219.289 167.5,224C 176.929,230.799 186.762,236.965 197,242.5C 203.745,230.452 209.245,217.785 213.5,204.5C 211.935,200.928 209.935,197.595 207.5,194.5C 210.086,193.52 212.753,193.187 215.5,193.5C 215.723,200.918 216.723,200.585 218.5,192.5C 221.247,192.187 223.914,192.52 226.5,193.5C 230.316,202.959 234.316,212.293 238.5,221.5C 254.907,192.308 277.907,185.474 307.5,201C 311.37,204.702 315.037,208.536 318.5,212.5 Z"/></g>
<g><path style="opacity:1" fill="#090909" d="M 319.5,294.5 C 320.833,261.833 320.833,229.167 319.5,196.5C 316.833,196.5 314.167,196.5 311.5,196.5C 311.5,195.167 311.5,193.833 311.5,192.5C 322.5,192.5 333.5,192.5 344.5,192.5C 344.5,193.833 344.5,195.167 344.5,196.5C 341.833,196.5 339.167,196.5 336.5,196.5C 336.5,229.167 336.5,261.833 336.5,294.5C 339.167,294.5 341.833,294.5 344.5,294.5C 344.5,295.833 344.5,297.167 344.5,298.5C 333.5,298.5 322.5,298.5 311.5,298.5C 311.5,297.167 311.5,295.833 311.5,294.5C 314.167,294.5 316.833,294.5 319.5,294.5 Z"/></g>
<g><path style="opacity:1" fill="#4d4d4d" d="M 154.5,205.5 C 153.833,202.5 153.167,199.5 152.5,196.5C 152.685,194.804 153.519,193.471 155,192.5C 154.633,196.746 154.467,201.08 154.5,205.5 Z"/></g>
<g><path style="opacity:1" fill="#fcfcfc" d="M 317.5,216.5 C 317.783,217.289 318.283,217.956 319,218.5C 319.667,236.5 319.667,254.5 319,272.5C 318.283,273.044 317.783,273.711 317.5,274.5C 315.112,278.756 312.112,282.59 308.5,286C 290.738,297.838 275.238,295.338 262,278.5C 259,271.167 256,263.833 253,256.5C 250.064,239.162 253.731,223.495 264,209.5C 284.304,191.728 302.138,194.062 317.5,216.5 Z"/></g>
<g><path style="opacity:1" fill="#141414" d="M 381.5,199.5 C 387.039,198.638 391.872,199.972 396,203.5C 397.091,207.987 395.591,210.987 391.5,212.5C 393.699,204.535 390.699,201.702 382.5,204C 378.795,205.003 376.129,207.17 374.5,210.5C 375.436,211.974 376.77,212.974 378.5,213.5C 379.429,214.689 379.762,216.022 379.5,217.5C 375.075,217.083 372.075,214.75 370.5,210.5C 372.52,205.146 376.187,201.48 381.5,199.5 Z"/></g>
<g><path style="opacity:1" fill="#141414" d="M 101.5,205.5 C 102.5,205.5 103.5,205.5 104.5,205.5C 104.5,208.5 104.5,211.5 104.5,214.5C 106.5,214.833 108.5,215.167 110.5,215.5C 109.861,211.874 111.194,210.041 114.5,210C 114.892,212.354 114.892,214.854 114.5,217.5C 116.861,217.674 119.194,218.007 121.5,218.5C 121.336,215.813 121.503,213.146 122,210.5C 123.011,209.663 124.178,209.33 125.5,209.5C 125.666,213.846 125.499,218.179 125,222.5C 124.275,223.059 123.442,223.392 122.5,223.5C 115.167,221.333 107.833,219.167 100.5,217C 100.043,216.586 99.7093,216.086 99.5,215.5C 100.168,212.137 100.835,208.803 101.5,205.5 Z"/></g>
<g><path style="opacity:1" fill="#f6f6f6" d="M 233.5,254.5 C 226.687,255.491 219.687,255.825 212.5,255.5C 209.016,252.848 206.016,249.682 203.5,246C 207.454,235.706 211.787,225.539 216.5,215.5C 217.934,216.936 219.1,218.602 220,220.5C 224.766,231.702 229.266,243.036 233.5,254.5 Z"/></g>
<g><path style="opacity:1" fill="#434343" d="M 319.5,196.5 C 320.833,229.167 320.833,261.833 319.5,294.5C 319.821,288.974 319.488,283.64 318.5,278.5C 318.768,276.901 318.434,275.568 317.5,274.5C 317.783,273.711 318.283,273.044 319,272.5C 319.667,254.5 319.667,236.5 319,218.5C 318.283,217.956 317.783,217.289 317.5,216.5C 318.434,215.432 318.768,214.099 318.5,212.5C 319.488,207.36 319.821,202.026 319.5,196.5 Z"/></g>
<g><path style="opacity:1" fill="#0d0d0d" d="M 394.5,218.5 C 396.167,218.5 397.833,218.5 399.5,218.5C 399.67,219.822 399.337,220.989 398.5,222C 391.153,223.436 383.82,224.936 376.5,226.5C 373.815,226.292 373.149,225.125 374.5,223C 381.355,221.799 388.022,220.299 394.5,218.5 Z"/></g>
<g><path style="opacity:1" fill="#131313" d="M 114.5,236.5 C 115.919,237.451 117.585,237.784 119.5,237.5C 119.5,236.167 119.5,234.833 119.5,233.5C 119.34,231.801 119.506,230.134 120,228.5C 121,227.167 122,227.167 123,228.5C 123.415,232.848 123.249,237.181 122.5,241.5C 113.747,240.989 105.08,239.823 96.5,238C 95.6634,236.989 95.33,235.822 95.5,234.5C 101.833,235.167 108.167,235.833 114.5,236.5 Z"/></g>
<g><path style="opacity:1" fill="#131313" d="M 386.5,229.5 C 390.582,229.344 394.582,229.844 398.5,231C 402.007,232.861 403.173,235.695 402,239.5C 398.573,241.129 395.073,242.629 391.5,244C 386.243,245.426 381.743,244.259 378,240.5C 377.333,238.5 377.333,236.5 378,234.5C 380.682,232.415 383.516,230.748 386.5,229.5 Z"/></g>
<g><path style="opacity:1" fill="#e4e4e4" d="M 386.5,233.5 C 390.869,232.923 394.869,233.757 398.5,236C 393.069,240.734 387.402,241.401 381.5,238C 381.667,237.5 381.833,237 382,236.5C 383.652,235.601 385.152,234.601 386.5,233.5 Z"/></g>
<g><path style="opacity:1" fill="#7a7a7a" d="M 119.5,233.5 C 119.5,234.833 119.5,236.167 119.5,237.5C 117.585,237.784 115.919,237.451 114.5,236.5C 115.833,236.5 117.167,236.5 118.5,236.5C 118.263,235.209 118.596,234.209 119.5,233.5 Z"/></g>
<g><path style="opacity:1" fill="#101010" d="M 115.5,246.5 C 117.167,246.5 118.833,246.5 120.5,246.5C 120.471,249.656 118.804,251.322 115.5,251.5C 114.534,253.396 114.201,255.396 114.5,257.5C 117.969,256.887 119.969,258.221 120.5,261.5C 117.934,261.344 115.434,261.678 113,262.5C 107.053,260.346 101.053,258.346 95,256.5C 94.3162,255.216 94.4829,254.049 95.5,253C 102.373,251.097 109.04,248.93 115.5,246.5 Z"/></g>
<g><path style="opacity:1" fill="#111111" d="M 376.5,249.5 C 384.859,249.526 393.193,250.026 401.5,251C 402.833,252.333 402.833,253.667 401.5,255C 396.167,257 390.833,259 385.5,261C 390.799,261.93 396.133,262.597 401.5,263C 402.451,263.718 402.617,264.551 402,265.5C 400.431,266.122 398.764,266.456 397,266.5C 390.511,265.867 384.011,265.367 377.5,265C 375.579,263.759 375.246,262.259 376.5,260.5C 381.72,258.057 387.053,255.89 392.5,254C 387.5,253.667 382.5,253.333 377.5,253C 376.663,251.989 376.33,250.822 376.5,249.5 Z"/></g>
<g><path style="opacity:1" fill="#e3e3e3" d="M 106.5,253.5 C 107.833,253.5 109.167,253.5 110.5,253.5C 110.5,254.5 110.5,255.5 110.5,256.5C 108.345,256.628 106.345,256.128 104.5,255C 105.416,254.722 106.082,254.222 106.5,253.5 Z"/></g>
<g><path style="opacity:1" fill="#7b7b7b" d="M 233.5,254.5 C 234.043,254.56 234.376,254.893 234.5,255.5C 227.01,256.819 219.677,256.819 212.5,255.5C 219.687,255.825 226.687,255.491 233.5,254.5 Z"/></g>
<g><path style="opacity:1" fill="#a0a0a0" d="M 236.5,262.5 C 229.978,262.177 223.645,262.51 217.5,263.5C 216.957,263.44 216.624,263.107 216.5,262.5C 223.322,261.182 229.989,261.182 236.5,262.5 Z"/></g>
<g><path style="opacity:1" fill="#101010" d="M 117.5,266.5 C 119.527,266.338 121.527,266.505 123.5,267C 124.517,268.049 124.684,269.216 124,270.5C 119.5,273.667 115,276.833 110.5,280C 115.724,279.191 121.057,278.691 126.5,278.5C 126.5,279.5 126.5,280.5 126.5,281.5C 117.879,283.112 109.213,284.446 100.5,285.5C 100.286,283.856 100.62,282.356 101.5,281C 106.167,278 110.833,275 115.5,272C 110.229,271.919 105.063,272.753 100,274.5C 98.0543,274.237 97.3877,273.237 98,271.5C 104.476,269.417 110.976,267.75 117.5,266.5 Z"/></g>
<g><path style="opacity:1" fill="#151515" d="M 146.5,295.5 C 145.5,295.5 144.5,295.5 143.5,295.5C 143.81,292.287 143.477,289.287 142.5,286.5C 142.338,284.473 142.505,282.473 143,280.5C 147.124,286.958 152.29,292.458 158.5,297C 154.608,296.217 150.608,295.717 146.5,295.5 Z"/></g>
<g><path style="opacity:1" fill="#111111" d="M 372.5,281.5 C 380.033,284.289 387.7,286.789 395.5,289C 397.158,289.725 397.658,290.892 397,292.5C 390.402,303.649 382.736,304.316 374,294.5C 371.568,290.325 371.068,285.991 372.5,281.5 Z"/></g>
<g><path style="opacity:1" fill="#eeeeee" d="M 375.5,286.5 C 381.144,288.493 386.811,290.493 392.5,292.5C 388.465,298.827 383.798,299.16 378.5,293.5C 376.673,291.513 375.673,289.179 375.5,286.5 Z"/></g>
<g><path style="opacity:1" fill="#111111" d="M 116.5,288.5 C 120.308,288.163 123.974,288.663 127.5,290C 128.83,292.877 128.664,295.711 127,298.5C 120.964,303.963 114.131,305.463 106.5,303C 104.604,301.192 104.104,299.025 105,296.5C 108.464,293.195 112.297,290.528 116.5,288.5 Z"/></g>
<g><path style="opacity:1" fill="#8d8d8d" d="M 142.5,286.5 C 143.477,289.287 143.81,292.287 143.5,295.5C 144.5,295.5 145.5,295.5 146.5,295.5C 145.432,296.434 144.099,296.768 142.5,296.5C 141.833,296.5 141.5,296.167 141.5,295.5C 142.477,292.713 142.81,289.713 142.5,286.5 Z"/></g>
<g><path style="opacity:1" fill="#efefef" d="M 117.5,292.5 C 119.833,292.5 122.167,292.5 124.5,292.5C 124.703,294.39 124.037,295.89 122.5,297C 118.104,300.486 113.437,301.152 108.5,299C 111.249,296.31 114.249,294.144 117.5,292.5 Z"/></g>
<g><path style="opacity:1" fill="#101010" d="M 365.5,301.5 C 367.199,301.34 368.866,301.506 370.5,302C 376.952,305.642 383.452,309.142 390,312.5C 389.005,315.398 387.839,318.398 386.5,321.5C 385.311,322.429 383.978,322.762 382.5,322.5C 383.639,319.575 384.139,316.575 384,313.5C 382.806,312.57 381.473,311.903 380,311.5C 378.498,313.175 376.998,314.841 375.5,316.5C 374.28,316.113 373.613,315.28 373.5,314C 375.23,309.301 373.563,306.801 368.5,306.5C 368.244,308.937 367.577,311.271 366.5,313.5C 365.675,314.386 364.675,314.719 363.5,314.5C 364.007,310.14 364.673,305.807 365.5,301.5 Z"/></g>
<g><path style="opacity:1" fill="#111111" d="M 132.5,302.5 C 135.96,303.26 136.293,304.76 133.5,307C 126.712,309.894 120.045,313.06 113.5,316.5C 111.51,315.537 111.177,314.204 112.5,312.5C 119.259,309.121 125.925,305.787 132.5,302.5 Z"/></g>
<g><path style="opacity:1" fill="#141414" d="M 131.5,312.5 C 139.382,311.546 142.549,314.879 141,322.5C 136.462,329.68 129.962,332.847 121.5,332C 117.847,329.373 116.847,326.04 118.5,322C 119.448,321.517 120.448,321.351 121.5,321.5C 121.244,323.792 121.577,325.959 122.5,328C 129.582,328.793 134.582,325.96 137.5,319.5C 137.392,318.558 137.059,317.725 136.5,317C 133.099,317.266 131.433,315.766 131.5,312.5 Z"/></g>
<g><path style="opacity:1" fill="#131313" d="M 143.5,329.5 C 151.16,327.996 154.327,330.996 153,338.5C 151.878,340.624 150.378,342.457 148.5,344C 145.167,346.667 141.833,349.333 138.5,352C 137.552,352.483 136.552,352.649 135.5,352.5C 135.343,351.127 135.51,349.793 136,348.5C 140.333,344.833 144.667,341.167 149,337.5C 149.49,336.207 149.657,334.873 149.5,333.5C 147.011,333.298 144.677,333.798 142.5,335C 139.5,338 136.5,341 133.5,344C 130.866,344.925 129.699,344.091 130,341.5C 134.099,336.892 138.599,332.892 143.5,329.5 Z"/></g>
<g><path style="opacity:1" fill="#121212" d="M 347.5,330.5 C 356.159,330.584 362.325,334.584 366,342.5C 367.376,349.457 364.543,352.623 357.5,352C 356.549,351.282 356.383,350.449 357,349.5C 362.107,348.619 363.441,345.952 361,341.5C 358.16,336.833 353.994,334.5 348.5,334.5C 348.663,336.857 348.497,339.19 348,341.5C 347,342.833 346,342.833 345,341.5C 343.812,337.259 344.645,333.592 347.5,330.5 Z"/></g>
<g><path style="opacity:1" fill="#111111" d="M 164.5,342.5 C 165.5,342.5 166.5,342.5 167.5,342.5C 167.392,344.783 166.559,346.783 165,348.5C 161.048,352.907 157.215,357.407 153.5,362C 155.923,363.571 157.256,365.737 157.5,368.5C 151.276,366.273 146.609,362.273 143.5,356.5C 146.3,356.889 148.967,357.389 151.5,358C 155.96,352.895 160.294,347.728 164.5,342.5 Z"/></g>
<g><path style="opacity:1" fill="#0f0f0f" d="M 334.5,345.5 C 343.803,346.635 349.47,351.802 351.5,361C 351.87,365.686 349.87,367.686 345.5,367C 340.698,364.193 336.531,360.693 333,356.5C 330.614,352.295 331.114,348.629 334.5,345.5 Z"/></g>
<g><path style="opacity:1" fill="#ededed" d="M 335.5,349.5 C 343.26,350.579 346.927,354.913 346.5,362.5C 340.225,360.236 336.558,355.902 335.5,349.5 Z"/></g>
<g><path style="opacity:1" fill="#131313" d="M 175.5,353.5 C 176.5,353.5 177.5,353.5 178.5,353.5C 178.657,354.873 178.49,356.207 178,357.5C 173.943,362.558 170.276,367.892 167,373.5C 165.89,375.037 164.39,375.703 162.5,375.5C 162.343,374.127 162.51,372.793 163,371.5C 166.997,365.344 171.164,359.344 175.5,353.5 Z"/></g>
<g><path style="opacity:1" fill="#121212" d="M 322.5,352.5 C 323.496,352.414 324.329,352.748 325,353.5C 328.75,360.002 332.75,366.335 337,372.5C 337.667,373.5 337.667,374.5 337,375.5C 329.217,381.529 323.717,379.863 320.5,370.5C 320.529,368.971 321.196,367.804 322.5,367C 318.888,365.861 315.554,364.194 312.5,362C 311.663,360.989 311.33,359.822 311.5,358.5C 314.745,358.88 317.745,360.047 320.5,362C 322.167,362.667 323.833,362.667 325.5,362C 322.943,359.082 321.943,355.915 322.5,352.5 Z"/></g>
<g><path style="opacity:1" fill="#131313" d="M 187.5,359.5 C 188.833,359.5 190.167,359.5 191.5,359.5C 188.86,366.95 185.526,374.116 181.5,381C 185.283,381.609 186.95,383.776 186.5,387.5C 181.777,385.641 177.11,383.474 172.5,381C 171.663,379.989 171.33,378.822 171.5,377.5C 173.936,377.317 176.103,377.984 178,379.5C 181.451,372.933 184.618,366.266 187.5,359.5 Z"/></g>
<g><path style="opacity:1" fill="#0f0f0f" d="M 305.5,362.5 C 307.017,362.511 308.184,363.177 309,364.5C 311.618,371.737 314.785,378.737 318.5,385.5C 313.382,390.764 308.215,390.764 303,385.5C 300.87,382.335 301.037,379.335 303.5,376.5C 299.023,374.363 296.023,371.03 294.5,366.5C 298.683,368.757 303.016,370.757 307.5,372.5C 307.076,369.646 306.076,366.979 304.5,364.5C 304.863,363.817 305.196,363.15 305.5,362.5 Z"/></g>
<g><path style="opacity:1" fill="#141414" d="M 202.5,368.5 C 208.647,368.05 212.314,370.717 213.5,376.5C 210.916,376.431 208.916,375.265 207.5,373C 206.207,372.51 204.873,372.343 203.5,372.5C 203.251,378.08 204.251,383.413 206.5,388.5C 205.72,394.398 202.387,396.565 196.5,395C 195.313,393.981 194.313,392.814 193.5,391.5C 193.833,390.5 194.5,389.833 195.5,389.5C 197.452,391.533 199.618,391.866 202,390.5C 201.475,385.416 200.308,380.416 198.5,375.5C 198.974,372.689 200.307,370.355 202.5,368.5 Z"/></g>
<g><path style="opacity:1" fill="#ebebeb" d="M 327.5,367.5 C 329.619,368.791 331.285,370.625 332.5,373C 329.863,375.074 327.363,374.907 325,372.5C 324.294,370.045 325.127,368.378 327.5,367.5 Z"/></g>
<g><path style="opacity:1" fill="#101010" d="M 287.5,371.5 C 288.822,371.33 289.989,371.663 291,372.5C 293.541,380.708 295.374,389.042 296.5,397.5C 293.26,397.768 290.094,398.434 287,399.5C 284.659,398.993 284.159,397.826 285.5,396C 292.864,395.443 294.364,392.276 290,386.5C 287.652,388.933 285.485,388.933 283.5,386.5C 284.939,384.447 286.939,383.447 289.5,383.5C 289.301,381.04 288.635,378.707 287.5,376.5C 284.573,377.801 281.573,378.801 278.5,379.5C 278.238,378.022 278.571,376.689 279.5,375.5C 282.507,374.663 285.174,373.33 287.5,371.5 Z"/></g>
<g><path style="opacity:1" fill="#131313" d="M 219.5,372.5 C 221.124,372.36 222.29,373.027 223,374.5C 224.587,379.768 225.92,385.101 227,390.5C 228.128,385.861 229.128,381.195 230,376.5C 230.605,374.519 231.605,374.185 233,375.5C 232.426,383.88 231.259,392.214 229.5,400.5C 227.856,400.714 226.356,400.38 225,399.5C 223.794,393.804 222.461,388.137 221,382.5C 219.413,387.768 218.08,393.101 217,398.5C 216,399.833 215,399.833 214,398.5C 214.617,389.579 216.451,380.913 219.5,372.5 Z"/></g>
<g><path style="opacity:1" fill="#161616" d="M 238.5,375.5 C 239.496,375.414 240.329,375.748 241,376.5C 240.981,384.823 240.648,393.157 240,401.5C 238.989,402.337 237.822,402.67 236.5,402.5C 236.12,393.368 236.786,384.368 238.5,375.5 Z"/></g>
<g><path style="opacity:1" fill="#111111" d="M 264.5,376.5 C 270.689,376.852 274.189,380.186 275,386.5C 276.219,391.945 275.052,396.778 271.5,401C 269.702,402.505 267.868,402.672 266,401.5C 261.864,395.767 260.197,389.434 261,382.5C 261.564,380.113 262.73,378.113 264.5,376.5 Z"/></g>
<g><path style="opacity:1" fill="#ececec" d="M 306.5,378.5 C 311.016,378.481 313.016,380.814 312.5,385.5C 307.097,385.778 305.097,383.445 306.5,378.5 Z"/></g>
<g><path style="opacity:1" fill="#e9e9e9" d="M 265.5,380.5 C 268.735,381.595 270.568,383.928 271,387.5C 271.996,391.207 271.33,394.541 269,397.5C 264.683,392.483 263.517,386.817 265.5,380.5 Z"/></g>
</svg>
