<?xml version="1.0" encoding="UTF-8"?>
<!DOCTYPE svg PUBLIC "-//W3C//DTD SVG 1.1//EN" "http://www.w3.org/Graphics/SVG/1.1/DTD/svg11.dtd">
<svg xmlns="http://www.w3.org/2000/svg" version="1.1" width="500px" height="500px" style="shape-rendering:geometricPrecision; text-rendering:geometricPrecision; image-rendering:optimizeQuality; fill-rule:evenodd; clip-rule:evenodd" xmlns:xlink="http://www.w3.org/1999/xlink">
<g><path style="opacity:1" fill="#fefefe" d="M -0.5,-0.5 C 166.167,-0.5 332.833,-0.5 499.5,-0.5C 499.5,166.167 499.5,332.833 499.5,499.5C 332.833,499.5 166.167,499.5 -0.5,499.5C -0.5,332.833 -0.5,166.167 -0.5,-0.5 Z"/></g>
<g><path style="opacity:1" fill="#9e6c7e" d="M 285.5,30.5 C 283.25,30.1814 281.25,30.6814 279.5,32C 283.133,32.1489 286.466,32.9823 289.5,34.5C 269.872,32.2737 250.206,31.9403 230.5,33.5C 231.263,32.7321 232.263,32.2321 233.5,32C 233.167,31.6667 232.833,31.3333 232.5,31C 227.853,30.9953 223.186,31.162 218.5,31.5C 222.944,30.1873 227.611,29.354 232.5,29C 248.5,28.3333 264.5,28.3333 280.5,29C 282.382,29.1981 284.048,29.6981 285.5,30.5 Z"/></g>
<g><path style="opacity:1" fill="#78324b" d="M 237.5,29.5 C 251.226,29.0734 264.893,29.5734 278.5,31C 263.833,31.6667 249.167,31.6667 234.5,31C 235.737,30.7679 236.737,30.2679 237.5,29.5 Z"/></g>
<g><path style="opacity:1" fill="#79344d" d="M 230.5,33.5 C 221.484,34.725 212.484,36.0583 203.5,37.5C 203.5,36.5 203.5,35.5 203.5,34.5C 208.727,34.0217 213.727,33.0217 218.5,31.5C 223.186,31.162 227.853,30.9953 232.5,31C 232.833,31.3333 233.167,31.6667 233.5,32C 232.263,32.2321 231.263,32.7321 230.5,33.5 Z"/></g>
<g><path style="opacity:1" fill="#c8abb5" d="M 286.5,30.5 C 292.503,30.3325 298.17,31.3325 303.5,33.5C 297.626,32.9508 291.959,31.9508 286.5,30.5 Z"/></g>
<g><path style="opacity:1" fill="#803f56" d="M 285.5,30.5 C 285.833,30.5 286.167,30.5 286.5,30.5C 291.959,31.9508 297.626,32.9508 303.5,33.5C 368.813,49.3037 417.48,86.8037 449.5,146C 456.351,160.552 462.017,175.552 466.5,191C 465.968,193.02 464.635,193.853 462.5,193.5C 453.037,153.588 433.704,119.421 404.5,91C 387.868,76.3539 369.868,63.6872 350.5,53C 330.935,44.1937 310.602,38.027 289.5,34.5C 286.466,32.9823 283.133,32.1489 279.5,32C 281.25,30.6814 283.25,30.1814 285.5,30.5 Z"/></g>
<g><path style="opacity:1" fill="#79334b" d="M 130.5,156.5 C 136.037,156.087 141.37,156.92 146.5,159C 147.683,161.155 147.35,163.155 145.5,165C 142.51,164.848 139.51,164.348 136.5,163.5C 129.84,164.311 128.84,167.145 133.5,172C 138.767,173.193 143.267,175.693 147,179.5C 147.821,194.99 140.655,200.49 125.5,196C 124.315,194.647 122.981,193.48 121.5,192.5C 122.333,190.833 123.167,189.167 124,187.5C 128.86,190.865 133.86,191.198 139,188.5C 139.667,186.833 139.667,185.167 139,183.5C 135.935,181.717 132.768,180.05 129.5,178.5C 123.495,175.158 121.329,170.158 123,163.5C 124.767,160.228 127.267,157.895 130.5,156.5 Z"/></g>
<g><path style="opacity:1" fill="#79334c" d="M 292.5,156.5 C 298.645,155.919 304.479,156.919 310,159.5C 310.342,161.818 309.842,163.985 308.5,166C 305.57,165.561 302.57,165.061 299.5,164.5C 289.261,165.631 285.427,171.297 288,181.5C 289.798,187.137 293.632,189.803 299.5,189.5C 302.964,189.236 306.297,188.736 309.5,188C 312.645,193.368 310.978,196.368 304.5,197C 289.34,198.838 281.006,192.171 279.5,177C 280.077,172.782 280.91,168.616 282,164.5C 284.975,160.952 288.475,158.286 292.5,156.5 Z"/></g>
<g><path style="opacity:1" fill="#7d394e" d="M 363.5,156.5 C 366.167,156.5 368.833,156.5 371.5,156.5C 371.5,170.167 371.5,183.833 371.5,197.5C 368.833,197.5 366.167,197.5 363.5,197.5C 363.5,183.833 363.5,170.167 363.5,156.5 Z"/></g>
<g><path style="opacity:1" fill="#9184b2" d="M 213.5,155.5 C 215.771,157.612 217.104,160.279 217.5,163.5C 215.229,161.388 213.896,158.721 213.5,155.5 Z"/></g>
<g><path style="opacity:1" fill="#7a324b" d="M 213.5,155.5 C 213.896,158.721 215.229,161.388 217.5,163.5C 218.11,164.391 218.443,165.391 218.5,166.5C 219.399,170.624 221.066,174.291 223.5,177.5C 226.126,184.1 228.793,190.767 231.5,197.5C 228.167,197.5 224.833,197.5 221.5,197.5C 220.833,194.5 220.167,191.5 219.5,188.5C 215.154,188.334 210.821,188.501 206.5,189C 204.725,191.383 203.392,194.05 202.5,197C 200.19,197.497 197.857,197.663 195.5,197.5C 199.18,189.213 202.347,180.546 205,171.5C 208.13,166.231 210.963,160.898 213.5,155.5 Z"/></g>
<g><path style="opacity:1" fill="#a8a7cd" d="M 218.5,166.5 C 221.093,169.554 222.759,173.22 223.5,177.5C 221.066,174.291 219.399,170.624 218.5,166.5 Z"/></g>
<g><path style="opacity:1" fill="#e7e0df" d="M 211.5,172.5 C 214.684,174.836 216.684,178.003 217.5,182C 214.854,182.497 212.187,182.664 209.5,182.5C 210.167,179.167 210.833,175.833 211.5,172.5 Z"/></g>
<g><path style="opacity:1" fill="#95a1ae" d="M 154.5,257.5 C 156.948,256.527 159.615,256.194 162.5,256.5C 162.5,257.5 162.5,258.5 162.5,259.5C 160.5,259.5 158.5,259.5 156.5,259.5C 156.5,260.5 156.5,261.5 156.5,262.5C 163.167,263.167 163.167,263.833 156.5,264.5C 156.5,265.5 156.5,266.5 156.5,267.5C 158.735,267.205 160.735,267.539 162.5,268.5C 160.167,268.5 157.833,268.5 155.5,268.5C 155.5,265.167 155.5,261.833 155.5,258.5C 157.527,258.662 159.527,258.495 161.5,258C 159.19,257.503 156.857,257.337 154.5,257.5 Z"/></g>
<g><path style="opacity:1" fill="#4b5b86" d="M 107.5,257.5 C 108.794,259.048 109.461,261.048 109.5,263.5C 109.167,265.5 108.833,267.5 108.5,269.5C 107.509,265.555 107.176,261.555 107.5,257.5 Z"/></g>
<g><path style="opacity:1" fill="#101011" d="M 136.5,258.5 C 140.991,257.259 142.324,257.259 140.5,258.5C 140.167,273.167 139.833,273.167 139.5,258.5C 138.5,258.5 137.5,258.5 136.5,258.5 Z"/></g>
<g><path style="opacity:1" fill="#5b3c68" d="M 373.5,257.5 C 374.794,259.048 375.461,261.048 375.5,263.5C 375.167,265.5 374.833,267.5 374.5,269.5C 373.509,265.555 373.176,261.555 373.5,257.5 Z"/></g>
<g><path style="opacity:1" fill="#3d3853" d="M 199.5,257.5 C 202.666,260.997 203.999,264.997 203.5,269.5C 202.614,268.675 202.281,267.675 202.5,266.5C 199.453,265.855 197.287,266.855 196,269.5C 195.517,268.552 195.351,267.552 195.5,266.5C 196.222,266.082 196.722,265.416 197,264.5C 198.356,265.38 199.856,265.714 201.5,265.5C 200.833,262.833 200.167,260.167 199.5,257.5 Z"/></g>
<g><path style="opacity:1" fill="#5e5665" d="M 393.5,268.5 C 395.677,267.635 396.677,265.968 396.5,263.5C 396.66,261.645 395.993,260.312 394.5,259.5C 388.079,258.248 386.079,260.581 388.5,266.5C 388.5,266.833 388.5,267.167 388.5,267.5C 384.537,264.462 384.537,261.295 388.5,258C 396.508,256.345 399.341,259.512 397,267.5C 395.989,268.337 394.822,268.67 393.5,268.5 Z"/></g>
<g><path style="opacity:1" fill="#785f50" d="M 91.5,261.5 C 92.3149,262.837 93.4815,263.837 95,264.5C 95.7401,265.749 95.5735,266.749 94.5,267.5C 92.6527,265.376 90.986,263.042 89.5,260.5C 89.6082,259.558 89.9415,258.725 90.5,258C 92.5787,257.192 94.5787,257.359 96.5,258.5C 95.1125,258.807 93.4458,258.807 91.5,258.5C 91.5,259.5 91.5,260.5 91.5,261.5 Z"/></g>
<g><path style="opacity:1" fill="#171b22" d="M 154.5,257.5 C 156.857,257.337 159.19,257.503 161.5,258C 159.527,258.495 157.527,258.662 155.5,258.5C 155.5,261.833 155.5,265.167 155.5,268.5C 157.833,268.5 160.167,268.5 162.5,268.5C 160.052,269.473 157.385,269.806 154.5,269.5C 154.5,265.5 154.5,261.5 154.5,257.5 Z"/></g>
<g><path style="opacity:1" fill="#4c4055" d="M 247.5,257.5 C 250.187,257.336 252.854,257.503 255.5,258C 253.527,258.495 251.527,258.662 249.5,258.5C 249.5,259.833 249.5,261.167 249.5,262.5C 256.167,263.167 256.167,263.833 249.5,264.5C 249.5,265.833 249.5,267.167 249.5,268.5C 251.527,268.338 253.527,268.505 255.5,269C 252.854,269.497 250.187,269.664 247.5,269.5C 247.5,265.5 247.5,261.5 247.5,257.5 Z"/></g>
<g><path style="opacity:1" fill="#513c42" d="M 296.5,258.5 C 300.967,257.138 302.633,257.138 301.5,258.5C 300.833,273.167 300.167,273.167 299.5,258.5C 298.5,258.5 297.5,258.5 296.5,258.5 Z"/></g>
<g><path style="opacity:1" fill="#45474b" d="M 314.5,257.5 C 317.187,257.336 319.854,257.503 322.5,258C 320.527,258.495 318.527,258.662 316.5,258.5C 316.5,259.833 316.5,261.167 316.5,262.5C 323.167,263.167 323.167,263.833 316.5,264.5C 316.5,265.833 316.5,267.167 316.5,268.5C 318.527,268.338 320.527,268.505 322.5,269C 319.854,269.497 317.187,269.664 314.5,269.5C 314.5,265.5 314.5,261.5 314.5,257.5 Z"/></g>
<g><path style="opacity:1" fill="#f3f8fb" d="M 394.5,259.5 C 394.5,261.833 394.5,264.167 394.5,266.5C 392.5,266.5 390.5,266.5 388.5,266.5C 386.079,260.581 388.079,258.248 394.5,259.5 Z"/></g>
<g><path style="opacity:1" fill="#d5ab80" d="M 282.5,258.5 C 281.345,261.328 280.011,263.995 278.5,266.5C 278.195,262.913 279.362,259.913 282,257.5C 282.399,257.728 282.565,258.062 282.5,258.5 Z"/></g>
<g><path style="opacity:1" fill="#43352d" d="M 332.5,257.5 C 335.501,260.332 338.667,262.998 342,265.5C 342.333,262.833 342.667,260.167 343,257.5C 343.667,261.167 343.667,264.833 343,268.5C 340.037,266.539 337.371,264.206 335,261.5C 334.818,264.226 334.318,266.893 333.5,269.5C 332.509,265.555 332.176,261.555 332.5,257.5 Z"/></g>
<g><path style="opacity:1" fill="#3c4355" d="M 91.5,261.5 C 96.0662,262.034 97.7329,264.367 96.5,268.5C 94.9017,269.485 93.235,269.651 91.5,269C 92.7375,268.768 93.7375,268.268 94.5,267.5C 95.5735,266.749 95.7401,265.749 95,264.5C 93.4815,263.837 92.3149,262.837 91.5,261.5 Z"/></g>
<g><path style="opacity:1" fill="#564948" d="M 121.5,257.5 C 123.288,257.215 124.955,257.548 126.5,258.5C 125.418,258.749 124.085,258.915 122.5,259C 122.043,259.414 121.709,259.914 121.5,260.5C 122.655,261.95 124.155,262.95 126,263.5C 127.015,269.442 124.848,270.942 119.5,268C 121.107,268.019 122.774,268.185 124.5,268.5C 124.5,267.167 124.5,265.833 124.5,264.5C 119.407,263.76 118.407,261.427 121.5,257.5 Z"/></g>
<g><path style="opacity:1" fill="#625961" d="M 183.5,257.5 C 185.423,261.029 186.089,265.029 185.5,269.5C 184.5,269.5 183.5,269.5 182.5,269.5C 182.662,267.473 182.495,265.473 182,263.5C 181.02,264.981 179.853,266.315 178.5,267.5C 176.851,266.352 175.351,265.019 174,263.5C 173.253,270.961 172.753,271.128 172.5,264C 172.833,262.167 173.167,260.333 173.5,258.5C 175.156,260.46 176.823,262.46 178.5,264.5C 180.422,262.313 182.088,259.98 183.5,257.5 Z"/></g>
<g><path style="opacity:1" fill="#886f66" d="M 199.5,257.5 C 200.167,260.167 200.833,262.833 201.5,265.5C 199.856,265.714 198.356,265.38 197,264.5C 196.722,265.416 196.222,266.082 195.5,266.5C 196.574,263.355 197.907,260.355 199.5,257.5 Z"/></g>
<g><path style="opacity:1" fill="#a2684c" d="M 355.5,259.5 C 354.85,261.435 354.517,263.435 354.5,265.5C 353.853,264.726 353.52,263.726 353.5,262.5C 353.64,260.97 354.307,259.97 355.5,259.5 Z"/></g>
<g><path style="opacity:1" fill="#4a4c64" d="M 354.5,265.5 C 354.517,263.435 354.85,261.435 355.5,259.5C 356.312,258.007 357.645,257.34 359.5,257.5C 360.5,257.833 361.5,258.167 362.5,258.5C 361.418,258.749 360.085,258.915 358.5,259C 354.721,265.536 356.388,268.702 363.5,268.5C 359.414,270.334 356.414,269.334 354.5,265.5 Z"/></g>
<g><path style="opacity:1" fill="#53364d" d="M 415.5,264.5 C 415.565,264.938 415.399,265.272 415,265.5C 410.285,260.292 408.452,261.626 409.5,269.5C 407.586,266.316 406.92,262.649 407.5,258.5C 410.989,259.313 413.656,261.313 415.5,264.5 Z"/></g>
<g><path style="opacity:1" fill="#4d4e66" d="M 282.5,258.5 C 284.72,261.125 286.386,264.125 287.5,267.5C 287.167,268.167 286.833,268.833 286.5,269.5C 283.939,265.622 281.439,265.622 279,269.5C 278.517,268.552 278.351,267.552 278.5,266.5C 280.011,263.995 281.345,261.328 282.5,258.5 Z"/></g>
<g><path style="opacity:1" fill="#71616b" d="M 409.5,269.5 C 408.452,261.626 410.285,260.292 415,265.5C 415.399,265.272 415.565,264.938 415.5,264.5C 416.468,262.393 416.802,260.059 416.5,257.5C 417.5,257.5 418.5,257.5 419.5,257.5C 419.666,261.514 419.499,265.514 419,269.5C 416.154,267.743 413.488,265.743 411,263.5C 410.809,265.708 410.309,267.708 409.5,269.5 Z"/></g>
<g><path style="opacity:1" fill="#3a3950" d="M 233.5,258.5 C 237.254,259.828 238.421,262.494 237,266.5C 234.358,269.029 231.192,270.029 227.5,269.5C 227.5,265.5 227.5,261.5 227.5,257.5C 229.735,257.205 231.735,257.539 233.5,258.5 Z"/></g>
<g><path style="opacity:1" fill="#e4e0dc" d="M 233.5,258.5 C 237.367,264.687 235.701,268.02 228.5,268.5C 228.5,265.167 228.5,261.833 228.5,258.5C 230.167,258.5 231.833,258.5 233.5,258.5 Z"/></g>
<g><path style="opacity:1" fill="#c6b9ae" d="M 394.5,259.5 C 395.993,260.312 396.66,261.645 396.5,263.5C 396.677,265.968 395.677,267.635 393.5,268.5C 392.796,270.344 391.463,270.844 389.5,270C 388.748,269.329 388.414,268.496 388.5,267.5C 388.5,267.167 388.5,266.833 388.5,266.5C 390.5,266.5 392.5,266.5 394.5,266.5C 394.5,264.167 394.5,261.833 394.5,259.5 Z"/></g>
<g><path style="opacity:1" fill="#3f394b" d="M 218.5,290.5 C 216.029,282.97 218.696,280.303 226.5,282.5C 224.352,282.344 222.019,282.844 219.5,284C 218.577,286.041 218.244,288.208 218.5,290.5 Z"/></g>
<g><path style="opacity:1" fill="#524348" d="M 337.5,281.5 C 339.288,281.215 340.955,281.548 342.5,282.5C 341.418,282.749 340.085,282.915 338.5,283C 338.043,283.414 337.709,283.914 337.5,284.5C 339.029,286.188 340.863,287.521 343,288.5C 343.339,292.487 341.506,293.987 337.5,293C 339.286,292.804 340.619,291.971 341.5,290.5C 339.78,289.08 337.946,287.747 336,286.5C 335.36,284.457 335.86,282.79 337.5,281.5 Z"/></g>
<g><path style="opacity:1" fill="#eaeef2" d="M 169.5,282.5 C 170.568,283.434 171.901,283.768 173.5,283.5C 173.5,286.167 173.5,288.833 173.5,291.5C 171.958,292.301 170.292,292.634 168.5,292.5C 168.187,288.958 168.521,285.625 169.5,282.5 Z"/></g>
<g><path style="opacity:1" fill="#2f2b42" d="M 187.5,281.5 C 189.857,281.337 192.19,281.503 194.5,282C 192.527,282.495 190.527,282.662 188.5,282.5C 188.5,283.833 188.5,285.167 188.5,286.5C 190.604,286.201 192.604,286.534 194.5,287.5C 192.955,288.452 191.288,288.785 189.5,288.5C 188.566,289.568 188.232,290.901 188.5,292.5C 190.527,292.338 192.527,292.505 194.5,293C 192.19,293.497 189.857,293.663 187.5,293.5C 187.5,289.5 187.5,285.5 187.5,281.5 Z"/></g>
<g><path style="opacity:1" fill="#453e52" d="M 264.5,282.5 C 263.5,282.5 262.5,282.5 261.5,282.5C 260.167,284.167 260.167,285.833 261.5,287.5C 264.828,288.851 266.161,287.517 265.5,283.5C 266.643,286.068 266.476,288.735 265,291.5C 263.89,289.963 262.39,289.297 260.5,289.5C 260.762,290.978 260.429,292.311 259.5,293.5C 258.509,289.555 258.176,285.555 258.5,281.5C 260.735,281.205 262.735,281.539 264.5,282.5 Z"/></g>
<g><path style="opacity:1" fill="#501b2b" d="M 282.5,282.5 C 281.5,282.5 280.5,282.5 279.5,282.5C 278.518,285.962 278.185,289.629 278.5,293.5C 277.517,289.702 277.183,285.702 277.5,281.5C 279.415,281.216 281.081,281.549 282.5,282.5 Z"/></g>
<g><path style="opacity:1" fill="#2f2b42" d="M 296.5,281.5 C 298.857,281.337 301.19,281.503 303.5,282C 301.527,282.495 299.527,282.662 297.5,282.5C 297.5,283.833 297.5,285.167 297.5,286.5C 299.604,286.201 301.604,286.534 303.5,287.5C 301.955,288.452 300.288,288.785 298.5,288.5C 297.566,289.568 297.232,290.901 297.5,292.5C 299.527,292.338 301.527,292.505 303.5,293C 301.19,293.497 298.857,293.663 296.5,293.5C 296.5,289.5 296.5,285.5 296.5,281.5 Z"/></g>
<g><path style="opacity:1" fill="#7f5f47" d="M 244.5,282.5 C 242.784,282.629 241.117,282.962 239.5,283.5C 238.007,284.312 237.34,285.645 237.5,287.5C 237.52,288.726 237.853,289.726 238.5,290.5C 238.5,291.167 238.5,291.833 238.5,292.5C 234.193,288.541 234.526,285.041 239.5,282C 241.387,281.22 243.054,281.387 244.5,282.5 Z"/></g>
<g><path style="opacity:1" fill="#ecece9" d="M 244.5,282.5 C 246.051,284.913 246.717,287.579 246.5,290.5C 243.878,293.148 241.211,293.148 238.5,290.5C 238.448,288.097 238.781,285.764 239.5,283.5C 241.117,282.962 242.784,282.629 244.5,282.5 Z"/></g>
<g><path style="opacity:1" fill="#dae7ec" d="M 261.5,282.5 C 262.391,283.261 263.058,284.261 263.5,285.5C 263.253,286.713 262.586,287.38 261.5,287.5C 260.167,285.833 260.167,284.167 261.5,282.5 Z"/></g>
<g><path style="opacity:1" fill="#b4926f" d="M 261.5,282.5 C 262.5,282.5 263.5,282.5 264.5,282.5C 265.167,282.5 265.5,282.833 265.5,283.5C 266.161,287.517 264.828,288.851 261.5,287.5C 262.586,287.38 263.253,286.713 263.5,285.5C 263.058,284.261 262.391,283.261 261.5,282.5 Z"/></g>
<g><path style="opacity:1" fill="#af8f6f" d="M 175.5,283.5 C 175.663,285.857 175.497,288.19 175,290.5C 174.617,291.056 174.117,291.389 173.5,291.5C 173.5,288.833 173.5,286.167 173.5,283.5C 171.901,283.768 170.568,283.434 169.5,282.5C 170.239,282.631 170.906,282.464 171.5,282C 170.207,281.51 168.873,281.343 167.5,281.5C 167.5,285.5 167.5,289.5 167.5,293.5C 166.206,291.952 165.539,289.952 165.5,287.5C 164.18,281.319 166.513,279.152 172.5,281C 173.373,282.045 174.373,282.878 175.5,283.5 Z"/></g>
<g><path style="opacity:1" fill="#476399" d="M 239.5,283.5 C 238.781,285.764 238.448,288.097 238.5,290.5C 237.853,289.726 237.52,288.726 237.5,287.5C 237.34,285.645 238.007,284.312 239.5,283.5 Z"/></g>
<g><path style="opacity:1" fill="#8d694a" d="M 244.5,282.5 C 246.027,282.427 247.027,283.094 247.5,284.5C 247.795,286.735 247.461,288.735 246.5,290.5C 246.717,287.579 246.051,284.913 244.5,282.5 Z"/></g>
<g><path style="opacity:1" fill="#505165" d="M 317.5,281.5 C 326.823,281.741 328.823,285.574 323.5,293C 319.934,293.957 316.934,293.124 314.5,290.5C 312.839,286.46 313.839,283.46 317.5,281.5 Z"/></g>
<g><path style="opacity:1" fill="#c0986b" d="M 322.5,283.5 C 323.993,284.312 324.66,285.645 324.5,287.5C 324.48,288.726 324.147,289.726 323.5,290.5C 323.552,288.097 323.219,285.764 322.5,283.5 Z"/></g>
<g><path style="opacity:1" fill="#ecefee" d="M 322.5,283.5 C 323.219,285.764 323.552,288.097 323.5,290.5C 319.296,293.53 316.629,292.364 315.5,287C 316.498,283.168 318.831,282.001 322.5,283.5 Z"/></g>
<g><path style="opacity:1" fill="#424967" d="M 279.5,282.5 C 279.5,284.5 279.5,286.5 279.5,288.5C 283.444,288.116 284.444,286.116 282.5,282.5C 283.5,282.5 284.5,282.5 285.5,282.5C 285.838,285.157 285.171,287.49 283.5,289.5C 284.833,290.62 285.333,291.953 285,293.5C 283.649,291.981 282.149,290.648 280.5,289.5C 279.828,290.949 279.161,292.282 278.5,293.5C 278.185,289.629 278.518,285.962 279.5,282.5 Z"/></g>
<g><path style="opacity:1" fill="#dbd2c1" d="M 279.5,282.5 C 280.5,282.5 281.5,282.5 282.5,282.5C 284.444,286.116 283.444,288.116 279.5,288.5C 279.5,286.5 279.5,284.5 279.5,282.5 Z"/></g>
<g><path style="opacity:1" fill="#394658" d="M 169.5,282.5 C 168.521,285.625 168.187,288.958 168.5,292.5C 170.292,292.634 171.958,292.301 173.5,291.5C 174.117,291.389 174.617,291.056 175,290.5C 175.497,288.19 175.663,285.857 175.5,283.5C 176.117,283.611 176.617,283.944 177,284.5C 178.037,291.605 174.87,294.605 167.5,293.5C 167.5,289.5 167.5,285.5 167.5,281.5C 168.873,281.343 170.207,281.51 171.5,282C 170.906,282.464 170.239,282.631 169.5,282.5 Z"/></g>
<g><path style="opacity:1" fill="#51505d" d="M 247.5,284.5 C 249.746,292.579 246.746,295.246 238.5,292.5C 238.5,291.833 238.5,291.167 238.5,290.5C 241.211,293.148 243.878,293.148 246.5,290.5C 247.461,288.735 247.795,286.735 247.5,284.5 Z"/></g>
<g><path style="opacity:1" fill="#b59f87" d="M 187.5,281.5 C 187.5,285.5 187.5,289.5 187.5,293.5C 189.857,293.663 192.19,293.497 194.5,293C 192.527,292.505 190.527,292.338 188.5,292.5C 188.232,290.901 188.566,289.568 189.5,288.5C 189.5,289.5 189.5,290.5 189.5,291.5C 191.5,291.5 193.5,291.5 195.5,291.5C 195.5,292.5 195.5,293.5 195.5,294.5C 192.5,294.5 189.5,294.5 186.5,294.5C 186.182,289.968 186.515,285.634 187.5,281.5 Z"/></g>
<g><path style="opacity:1" fill="#827f88" d="M 218.5,290.5 C 221.203,290.952 223.87,291.619 226.5,292.5C 222.957,295.524 220.291,294.857 218.5,290.5 Z"/></g>
<g><path style="opacity:1" fill="#b29c86" d="M 296.5,281.5 C 296.5,285.5 296.5,289.5 296.5,293.5C 298.857,293.663 301.19,293.497 303.5,293C 301.527,292.505 299.527,292.338 297.5,292.5C 297.232,290.901 297.566,289.568 298.5,288.5C 298.5,289.5 298.5,290.5 298.5,291.5C 300.5,291.5 302.5,291.5 304.5,291.5C 304.5,292.5 304.5,293.5 304.5,294.5C 301.5,294.5 298.5,294.5 295.5,294.5C 295.182,289.968 295.515,285.634 296.5,281.5 Z"/></g>
<g><path style="opacity:1" fill="#555476" d="M 127.5,305.5 C 128.794,307.048 129.461,309.048 129.5,311.5C 129.167,313.5 128.833,315.5 128.5,317.5C 127.509,313.555 127.176,309.555 127.5,305.5 Z"/></g>
<g><path style="opacity:1" fill="#4f465f" d="M 195.5,305.5 C 196.794,307.048 197.461,309.048 197.5,311.5C 197.167,313.5 196.833,315.5 196.5,317.5C 195.509,313.555 195.176,309.555 195.5,305.5 Z"/></g>
<g><path style="opacity:1" fill="#49344e" d="M 339.5,305.5 C 341.402,308.337 342.069,311.671 341.5,315.5C 342.952,316.302 344.618,316.802 346.5,317C 344.19,317.497 341.857,317.663 339.5,317.5C 339.5,313.5 339.5,309.5 339.5,305.5 Z"/></g>
<g><path style="opacity:1" fill="#4b2930" d="M 207.5,306.5 C 211.967,305.138 213.633,305.138 212.5,306.5C 211.833,321.167 211.167,321.167 210.5,306.5C 209.5,306.5 208.5,306.5 207.5,306.5 Z"/></g>
<g><path style="opacity:1" fill="#5a515b" d="M 279.5,305.5 C 287.804,305.278 290.137,308.778 286.5,316C 282.684,318.332 279.351,317.832 276.5,314.5C 274.664,310.45 275.664,307.45 279.5,305.5 Z"/></g>
<g><path style="opacity:1" fill="#3e352e" d="M 359.5,312.5 C 358.566,313.568 358.232,314.901 358.5,316.5C 360.527,316.338 362.527,316.505 364.5,317C 362.19,317.497 359.857,317.663 357.5,317.5C 356.517,313.702 356.183,309.702 356.5,305.5C 359.187,305.336 361.854,305.503 364.5,306C 362.527,306.495 360.527,306.662 358.5,306.5C 358.5,307.833 358.5,309.167 358.5,310.5C 360.604,310.201 362.604,310.534 364.5,311.5C 362.955,312.452 361.288,312.785 359.5,312.5 Z"/></g>
<g><path style="opacity:1" fill="#433a4a" d="M 177.5,306.5 C 181.967,305.138 183.633,305.138 182.5,306.5C 181.833,321.167 181.167,321.167 180.5,306.5C 179.5,306.5 178.5,306.5 177.5,306.5 Z"/></g>
<g><path style="opacity:1" fill="#efebe3" d="M 280.5,306.5 C 286.023,306.562 287.856,309.229 286,314.5C 281.777,317.705 279.277,316.705 278.5,311.5C 278.437,309.486 279.103,307.819 280.5,306.5 Z"/></g>
<g><path style="opacity:1" fill="#533040" d="M 139.5,305.5 C 142.464,307.962 145.297,310.629 148,313.5C 148.182,310.774 148.682,308.107 149.5,305.5C 150.66,309.459 150.827,313.459 150,317.5C 147.651,314.983 145.151,312.65 142.5,310.5C 141.833,312.833 141.167,315.167 140.5,317.5C 139.509,313.555 139.176,309.555 139.5,305.5 Z"/></g>
<g><path style="opacity:1" fill="#454042" d="M 307.5,305.5 C 308.787,306.871 309.453,308.705 309.5,311C 309.167,312.833 308.833,314.667 308.5,316.5C 306.167,314.5 303.833,312.5 301.5,310.5C 300.833,312.833 300.167,315.167 299.5,317.5C 298.167,313.833 298.167,310.167 299.5,306.5C 301.833,308.5 304.167,310.5 306.5,312.5C 307.474,310.257 307.808,307.924 307.5,305.5 Z"/></g>
<g><path style="opacity:1" fill="#c49559" d="M 245.5,307.5 C 244.167,310.167 244.167,312.833 245.5,315.5C 244.007,314.688 243.34,313.355 243.5,311.5C 243.34,309.645 244.007,308.312 245.5,307.5 Z"/></g>
<g><path style="opacity:1" fill="#484149" d="M 380.5,317.5 C 379.127,317.657 377.793,317.49 376.5,317C 378.101,316.727 379.601,316.227 381,315.5C 381.585,314.002 381.085,313.002 379.5,312.5C 375.775,312.22 374.608,310.22 376,306.5C 378.292,305.092 380.459,305.259 382.5,307C 376.271,307.8 376.105,309.633 382,312.5C 382.877,314.674 382.377,316.341 380.5,317.5 Z"/></g>
<g><path style="opacity:1" fill="#343141" d="M 324.5,305.5 C 327.304,310.141 328.304,313.141 327.5,314.5C 324.921,314.083 322.754,314.75 321,316.5C 321.057,312.496 322.224,308.829 324.5,305.5 Z"/></g>
<g><path style="opacity:1" fill="#ab9274" d="M 324.5,309.5 C 327.347,311.798 327.013,313.131 323.5,313.5C 323.433,312.041 323.766,310.708 324.5,309.5 Z"/></g>
<g><path style="opacity:1" fill="#4c4453" d="M 245.5,315.5 C 244.167,312.833 244.167,310.167 245.5,307.5C 247.455,305.674 249.788,305.174 252.5,306C 246.477,307.441 245.144,310.774 248.5,316C 249.833,316.333 251.167,316.667 252.5,317C 249.829,317.833 247.496,317.333 245.5,315.5 Z"/></g>
<g><path style="opacity:1" fill="#5e575a" d="M 162.5,305.5 C 164.199,305.34 165.866,305.506 167.5,306C 168.696,306.654 168.696,307.154 167.5,307.5C 166.264,306.754 164.93,306.421 163.5,306.5C 163.351,307.552 163.517,308.552 164,309.5C 168.58,311.171 169.413,313.837 166.5,317.5C 164.926,318.631 163.259,318.798 161.5,318C 160.289,317.107 160.289,316.274 161.5,315.5C 163.586,317.023 165.252,316.69 166.5,314.5C 165.135,313.059 163.635,311.726 162,310.5C 161.36,308.735 161.527,307.068 162.5,305.5 Z"/></g>
<g><path style="opacity:1" fill="#5e505d" d="M 232.5,305.5 C 233.777,306.694 234.444,308.36 234.5,310.5C 235.161,316.008 232.828,318.175 227.5,317C 226.304,316.346 226.304,315.846 227.5,315.5C 229.042,316.747 230.542,316.747 232,315.5C 232.498,312.183 232.665,308.85 232.5,305.5 Z"/></g>
<g><path style="opacity:1" fill="#aa998a" d="M 379.5,312.5 C 381.085,313.002 381.585,314.002 381,315.5C 379.601,316.227 378.101,316.727 376.5,317C 377.793,317.49 379.127,317.657 380.5,317.5C 378.777,318.807 376.943,318.807 375,317.5C 374.833,317.167 374.667,316.833 374.5,316.5C 376.045,315.548 377.712,315.215 379.5,315.5C 379.5,314.5 379.5,313.5 379.5,312.5 Z"/></g>
<g><path style="opacity:1" fill="#9b857e" d="M 339.5,305.5 C 339.5,309.5 339.5,313.5 339.5,317.5C 341.857,317.663 344.19,317.497 346.5,317C 344.618,316.802 342.952,316.302 341.5,315.5C 343.5,315.5 345.5,315.5 347.5,315.5C 347.5,316.5 347.5,317.5 347.5,318.5C 344.5,318.5 341.5,318.5 338.5,318.5C 338.182,313.968 338.515,309.634 339.5,305.5 Z"/></g>
<g><path style="opacity:1" fill="#9ba0ae" d="M 359.5,312.5 C 359.5,313.5 359.5,314.5 359.5,315.5C 361.5,315.5 363.5,315.5 365.5,315.5C 365.5,316.5 365.5,317.5 365.5,318.5C 362.615,318.806 359.948,318.473 357.5,317.5C 359.857,317.663 362.19,317.497 364.5,317C 362.527,316.505 360.527,316.338 358.5,316.5C 358.232,314.901 358.566,313.568 359.5,312.5 Z"/></g>
<g><path style="opacity:1" fill="#6c5d59" d="M 241.5,386.5 C 246.501,385.671 248.668,387.671 248,392.5C 246.644,393.38 245.144,393.714 243.5,393.5C 243.785,395.288 243.452,396.955 242.5,398.5C 241.509,394.555 241.176,390.555 241.5,386.5 Z"/></g>
<g><path style="opacity:1" fill="#e7e9e4" d="M 243.5,388.5 C 244.5,388.5 245.5,388.5 246.5,388.5C 246.5,389.833 246.5,391.167 246.5,392.5C 245.5,392.5 244.5,392.5 243.5,392.5C 243.5,391.167 243.5,389.833 243.5,388.5 Z"/></g>
<g><path style="opacity:1" fill="#455770" d="M 265.5,386.5 C 266.808,390.019 266.808,393.685 265.5,397.5C 263.833,395.167 261.833,393.167 259.5,391.5C 258.686,393.766 258.186,396.1 258,398.5C 257.175,394.789 257.341,391.122 258.5,387.5C 260.455,389.958 262.622,392.291 265,394.5C 265.497,391.854 265.664,389.187 265.5,386.5 Z"/></g>
<g><path style="opacity:1" fill="#814056" d="M 239.5,456.5 C 252.327,457.331 265.327,457.831 278.5,458C 277.584,458.278 276.918,458.778 276.5,459.5C 189.722,464.117 121.889,430.784 73,359.5C 67.4817,349.291 62.1484,338.958 57,328.5C 53.513,317.876 50.3463,307.21 47.5,296.5C 48.8333,296.5 50.1667,296.5 51.5,296.5C 67.8459,358.34 104.179,404.507 160.5,435C 167.584,437.25 174.418,440.083 181,443.5C 189.266,445.88 197.433,448.38 205.5,451C 216.726,453.532 228.059,455.366 239.5,456.5 Z"/></g>
<g><path style="opacity:1" fill="#7d3a51" d="M 296.5,456.5 C 291.817,457.002 287.15,457.669 282.5,458.5C 281.263,458.444 280.263,457.944 279.5,457C 281.833,456.667 284.167,456.333 286.5,456C 287.056,455.617 287.389,455.117 287.5,454.5C 295.187,453.274 302.854,451.941 310.5,450.5C 310.67,451.822 310.337,452.989 309.5,454C 305.166,454.9 300.832,455.734 296.5,456.5 Z"/></g>
<g><path style="opacity:1" fill="#9f6e7f" d="M 287.5,454.5 C 287.389,455.117 287.056,455.617 286.5,456C 284.167,456.333 281.833,456.667 279.5,457C 280.263,457.944 281.263,458.444 282.5,458.5C 287.15,457.669 291.817,457.002 296.5,456.5C 290.166,458.787 283.5,459.787 276.5,459.5C 276.918,458.778 277.584,458.278 278.5,458C 265.327,457.831 252.327,457.331 239.5,456.5C 255.578,456.917 271.578,456.251 287.5,454.5 Z"/></g>
</svg>
