<?xml version="1.0" encoding="UTF-8"?>
<!DOCTYPE svg PUBLIC "-//W3C//DTD SVG 1.1//EN" "http://www.w3.org/Graphics/SVG/1.1/DTD/svg11.dtd">
<svg xmlns="http://www.w3.org/2000/svg" version="1.1" width="500px" height="500px" style="shape-rendering:geometricPrecision; text-rendering:geometricPrecision; image-rendering:optimizeQuality; fill-rule:evenodd; clip-rule:evenodd" xmlns:xlink="http://www.w3.org/1999/xlink">
<g><path style="opacity:1" fill="#fefefe" d="M -0.5,-0.5 C 166.167,-0.5 332.833,-0.5 499.5,-0.5C 499.5,166.167 499.5,332.833 499.5,499.5C 332.833,499.5 166.167,499.5 -0.5,499.5C -0.5,332.833 -0.5,166.167 -0.5,-0.5 Z"/></g>
<g><path style="opacity:1" fill="#713b50" d="M 269.5,31.5 C 269.611,32.1174 269.944,32.6174 270.5,33C 256.833,33.6667 243.167,33.6667 229.5,33C 230.737,32.7679 231.737,32.2679 232.5,31.5C 244.822,30.2724 257.155,30.2724 269.5,31.5 Z"/></g>
<g><path style="opacity:1" fill="#977080" d="M 222.5,32.5 C 225.625,31.5206 228.958,31.1872 232.5,31.5C 231.737,32.2679 230.737,32.7679 229.5,33C 243.167,33.6667 256.833,33.6667 270.5,33C 269.944,32.6174 269.611,32.1174 269.5,31.5C 272.059,31.1984 274.393,31.5318 276.5,32.5C 274.447,32.4021 272.78,33.0687 271.5,34.5C 257.167,34.5 242.833,34.5 228.5,34.5C 227.01,32.7202 225.01,32.0535 222.5,32.5 Z"/></g>
<g><path style="opacity:1" fill="#c4acb6" d="M 283.5,33.5 C 288.596,33.0439 293.262,34.0439 297.5,36.5C 292.64,35.8669 287.973,34.8669 283.5,33.5 Z"/></g>
<g><path style="opacity:1" fill="#79465a" d="M 222.5,32.5 C 225.01,32.0535 227.01,32.7202 228.5,34.5C 219.212,35.7161 209.879,37.3827 200.5,39.5C 200.36,37.8762 201.027,36.7096 202.5,36C 209.07,34.1896 215.737,33.0229 222.5,32.5 Z"/></g>
<g><path style="opacity:1" fill="#713c51" d="M 276.5,32.5 C 278.607,33.4682 280.941,33.8016 283.5,33.5C 287.973,34.8669 292.64,35.8669 297.5,36.5C 373.634,57.1328 422.967,105.299 445.5,181C 445.231,182.607 444.397,183.774 443,184.5C 422.274,111.772 375.774,63.9388 303.5,41C 292.886,37.8493 282.219,35.6826 271.5,34.5C 272.78,33.0687 274.447,32.4021 276.5,32.5 Z"/></g>
<g><path style="opacity:1" fill="#7a354d" d="M 139.5,188.5 C 150.215,187.977 160.548,189.644 170.5,193.5C 170.222,191.654 170.889,190.32 172.5,189.5C 173.497,197.138 173.831,204.804 173.5,212.5C 172.167,212.5 170.833,212.5 169.5,212.5C 168.285,199.291 160.952,192.624 147.5,192.5C 133.858,192.471 128.191,199.138 130.5,212.5C 126.5,212.5 122.5,212.5 118.5,212.5C 118.006,203.987 121.339,197.487 128.5,193C 132.266,191.441 135.932,189.941 139.5,188.5 Z"/></g>
<g><path style="opacity:1" fill="#79344c" d="M 310.5,188.5 C 320.843,187.735 330.843,189.235 340.5,193C 342.305,193.972 343.972,195.139 345.5,196.5C 346.308,194.577 346.808,192.577 347,190.5C 348.011,189.663 349.178,189.33 350.5,189.5C 350.5,197.167 350.5,204.833 350.5,212.5C 349.022,212.762 347.689,212.429 346.5,211.5C 337.119,192.397 322.785,187.564 303.5,197C 299.191,201.145 295.858,205.979 293.5,211.5C 289.555,212.491 285.555,212.824 281.5,212.5C 287.053,199.553 296.72,191.553 310.5,188.5 Z"/></g>
<g><path style="opacity:1" fill="#78324b" d="M 224.5,189.5 C 227.325,189.162 229.492,190.162 231,192.5C 233.246,198.92 235.746,205.253 238.5,211.5C 234.555,212.491 230.555,212.824 226.5,212.5C 224.988,204.749 223.322,204.749 221.5,212.5C 219.833,212.5 218.167,212.5 216.5,212.5C 218.397,204.583 221.064,196.917 224.5,189.5 Z"/></g>
<g><path style="opacity:1" fill="#732b45" d="M 363.5,189.5 C 374.5,189.5 385.5,189.5 396.5,189.5C 396.5,190.5 396.5,191.5 396.5,192.5C 392.833,192.5 389.167,192.5 385.5,192.5C 385.5,199.167 385.5,205.833 385.5,212.5C 381.833,212.5 378.167,212.5 374.5,212.5C 374.5,205.833 374.5,199.167 374.5,192.5C 370.833,192.5 367.167,192.5 363.5,192.5C 363.5,191.5 363.5,190.5 363.5,189.5 Z"/></g>
<g><path style="opacity:1" fill="#c8abb6" d="M 363.5,189.5 C 363.5,190.5 363.5,191.5 363.5,192.5C 367.167,192.5 370.833,192.5 374.5,192.5C 374.5,199.167 374.5,205.833 374.5,212.5C 373.51,206.355 373.177,200.022 373.5,193.5C 369.833,193.5 366.167,193.5 362.5,193.5C 362.232,191.901 362.566,190.568 363.5,189.5 Z"/></g>
<g><path style="opacity:1" fill="#bc99a6" d="M 396.5,189.5 C 397.434,190.568 397.768,191.901 397.5,193.5C 393.833,193.5 390.167,193.5 386.5,193.5C 386.823,200.022 386.49,206.355 385.5,212.5C 385.5,205.833 385.5,199.167 385.5,192.5C 389.167,192.5 392.833,192.5 396.5,192.5C 396.5,191.5 396.5,190.5 396.5,189.5 Z"/></g>
<g><path style="opacity:1" fill="#1f1b20" d="M 69.5,227.5 C 72.0217,227.128 74.0217,227.961 75.5,230C 73.4731,229.502 71.4731,229.669 69.5,230.5C 71.1083,231.318 72.7749,231.985 74.5,232.5C 75.9246,237.657 73.9246,239.49 68.5,238C 67.6433,237.311 66.9767,236.478 66.5,235.5C 68.741,235.502 71.0743,235.168 73.5,234.5C 71.8917,233.682 70.2251,233.015 68.5,232.5C 67.3162,230.533 67.6495,228.866 69.5,227.5 Z"/></g>
<g><path style="opacity:1" fill="#24162c" d="M 140.5,227.5 C 141.787,228.871 142.453,230.705 142.5,233C 142.167,234.833 141.833,236.667 141.5,238.5C 139.557,238.535 137.557,238.202 135.5,237.5C 135.205,235.265 135.539,233.265 136.5,231.5C 137.568,230.566 138.901,230.232 140.5,230.5C 140.5,229.5 140.5,228.5 140.5,227.5 Z"/></g>
<g><path style="opacity:1" fill="#130439" d="M 413.5,227.5 C 414.787,228.871 415.453,230.705 415.5,233C 415.167,234.833 414.833,236.667 414.5,238.5C 413.511,234.893 413.177,231.226 413.5,227.5 Z"/></g>
<g><path style="opacity:1" fill="#935625" d="M 91.5,228.5 C 91.4431,229.609 91.1098,230.609 90.5,231.5C 89.5354,230.279 89.702,228.946 91,227.5C 91.3988,227.728 91.5654,228.062 91.5,228.5 Z"/></g>
<g><path style="opacity:1" fill="#606ca6" d="M 78.5,226.5 C 79.7943,228.048 80.4609,230.048 80.5,232.5C 80.1667,234.5 79.8333,236.5 79.5,238.5C 78.5091,234.555 78.1758,230.555 78.5,226.5 Z"/></g>
<g><path style="opacity:1" fill="#4f4148" d="M 113.5,238.5 C 113.808,236.076 113.474,233.743 112.5,231.5C 111.893,231.624 111.56,231.957 111.5,232.5C 109.692,233.918 109.025,235.918 109.5,238.5C 108.5,238.5 107.5,238.5 106.5,238.5C 106.5,235.5 106.5,232.5 106.5,229.5C 110.5,229.833 114.5,230.167 118.5,230.5C 118.353,240.277 117.353,240.611 115.5,231.5C 114.832,233.969 114.165,236.302 113.5,238.5 Z"/></g>
<g><path style="opacity:1" fill="#322b38" d="M 121.5,230.5 C 127.396,229.848 129.73,232.515 128.5,238.5C 125.881,238.768 123.381,238.435 121,237.5C 120.251,236.365 120.417,235.365 121.5,234.5C 122.795,233.902 124.128,233.402 125.5,233C 123.563,232.878 122.23,232.045 121.5,230.5 Z"/></g>
<g><path style="opacity:1" fill="#231617" d="M 168.5,228.5 C 169.931,229.082 171.264,229.915 172.5,231C 169.906,233.072 169.906,235.239 172.5,237.5C 171.349,238.731 170.183,238.731 169,237.5C 168.13,234.385 167.964,231.385 168.5,228.5 Z"/></g>
<g><path style="opacity:1" fill="#443839" d="M 195.5,229.5 C 198.022,229.128 200.022,229.961 201.5,232C 199.527,232.495 197.527,232.662 195.5,232.5C 195.33,233.822 195.663,234.989 196.5,236C 198.313,235.954 199.979,236.12 201.5,236.5C 195.714,239.888 193.214,238.221 194,231.5C 194.717,230.956 195.217,230.289 195.5,229.5 Z"/></g>
<g><path style="opacity:1" fill="#b29360" d="M 205.5,227.5 C 204.518,230.962 204.185,234.629 204.5,238.5C 203.213,237.129 202.547,235.295 202.5,233C 202.667,231.167 202.833,229.333 203,227.5C 203.977,226.226 204.811,226.226 205.5,227.5 Z"/></g>
<g><path style="opacity:1" fill="#6271a7" d="M 205.5,227.5 C 206.161,229.134 206.494,230.967 206.5,233C 206.453,235.295 205.787,237.129 204.5,238.5C 204.185,234.629 204.518,230.962 205.5,227.5 Z"/></g>
<g><path style="opacity:1" fill="#655349" d="M 213.5,230.5 C 212.448,230.351 211.448,230.517 210.5,231C 211.737,231.232 212.737,231.732 213.5,232.5C 212.167,232.5 210.833,232.5 209.5,232.5C 208.566,233.568 208.232,234.901 208.5,236.5C 206.668,233.046 207.668,230.713 211.5,229.5C 212.416,229.543 213.083,229.876 213.5,230.5 Z"/></g>
<g><path style="opacity:1" fill="#1a1225" d="M 232.5,237.5 C 232.298,235.05 232.631,232.717 233.5,230.5C 234.833,230.5 236.167,230.5 237.5,230.5C 237.281,229.325 237.614,228.325 238.5,227.5C 239.833,231.167 239.833,234.833 238.5,238.5C 236.557,238.535 234.557,238.202 232.5,237.5 Z"/></g>
<g><path style="opacity:1" fill="#281d2d" d="M 273.5,231.5 C 273.5,233.167 273.5,234.833 273.5,236.5C 267.209,239.709 264.876,237.876 266.5,231C 268.929,230.297 271.262,230.463 273.5,231.5 Z"/></g>
<g><path style="opacity:1" fill="#301d23" d="M 320.5,230.5 C 322.369,232.635 323.036,235.302 322.5,238.5C 320.631,236.365 319.964,233.698 320.5,230.5 Z"/></g>
<g><path style="opacity:1" fill="#709dbc" d="M 322.5,238.5 C 323.036,235.302 322.369,232.635 320.5,230.5C 320.238,229.022 320.571,227.689 321.5,226.5C 322.086,226.709 322.586,227.043 323,227.5C 323.81,231.358 323.643,235.024 322.5,238.5 Z"/></g>
<g><path style="opacity:1" fill="#41537d" d="M 350.5,227.5 C 351.787,228.871 352.453,230.705 352.5,233C 352.167,234.833 351.833,236.667 351.5,238.5C 350.511,234.893 350.177,231.226 350.5,227.5 Z"/></g>
<g><path style="opacity:1" fill="#9e4635" d="M 362.5,229.5 C 361.631,231.717 361.298,234.05 361.5,236.5C 360.848,235.551 360.514,234.385 360.5,233C 360.608,231.319 361.275,230.152 362.5,229.5 Z"/></g>
<g><path style="opacity:1" fill="#33282a" d="M 371.5,230.5 C 374.073,230.148 376.406,230.648 378.5,232C 377.328,232.353 376.162,232.187 375,231.5C 372.5,232.333 372,233.833 373.5,236C 375.313,235.954 376.979,236.12 378.5,236.5C 374.49,239.667 371.823,238.834 370.5,234C 370.648,232.744 370.982,231.577 371.5,230.5 Z"/></g>
<g><path style="opacity:1" fill="#936d59" d="M 379.5,226.5 C 380.496,226.414 381.329,226.748 382,227.5C 382.499,231.152 382.665,234.818 382.5,238.5C 381.5,238.5 380.5,238.5 379.5,238.5C 379.5,234.5 379.5,230.5 379.5,226.5 Z"/></g>
<g><path style="opacity:1" fill="#30242c" d="M 400.5,238.5 C 400.5,236.167 400.5,233.833 400.5,231.5C 399.209,231.263 398.209,231.596 397.5,232.5C 396.835,234.369 396.169,236.369 395.5,238.5C 394.52,235.914 394.187,233.247 394.5,230.5C 397.119,230.232 399.619,230.565 402,231.5C 402.167,232.667 402.333,233.833 402.5,235C 402.392,236.681 401.725,237.848 400.5,238.5 Z"/></g>
<g><path style="opacity:1" fill="#2c1f25" d="M 183.5,230.5 C 190.878,228.874 193.211,231.541 190.5,238.5C 189.526,236.257 189.192,233.924 189.5,231.5C 188.5,231.5 187.5,231.5 186.5,231.5C 186.5,233.833 186.5,236.167 186.5,238.5C 185.5,238.5 184.5,238.5 183.5,238.5C 183.5,235.833 183.5,233.167 183.5,230.5 Z"/></g>
<g><path style="opacity:1" fill="#341a16" d="M 282.5,230.5 C 286.838,230.622 287.172,230.955 283.5,231.5C 283.5,233.833 283.5,236.167 283.5,238.5C 282.833,238.5 282.167,238.5 281.5,238.5C 281.194,235.615 281.527,232.948 282.5,230.5 Z"/></g>
<g><path style="opacity:1" fill="#758da5" d="M 282.5,230.5 C 282.5,230.167 282.5,229.833 282.5,229.5C 284.167,229.5 285.833,229.5 287.5,229.5C 287.5,230.5 287.5,231.5 287.5,232.5C 286.5,232.5 285.5,232.5 284.5,232.5C 284.795,234.735 284.461,236.735 283.5,238.5C 283.5,236.167 283.5,233.833 283.5,231.5C 287.172,230.955 286.838,230.622 282.5,230.5 Z"/></g>
<g><path style="opacity:1" fill="#222e41" d="M 91.5,228.5 C 95.9023,229.054 96.5689,230.887 93.5,234C 96.7536,237.211 96.087,238.711 91.5,238.5C 91.8016,235.941 91.4682,233.607 90.5,231.5C 91.1098,230.609 91.4431,229.609 91.5,228.5 Z"/></g>
<g><path style="opacity:1" fill="#34110b" d="M 113.5,238.5 C 111.692,237.082 111.025,235.082 111.5,232.5C 111.56,231.957 111.893,231.624 112.5,231.5C 113.474,233.743 113.808,236.076 113.5,238.5 Z"/></g>
<g><path style="opacity:1" fill="#e6e6e2" d="M 136.5,231.5 C 137.5,231.5 138.5,231.5 139.5,231.5C 139.5,233.167 139.5,234.833 139.5,236.5C 138.5,236.5 137.5,236.5 136.5,236.5C 136.5,234.833 136.5,233.167 136.5,231.5 Z"/></g>
<g><path style="opacity:1" fill="#291c1f" d="M 223.5,238.5 C 223.5,236.167 223.5,233.833 223.5,231.5C 222.209,231.263 221.209,231.596 220.5,232.5C 219.835,234.369 219.169,236.369 218.5,238.5C 217.52,235.914 217.187,233.247 217.5,230.5C 220.119,230.232 222.619,230.565 225,231.5C 225.167,232.667 225.333,233.833 225.5,235C 225.392,236.681 224.725,237.848 223.5,238.5 Z"/></g>
<g><path style="opacity:1" fill="#2e2425" d="M 242.5,230.5 C 244.527,230.338 246.527,230.505 248.5,231C 249.337,232.011 249.67,233.178 249.5,234.5C 247.712,234.215 246.045,234.548 244.5,235.5C 245.651,236.731 246.817,236.731 248,235.5C 248.617,236.449 248.451,237.282 247.5,238C 241.785,238.401 240.119,235.901 242.5,230.5 Z"/></g>
<g><path style="opacity:1" fill="#504345" d="M 257.5,229.5 C 260.022,229.128 262.022,229.961 263.5,232C 261.866,232.494 260.199,232.66 258.5,232.5C 258.5,233.833 258.5,235.167 258.5,236.5C 260.109,236.094 261.443,236.094 262.5,236.5C 260.515,238.933 258.348,238.933 256,236.5C 255.167,233.829 255.667,231.496 257.5,229.5 Z"/></g>
<g><path style="opacity:1" fill="#30231c" d="M 343.5,227.5 C 347.347,229.058 348.014,231.225 345.5,234C 345.844,235.365 346.511,236.532 347.5,237.5C 346.349,238.731 345.183,238.731 344,237.5C 343.028,234.087 342.862,230.753 343.5,227.5 Z"/></g>
<g><path style="opacity:1" fill="#301b15" d="M 354.5,228.5 C 355.931,229.082 357.264,229.915 358.5,231C 355.906,233.072 355.906,235.239 358.5,237.5C 357.349,238.731 356.183,238.731 355,237.5C 354.502,234.518 354.335,231.518 354.5,228.5 Z"/></g>
<g><path style="opacity:1" fill="#3c3336" d="M 82.5,229.5 C 85.0217,229.128 87.0217,229.961 88.5,232C 86.7749,231.591 85.1082,231.758 83.5,232.5C 84.7287,233.281 86.062,233.781 87.5,234C 88.9255,235.714 88.5922,237.047 86.5,238C 85.2068,238.49 83.8734,238.657 82.5,238.5C 82.3505,237.448 82.5172,236.448 83,235.5C 84.0495,236.517 85.2161,236.684 86.5,236C 85.0953,234.731 83.4286,234.231 81.5,234.5C 81.366,232.708 81.6993,231.042 82.5,229.5 Z"/></g>
<g><path style="opacity:1" fill="#6f4933" d="M 140.5,227.5 C 140.5,228.5 140.5,229.5 140.5,230.5C 138.901,230.232 137.568,230.566 136.5,231.5C 135.539,233.265 135.205,235.265 135.5,237.5C 133.559,235.989 133.059,233.989 134,231.5C 136.255,230.239 138.422,228.906 140.5,227.5 Z"/></g>
<g><path style="opacity:1" fill="#1f191b" d="M 146.5,230.5 C 149.95,229.756 151.616,231.09 151.5,234.5C 149.712,234.215 148.045,234.548 146.5,235.5C 148.006,236.747 149.506,236.747 151,235.5C 151.464,236.094 151.631,236.761 151.5,237.5C 147.313,239.542 144.98,238.209 144.5,233.5C 144.453,231.962 145.12,230.962 146.5,230.5 Z"/></g>
<g><path style="opacity:1" fill="#292129" d="M 160.5,230.5 C 162.144,230.286 163.644,230.62 165,231.5C 165.497,233.81 165.663,236.143 165.5,238.5C 163.167,238.5 160.833,238.5 158.5,238.5C 157.874,234.625 159.541,232.791 163.5,233C 162.167,232.667 160.833,232.333 159.5,232C 160.056,231.617 160.389,231.117 160.5,230.5 Z"/></g>
<g><path style="opacity:1" fill="#a38056" d="M 220.5,232.5 C 221.209,231.596 222.209,231.263 223.5,231.5C 223.5,233.833 223.5,236.167 223.5,238.5C 223.06,236.156 222.06,234.156 220.5,232.5 Z"/></g>
<g><path style="opacity:1" fill="#795632" d="M 233.5,230.5 C 232.631,232.717 232.298,235.05 232.5,237.5C 230.559,235.989 230.059,233.989 231,231.5C 231.671,230.748 232.504,230.414 233.5,230.5 Z"/></g>
<g><path style="opacity:1" fill="#d8cec3" d="M 234.5,231.5 C 237.084,232.048 238.084,233.715 237.5,236.5C 236.167,236.5 234.833,236.5 233.5,236.5C 233.366,234.708 233.699,233.042 234.5,231.5 Z"/></g>
<g><path style="opacity:1" fill="#dadad2" d="M 267.5,231.5 C 270.91,231.384 272.244,233.05 271.5,236.5C 270.167,236.5 268.833,236.5 267.5,236.5C 267.5,234.833 267.5,233.167 267.5,231.5 Z"/></g>
<g><path style="opacity:1" fill="#23222a" d="M 289.5,230.5 C 297.903,231.581 298.236,233.248 290.5,235.5C 291.776,236.645 293.109,236.645 294.5,235.5C 295.833,236.167 295.833,236.833 294.5,237.5C 288.805,238.446 287.138,236.112 289.5,230.5 Z"/></g>
<g><path style="opacity:1" fill="#363242" d="M 331.5,238.5 C 331.975,235.918 331.308,233.918 329.5,232.5C 329.44,231.957 329.107,231.624 328.5,231.5C 327.526,233.743 327.192,236.076 327.5,238.5C 326.5,238.5 325.5,238.5 324.5,238.5C 324.5,235.833 324.5,233.167 324.5,230.5C 332.019,229.007 334.352,231.674 331.5,238.5 Z"/></g>
<g><path style="opacity:1" fill="#65411d" d="M 329.5,232.5 C 331.308,233.918 331.975,235.918 331.5,238.5C 329.692,237.082 329.025,235.082 329.5,232.5 Z"/></g>
<g><path style="opacity:1" fill="#95754f" d="M 397.5,232.5 C 398.209,231.596 399.209,231.263 400.5,231.5C 400.5,233.833 400.5,236.167 400.5,238.5C 400.06,236.156 399.06,234.156 397.5,232.5 Z"/></g>
<g><path style="opacity:1" fill="#2c2626" d="M 405.5,229.5 C 407.144,229.286 408.644,229.62 410,230.5C 410.497,233.146 410.664,235.813 410.5,238.5C 408.5,238.5 406.5,238.5 404.5,238.5C 403.79,235.14 405.124,233.307 408.5,233C 407.062,232.781 405.729,232.281 404.5,231.5C 404.863,230.817 405.196,230.15 405.5,229.5 Z"/></g>
<g><path style="opacity:1" fill="#2d2427" d="M 418.5,230.5 C 420.527,230.338 422.527,230.505 424.5,231C 425.337,232.011 425.67,233.178 425.5,234.5C 423.712,234.215 422.045,234.548 420.5,235.5C 421.651,236.731 422.817,236.731 424,235.5C 424.617,236.449 424.451,237.282 423.5,238C 417.785,238.401 416.119,235.901 418.5,230.5 Z"/></g>
<g><path style="opacity:1" fill="#2e2123" d="M 428.5,230.5 C 430.288,230.215 431.955,230.548 433.5,231.5C 432.167,231.833 430.833,232.167 429.5,232.5C 431.435,233.068 432.768,234.235 433.5,236C 433.266,237.732 432.266,238.566 430.5,238.5C 429,238.547 428,237.881 427.5,236.5C 428.687,236.446 430.02,236.113 431.5,235.5C 430.311,234.571 428.978,234.238 427.5,234.5C 427.433,233.041 427.766,231.708 428.5,230.5 Z"/></g>
<g><path style="opacity:1" fill="#a6afba" d="M 146.5,230.5 C 148.223,229.193 150.057,229.193 152,230.5C 152.796,233.039 152.629,235.372 151.5,237.5C 151.631,236.761 151.464,236.094 151,235.5C 149.506,236.747 148.006,236.747 146.5,235.5C 148.045,234.548 149.712,234.215 151.5,234.5C 151.616,231.09 149.95,229.756 146.5,230.5 Z"/></g>
<g><path style="opacity:1" fill="#2f2a2d" d="M 97.5,230.5 C 99.5273,230.338 101.527,230.505 103.5,231C 104.337,232.011 104.67,233.178 104.5,234.5C 102.712,234.215 101.045,234.548 99.5,235.5C 100.651,236.731 101.817,236.731 103,235.5C 103.617,236.449 103.451,237.282 102.5,238C 96.7853,238.401 95.1187,235.901 97.5,230.5 Z"/></g>
<g><path style="opacity:1" fill="#221f25" d="M 175.5,230.5 C 179.241,229.599 181.241,230.932 181.5,234.5C 179.712,234.215 178.045,234.548 176.5,235.5C 178.338,236.189 180.005,236.522 181.5,236.5C 178.123,239.485 175.79,238.819 174.5,234.5C 174.846,233.151 175.179,231.817 175.5,230.5 Z"/></g>
<g><path style="opacity:1" fill="#241722" d="M 213.5,230.5 C 215.441,232.011 215.941,234.011 215,236.5C 212.707,239.134 210.54,239.134 208.5,236.5C 208.232,234.901 208.566,233.568 209.5,232.5C 209.5,233.833 209.5,235.167 209.5,236.5C 210.833,236.5 212.167,236.5 213.5,236.5C 213.5,235.167 213.5,233.833 213.5,232.5C 212.737,231.732 211.737,231.232 210.5,231C 211.448,230.517 212.448,230.351 213.5,230.5 Z"/></g>
<g><path style="opacity:1" fill="#dbe0dd" d="M 209.5,232.5 C 210.833,232.5 212.167,232.5 213.5,232.5C 213.5,233.833 213.5,235.167 213.5,236.5C 212.167,236.5 210.833,236.5 209.5,236.5C 209.5,235.167 209.5,233.833 209.5,232.5 Z"/></g>
<g><path style="opacity:1" fill="#cbc1b1" d="M 282.5,229.5 C 282.5,229.833 282.5,230.167 282.5,230.5C 281.527,232.948 281.194,235.615 281.5,238.5C 280.539,236.735 280.205,234.735 280.5,232.5C 279.5,232.5 278.5,232.5 277.5,232.5C 277.918,231.778 278.584,231.278 279.5,231C 278.207,230.51 276.873,230.343 275.5,230.5C 275.5,233.167 275.5,235.833 275.5,238.5C 274.167,238.5 273.5,237.833 273.5,236.5C 273.5,234.833 273.5,233.167 273.5,231.5C 275.988,229.612 278.988,228.945 282.5,229.5 Z"/></g>
<g><path style="opacity:1" fill="#2f1a23" d="M 277.5,232.5 C 277.975,235.082 277.308,237.082 275.5,238.5C 275.5,235.833 275.5,233.167 275.5,230.5C 276.873,230.343 278.207,230.51 279.5,231C 278.584,231.278 277.918,231.778 277.5,232.5 Z"/></g>
<g><path style="opacity:1" fill="#37343c" d="M 298.5,230.5 C 305.536,229.603 307.203,232.103 303.5,238C 297.785,238.401 296.119,235.901 298.5,230.5 Z"/></g>
<g><path style="opacity:1" fill="#f0e9df" d="M 300.5,232.5 C 301.5,232.5 302.5,232.5 303.5,232.5C 303.5,233.833 303.5,235.167 303.5,236.5C 302.5,236.5 301.5,236.5 300.5,236.5C 300.5,235.167 300.5,233.833 300.5,232.5 Z"/></g>
<g><path style="opacity:1" fill="#302831" d="M 308.5,229.5 C 310.144,229.286 311.644,229.62 313,230.5C 313.667,231.167 313.667,231.833 313,232.5C 311.817,231.269 310.651,231.269 309.5,232.5C 310.729,233.281 312.062,233.781 313.5,234C 314.779,236.753 313.779,238.253 310.5,238.5C 309,238.547 308,237.881 307.5,236.5C 309.021,236.12 310.687,235.954 312.5,236C 311.095,234.731 309.429,234.231 307.5,234.5C 307.366,232.708 307.699,231.042 308.5,229.5 Z"/></g>
<g><path style="opacity:1" fill="#312931" d="M 335.5,229.5 C 337.144,229.286 338.644,229.62 340,230.5C 340.688,231.332 340.521,231.998 339.5,232.5C 338.391,231.41 337.391,231.41 336.5,232.5C 337.729,233.281 339.062,233.781 340.5,234C 341.779,236.753 340.779,238.253 337.5,238.5C 336,238.547 335,237.881 334.5,236.5C 335.833,236.167 337.167,235.833 338.5,235.5C 337.311,234.571 335.978,234.238 334.5,234.5C 334.366,232.708 334.699,231.042 335.5,229.5 Z"/></g>
<g><path style="opacity:1" fill="#1f242e" d="M 362.5,229.5 C 363.468,231.607 363.802,233.941 363.5,236.5C 364.5,236.5 365.5,236.5 366.5,236.5C 366.201,234.396 366.534,232.396 367.5,230.5C 368.833,233.167 368.833,235.833 367.5,238.5C 366.402,237.385 365.235,237.385 364,238.5C 362.699,238.361 361.866,237.695 361.5,236.5C 361.298,234.05 361.631,231.717 362.5,229.5 Z"/></g>
<g><path style="opacity:1" fill="#2e212b" d="M 386.5,229.5 C 392.643,230.026 393.976,232.86 390.5,238C 385.504,238.664 383.67,236.498 385,231.5C 385.717,230.956 386.217,230.289 386.5,229.5 Z"/></g>
<g><path style="opacity:1" fill="#d8d7ce" d="M 387.5,231.5 C 388.5,231.5 389.5,231.5 390.5,231.5C 390.5,233.167 390.5,234.833 390.5,236.5C 389.167,236.5 387.833,236.5 386.5,236.5C 386.366,234.708 386.699,233.042 387.5,231.5 Z"/></g>
<g><path style="opacity:1" fill="#7d3951" d="M 117.5,251.5 C 119.5,251.5 121.5,251.5 123.5,251.5C 126.864,267.197 136.53,273.363 152.5,270C 161.311,267.563 165.644,261.729 165.5,252.5C 169.167,252.5 172.833,252.5 176.5,252.5C 174.949,263.558 168.616,270.391 157.5,273C 151.558,274.406 145.558,274.739 139.5,274C 133.207,273.014 127.207,271.181 121.5,268.5C 122.244,271.95 120.91,273.616 117.5,273.5C 117.5,266.167 117.5,258.833 117.5,251.5 Z"/></g>
<g><path style="opacity:1" fill="#834259" d="M 199.5,252.5 C 201.288,252.215 202.955,252.548 204.5,253.5C 202.423,258.731 200.756,264.064 199.5,269.5C 202.187,269.336 204.854,269.503 207.5,270C 208.337,271.011 208.67,272.178 208.5,273.5C 200.5,273.5 192.5,273.5 184.5,273.5C 184.5,272.167 184.5,270.833 184.5,269.5C 187.572,269.817 190.572,269.484 193.5,268.5C 196.078,263.35 198.078,258.017 199.5,252.5 Z"/></g>
<g><path style="opacity:1" fill="#752d47" d="M 269.5,272.5 C 259.81,272.832 250.144,272.498 240.5,271.5C 243.428,270.516 246.428,270.183 249.5,270.5C 249.737,269.209 249.404,268.209 248.5,267.5C 246.547,262.594 244.88,257.594 243.5,252.5C 247.555,252.176 251.555,252.509 255.5,253.5C 257.128,258.94 258.962,264.274 261,269.5C 264.254,269.838 267.088,270.838 269.5,272.5 Z"/></g>
<g><path style="opacity:1" fill="#7b364f" d="M 350.5,252.5 C 350.83,259.2 350.497,265.866 349.5,272.5C 348.065,271.053 347.065,269.386 346.5,267.5C 331.969,275.109 316.969,276.276 301.5,271C 293.55,266.716 287.216,260.716 282.5,253C 286.5,252.333 290.5,252.333 294.5,253C 303.037,270.737 316.37,275.404 334.5,267C 339.222,263.405 342.889,258.905 345.5,253.5C 347.045,252.548 348.712,252.215 350.5,252.5 Z"/></g>
<g><path style="opacity:1" fill="#c1a1ac" d="M 350.5,252.5 C 351.491,259.313 351.825,266.313 351.5,273.5C 347.092,273.938 345.425,271.938 346.5,267.5C 347.065,269.386 348.065,271.053 349.5,272.5C 350.497,265.866 350.83,259.2 350.5,252.5 Z"/></g>
<g><path style="opacity:1" fill="#732a45" d="M 374.5,252.5 C 378.167,252.5 381.833,252.5 385.5,252.5C 385.5,258.5 385.5,264.5 385.5,270.5C 388.833,270.5 392.167,270.5 395.5,270.5C 396.167,270.5 396.5,270.833 396.5,271.5C 385.66,272.824 374.66,272.824 363.5,271.5C 367.107,270.511 370.774,270.177 374.5,270.5C 374.5,264.5 374.5,258.5 374.5,252.5 Z"/></g>
<g><path style="opacity:1" fill="#b892a0" d="M 385.5,252.5 C 386.489,257.975 386.822,263.642 386.5,269.5C 389.713,269.19 392.713,269.523 395.5,270.5C 392.167,270.5 388.833,270.5 385.5,270.5C 385.5,264.5 385.5,258.5 385.5,252.5 Z"/></g>
<g><path style="opacity:1" fill="#a16f81" d="M 248.5,267.5 C 249.404,268.209 249.737,269.209 249.5,270.5C 246.428,270.183 243.428,270.516 240.5,271.5C 250.144,272.498 259.81,272.832 269.5,272.5C 259.681,273.494 249.681,273.827 239.5,273.5C 239.5,272.167 239.5,270.833 239.5,269.5C 243.012,270.055 246.012,269.388 248.5,267.5 Z"/></g>
<g><path style="opacity:1" fill="#ac808f" d="M 374.5,252.5 C 374.5,258.5 374.5,264.5 374.5,270.5C 370.774,270.177 367.107,270.511 363.5,271.5C 374.66,272.824 385.66,272.824 396.5,271.5C 397.043,271.56 397.376,271.893 397.5,272.5C 385.852,273.499 374.186,273.832 362.5,273.5C 362.5,272.167 362.5,270.833 362.5,269.5C 366.167,269.5 369.833,269.5 373.5,269.5C 373.178,263.642 373.511,257.975 374.5,252.5 Z"/></g>
<g><path style="opacity:1" fill="#2d5e8a" d="M 220.5,357.5 C 221.8,359.223 222.467,361.39 222.5,364C 222.167,366.167 221.833,368.333 221.5,370.5C 220.508,366.217 220.174,361.884 220.5,357.5 Z"/></g>
<g><path style="opacity:1" fill="#473c44" d="M 257.5,357.5 C 258.794,359.048 259.461,361.048 259.5,363.5C 259.333,365.5 259.167,367.5 259,369.5C 256.651,366.983 254.151,364.65 251.5,362.5C 250.833,365.167 250.167,367.833 249.5,370.5C 246.634,357.48 249.134,355.813 257,365.5C 257.497,362.854 257.664,360.187 257.5,357.5 Z"/></g>
<g><path style="opacity:1" fill="#392c2b" d="M 237.5,365.5 C 236.167,365.5 234.833,365.5 233.5,365.5C 233.5,367.167 233.5,368.833 233.5,370.5C 232.515,366.366 232.182,362.032 232.5,357.5C 239.363,357.321 241.029,359.987 237.5,365.5 Z"/></g>
<g><path style="opacity:1" fill="#f4f1ea" d="M 234.5,359.5 C 235.5,359.5 236.5,359.5 237.5,359.5C 237.5,361.167 237.5,362.833 237.5,364.5C 236.5,364.5 235.5,364.5 234.5,364.5C 234.5,362.833 234.5,361.167 234.5,359.5 Z"/></g>
<g><path style="opacity:1" fill="#7593b1" d="M 237.5,365.5 C 236.791,366.404 235.791,366.737 234.5,366.5C 234.768,368.099 234.434,369.432 233.5,370.5C 233.5,368.833 233.5,367.167 233.5,365.5C 234.833,365.5 236.167,365.5 237.5,365.5 Z"/></g>
<g><path style="opacity:1" fill="#723d52" d="M 55.5,280.5 C 56.4959,280.414 57.3292,280.748 58,281.5C 82.3006,362.473 135.801,411.306 218.5,428C 233.097,430.202 247.764,430.869 262.5,430C 275.223,428.49 287.889,426.657 300.5,424.5C 300.5,425.5 300.5,426.5 300.5,427.5C 212.621,445.682 141.121,419.682 86,349.5C 72.0523,329.002 61.5523,306.836 54.5,283C 54.7432,282.098 55.0766,281.265 55.5,280.5 Z"/></g>
</svg>
